<?xml version="1.0" encoding="utf-8" standalone="no"?>
<!DOCTYPE svg PUBLIC "-//W3C//DTD SVG 1.1//EN"
  "http://www.w3.org/Graphics/SVG/1.1/DTD/svg11.dtd">
<!-- Created with matplotlib (https://matplotlib.org/) -->
<svg height="345.6pt" version="1.1" viewBox="0 0 460.8 345.6" width="460.8pt" xmlns="http://www.w3.org/2000/svg" xmlns:xlink="http://www.w3.org/1999/xlink">
 <metadata>
  <rdf:RDF xmlns:cc="http://creativecommons.org/ns#" xmlns:dc="http://purl.org/dc/elements/1.1/" xmlns:rdf="http://www.w3.org/1999/02/22-rdf-syntax-ns#">
   <cc:Work>
    <dc:type rdf:resource="http://purl.org/dc/dcmitype/StillImage"/>
    <dc:date>2021-04-21T12:25:15.042920</dc:date>
    <dc:format>image/svg+xml</dc:format>
    <dc:creator>
     <cc:Agent>
      <dc:title>Matplotlib v3.3.2, https://matplotlib.org/</dc:title>
     </cc:Agent>
    </dc:creator>
   </cc:Work>
  </rdf:RDF>
 </metadata>
 <defs>
  <style type="text/css">*{stroke-linecap:butt;stroke-linejoin:round;}</style>
 </defs>
 <g id="figure_1">
  <g id="patch_1">
   <path d="M 0 345.6 
L 460.8 345.6 
L 460.8 0 
L 0 0 
z
" style="fill:#ffffff;"/>
  </g>
  <g id="axes_1">
   <g id="patch_2">
    <path d="M 57.6 307.584 
L 414.72 307.584 
L 414.72 41.472 
L 57.6 41.472 
z
" style="fill:#ffffff;"/>
   </g>
   <g id="matplotlib.axis_1">
    <g id="xtick_1">
     <g id="line2d_1">
      <defs>
       <path d="M 0 0 
L 0 3.5 
" id="m357ec07216" style="stroke:#000000;stroke-width:0.8;"/>
      </defs>
      <g>
       <use style="stroke:#000000;stroke-width:0.8;" x="57.6" xlink:href="#m357ec07216" y="307.584"/>
      </g>
     </g>
     <g id="text_1">
      <!-- 0 -->
      <g transform="translate(54.41875 322.182437)scale(0.1 -0.1)">
       <defs>
        <path d="M 31.78125 66.40625 
Q 24.171875 66.40625 20.328125 58.90625 
Q 16.5 51.421875 16.5 36.375 
Q 16.5 21.390625 20.328125 13.890625 
Q 24.171875 6.390625 31.78125 6.390625 
Q 39.453125 6.390625 43.28125 13.890625 
Q 47.125 21.390625 47.125 36.375 
Q 47.125 51.421875 43.28125 58.90625 
Q 39.453125 66.40625 31.78125 66.40625 
z
M 31.78125 74.21875 
Q 44.046875 74.21875 50.515625 64.515625 
Q 56.984375 54.828125 56.984375 36.375 
Q 56.984375 17.96875 50.515625 8.265625 
Q 44.046875 -1.421875 31.78125 -1.421875 
Q 19.53125 -1.421875 13.0625 8.265625 
Q 6.59375 17.96875 6.59375 36.375 
Q 6.59375 54.828125 13.0625 64.515625 
Q 19.53125 74.21875 31.78125 74.21875 
z
" id="DejaVuSans-48"/>
       </defs>
       <use xlink:href="#DejaVuSans-48"/>
      </g>
     </g>
    </g>
    <g id="xtick_2">
     <g id="line2d_2">
      <g>
       <use style="stroke:#000000;stroke-width:0.8;" x="105.216" xlink:href="#m357ec07216" y="307.584"/>
      </g>
     </g>
     <g id="text_2">
      <!-- 200 -->
      <g transform="translate(95.67225 322.182437)scale(0.1 -0.1)">
       <defs>
        <path d="M 19.1875 8.296875 
L 53.609375 8.296875 
L 53.609375 0 
L 7.328125 0 
L 7.328125 8.296875 
Q 12.9375 14.109375 22.625 23.890625 
Q 32.328125 33.6875 34.8125 36.53125 
Q 39.546875 41.84375 41.421875 45.53125 
Q 43.3125 49.21875 43.3125 52.78125 
Q 43.3125 58.59375 39.234375 62.25 
Q 35.15625 65.921875 28.609375 65.921875 
Q 23.96875 65.921875 18.8125 64.3125 
Q 13.671875 62.703125 7.8125 59.421875 
L 7.8125 69.390625 
Q 13.765625 71.78125 18.9375 73 
Q 24.125 74.21875 28.421875 74.21875 
Q 39.75 74.21875 46.484375 68.546875 
Q 53.21875 62.890625 53.21875 53.421875 
Q 53.21875 48.921875 51.53125 44.890625 
Q 49.859375 40.875 45.40625 35.40625 
Q 44.1875 33.984375 37.640625 27.21875 
Q 31.109375 20.453125 19.1875 8.296875 
z
" id="DejaVuSans-50"/>
       </defs>
       <use xlink:href="#DejaVuSans-50"/>
       <use x="63.623047" xlink:href="#DejaVuSans-48"/>
       <use x="127.246094" xlink:href="#DejaVuSans-48"/>
      </g>
     </g>
    </g>
    <g id="xtick_3">
     <g id="line2d_3">
      <g>
       <use style="stroke:#000000;stroke-width:0.8;" x="152.832" xlink:href="#m357ec07216" y="307.584"/>
      </g>
     </g>
     <g id="text_3">
      <!-- 400 -->
      <g transform="translate(143.28825 322.182437)scale(0.1 -0.1)">
       <defs>
        <path d="M 37.796875 64.3125 
L 12.890625 25.390625 
L 37.796875 25.390625 
z
M 35.203125 72.90625 
L 47.609375 72.90625 
L 47.609375 25.390625 
L 58.015625 25.390625 
L 58.015625 17.1875 
L 47.609375 17.1875 
L 47.609375 0 
L 37.796875 0 
L 37.796875 17.1875 
L 4.890625 17.1875 
L 4.890625 26.703125 
z
" id="DejaVuSans-52"/>
       </defs>
       <use xlink:href="#DejaVuSans-52"/>
       <use x="63.623047" xlink:href="#DejaVuSans-48"/>
       <use x="127.246094" xlink:href="#DejaVuSans-48"/>
      </g>
     </g>
    </g>
    <g id="xtick_4">
     <g id="line2d_4">
      <g>
       <use style="stroke:#000000;stroke-width:0.8;" x="200.448" xlink:href="#m357ec07216" y="307.584"/>
      </g>
     </g>
     <g id="text_4">
      <!-- 600 -->
      <g transform="translate(190.90425 322.182437)scale(0.1 -0.1)">
       <defs>
        <path d="M 33.015625 40.375 
Q 26.375 40.375 22.484375 35.828125 
Q 18.609375 31.296875 18.609375 23.390625 
Q 18.609375 15.53125 22.484375 10.953125 
Q 26.375 6.390625 33.015625 6.390625 
Q 39.65625 6.390625 43.53125 10.953125 
Q 47.40625 15.53125 47.40625 23.390625 
Q 47.40625 31.296875 43.53125 35.828125 
Q 39.65625 40.375 33.015625 40.375 
z
M 52.59375 71.296875 
L 52.59375 62.3125 
Q 48.875 64.0625 45.09375 64.984375 
Q 41.3125 65.921875 37.59375 65.921875 
Q 27.828125 65.921875 22.671875 59.328125 
Q 17.53125 52.734375 16.796875 39.40625 
Q 19.671875 43.65625 24.015625 45.921875 
Q 28.375 48.1875 33.59375 48.1875 
Q 44.578125 48.1875 50.953125 41.515625 
Q 57.328125 34.859375 57.328125 23.390625 
Q 57.328125 12.15625 50.6875 5.359375 
Q 44.046875 -1.421875 33.015625 -1.421875 
Q 20.359375 -1.421875 13.671875 8.265625 
Q 6.984375 17.96875 6.984375 36.375 
Q 6.984375 53.65625 15.1875 63.9375 
Q 23.390625 74.21875 37.203125 74.21875 
Q 40.921875 74.21875 44.703125 73.484375 
Q 48.484375 72.75 52.59375 71.296875 
z
" id="DejaVuSans-54"/>
       </defs>
       <use xlink:href="#DejaVuSans-54"/>
       <use x="63.623047" xlink:href="#DejaVuSans-48"/>
       <use x="127.246094" xlink:href="#DejaVuSans-48"/>
      </g>
     </g>
    </g>
    <g id="xtick_5">
     <g id="line2d_5">
      <g>
       <use style="stroke:#000000;stroke-width:0.8;" x="248.064" xlink:href="#m357ec07216" y="307.584"/>
      </g>
     </g>
     <g id="text_5">
      <!-- 800 -->
      <g transform="translate(238.52025 322.182437)scale(0.1 -0.1)">
       <defs>
        <path d="M 31.78125 34.625 
Q 24.75 34.625 20.71875 30.859375 
Q 16.703125 27.09375 16.703125 20.515625 
Q 16.703125 13.921875 20.71875 10.15625 
Q 24.75 6.390625 31.78125 6.390625 
Q 38.8125 6.390625 42.859375 10.171875 
Q 46.921875 13.96875 46.921875 20.515625 
Q 46.921875 27.09375 42.890625 30.859375 
Q 38.875 34.625 31.78125 34.625 
z
M 21.921875 38.8125 
Q 15.578125 40.375 12.03125 44.71875 
Q 8.5 49.078125 8.5 55.328125 
Q 8.5 64.0625 14.71875 69.140625 
Q 20.953125 74.21875 31.78125 74.21875 
Q 42.671875 74.21875 48.875 69.140625 
Q 55.078125 64.0625 55.078125 55.328125 
Q 55.078125 49.078125 51.53125 44.71875 
Q 48 40.375 41.703125 38.8125 
Q 48.828125 37.15625 52.796875 32.3125 
Q 56.78125 27.484375 56.78125 20.515625 
Q 56.78125 9.90625 50.3125 4.234375 
Q 43.84375 -1.421875 31.78125 -1.421875 
Q 19.734375 -1.421875 13.25 4.234375 
Q 6.78125 9.90625 6.78125 20.515625 
Q 6.78125 27.484375 10.78125 32.3125 
Q 14.796875 37.15625 21.921875 38.8125 
z
M 18.3125 54.390625 
Q 18.3125 48.734375 21.84375 45.5625 
Q 25.390625 42.390625 31.78125 42.390625 
Q 38.140625 42.390625 41.71875 45.5625 
Q 45.3125 48.734375 45.3125 54.390625 
Q 45.3125 60.0625 41.71875 63.234375 
Q 38.140625 66.40625 31.78125 66.40625 
Q 25.390625 66.40625 21.84375 63.234375 
Q 18.3125 60.0625 18.3125 54.390625 
z
" id="DejaVuSans-56"/>
       </defs>
       <use xlink:href="#DejaVuSans-56"/>
       <use x="63.623047" xlink:href="#DejaVuSans-48"/>
       <use x="127.246094" xlink:href="#DejaVuSans-48"/>
      </g>
     </g>
    </g>
    <g id="xtick_6">
     <g id="line2d_6">
      <g>
       <use style="stroke:#000000;stroke-width:0.8;" x="295.68" xlink:href="#m357ec07216" y="307.584"/>
      </g>
     </g>
     <g id="text_6">
      <!-- 1000 -->
      <g transform="translate(282.955 322.182437)scale(0.1 -0.1)">
       <defs>
        <path d="M 12.40625 8.296875 
L 28.515625 8.296875 
L 28.515625 63.921875 
L 10.984375 60.40625 
L 10.984375 69.390625 
L 28.421875 72.90625 
L 38.28125 72.90625 
L 38.28125 8.296875 
L 54.390625 8.296875 
L 54.390625 0 
L 12.40625 0 
z
" id="DejaVuSans-49"/>
       </defs>
       <use xlink:href="#DejaVuSans-49"/>
       <use x="63.623047" xlink:href="#DejaVuSans-48"/>
       <use x="127.246094" xlink:href="#DejaVuSans-48"/>
       <use x="190.869141" xlink:href="#DejaVuSans-48"/>
      </g>
     </g>
    </g>
    <g id="xtick_7">
     <g id="line2d_7">
      <g>
       <use style="stroke:#000000;stroke-width:0.8;" x="343.296" xlink:href="#m357ec07216" y="307.584"/>
      </g>
     </g>
     <g id="text_7">
      <!-- 1200 -->
      <g transform="translate(330.571 322.182437)scale(0.1 -0.1)">
       <use xlink:href="#DejaVuSans-49"/>
       <use x="63.623047" xlink:href="#DejaVuSans-50"/>
       <use x="127.246094" xlink:href="#DejaVuSans-48"/>
       <use x="190.869141" xlink:href="#DejaVuSans-48"/>
      </g>
     </g>
    </g>
    <g id="xtick_8">
     <g id="line2d_8">
      <g>
       <use style="stroke:#000000;stroke-width:0.8;" x="390.912" xlink:href="#m357ec07216" y="307.584"/>
      </g>
     </g>
     <g id="text_8">
      <!-- 1400 -->
      <g transform="translate(378.187 322.182437)scale(0.1 -0.1)">
       <use xlink:href="#DejaVuSans-49"/>
       <use x="63.623047" xlink:href="#DejaVuSans-52"/>
       <use x="127.246094" xlink:href="#DejaVuSans-48"/>
       <use x="190.869141" xlink:href="#DejaVuSans-48"/>
      </g>
     </g>
    </g>
    <g id="text_9">
     <!-- Number of data -->
     <g transform="translate(196.813906 335.860562)scale(0.1 -0.1)">
      <defs>
       <path d="M 9.8125 72.90625 
L 23.09375 72.90625 
L 55.421875 11.921875 
L 55.421875 72.90625 
L 64.984375 72.90625 
L 64.984375 0 
L 51.703125 0 
L 19.390625 60.984375 
L 19.390625 0 
L 9.8125 0 
z
" id="DejaVuSans-78"/>
       <path d="M 8.5 21.578125 
L 8.5 54.6875 
L 17.484375 54.6875 
L 17.484375 21.921875 
Q 17.484375 14.15625 20.5 10.265625 
Q 23.53125 6.390625 29.59375 6.390625 
Q 36.859375 6.390625 41.078125 11.03125 
Q 45.3125 15.671875 45.3125 23.6875 
L 45.3125 54.6875 
L 54.296875 54.6875 
L 54.296875 0 
L 45.3125 0 
L 45.3125 8.40625 
Q 42.046875 3.421875 37.71875 1 
Q 33.40625 -1.421875 27.6875 -1.421875 
Q 18.265625 -1.421875 13.375 4.4375 
Q 8.5 10.296875 8.5 21.578125 
z
M 31.109375 56 
z
" id="DejaVuSans-117"/>
       <path d="M 52 44.1875 
Q 55.375 50.25 60.0625 53.125 
Q 64.75 56 71.09375 56 
Q 79.640625 56 84.28125 50.015625 
Q 88.921875 44.046875 88.921875 33.015625 
L 88.921875 0 
L 79.890625 0 
L 79.890625 32.71875 
Q 79.890625 40.578125 77.09375 44.375 
Q 74.3125 48.1875 68.609375 48.1875 
Q 61.625 48.1875 57.5625 43.546875 
Q 53.515625 38.921875 53.515625 30.90625 
L 53.515625 0 
L 44.484375 0 
L 44.484375 32.71875 
Q 44.484375 40.625 41.703125 44.40625 
Q 38.921875 48.1875 33.109375 48.1875 
Q 26.21875 48.1875 22.15625 43.53125 
Q 18.109375 38.875 18.109375 30.90625 
L 18.109375 0 
L 9.078125 0 
L 9.078125 54.6875 
L 18.109375 54.6875 
L 18.109375 46.1875 
Q 21.1875 51.21875 25.484375 53.609375 
Q 29.78125 56 35.6875 56 
Q 41.65625 56 45.828125 52.96875 
Q 50 49.953125 52 44.1875 
z
" id="DejaVuSans-109"/>
       <path d="M 48.6875 27.296875 
Q 48.6875 37.203125 44.609375 42.84375 
Q 40.53125 48.484375 33.40625 48.484375 
Q 26.265625 48.484375 22.1875 42.84375 
Q 18.109375 37.203125 18.109375 27.296875 
Q 18.109375 17.390625 22.1875 11.75 
Q 26.265625 6.109375 33.40625 6.109375 
Q 40.53125 6.109375 44.609375 11.75 
Q 48.6875 17.390625 48.6875 27.296875 
z
M 18.109375 46.390625 
Q 20.953125 51.265625 25.265625 53.625 
Q 29.59375 56 35.59375 56 
Q 45.5625 56 51.78125 48.09375 
Q 58.015625 40.1875 58.015625 27.296875 
Q 58.015625 14.40625 51.78125 6.484375 
Q 45.5625 -1.421875 35.59375 -1.421875 
Q 29.59375 -1.421875 25.265625 0.953125 
Q 20.953125 3.328125 18.109375 8.203125 
L 18.109375 0 
L 9.078125 0 
L 9.078125 75.984375 
L 18.109375 75.984375 
z
" id="DejaVuSans-98"/>
       <path d="M 56.203125 29.59375 
L 56.203125 25.203125 
L 14.890625 25.203125 
Q 15.484375 15.921875 20.484375 11.0625 
Q 25.484375 6.203125 34.421875 6.203125 
Q 39.59375 6.203125 44.453125 7.46875 
Q 49.3125 8.734375 54.109375 11.28125 
L 54.109375 2.78125 
Q 49.265625 0.734375 44.1875 -0.34375 
Q 39.109375 -1.421875 33.890625 -1.421875 
Q 20.796875 -1.421875 13.15625 6.1875 
Q 5.515625 13.8125 5.515625 26.8125 
Q 5.515625 40.234375 12.765625 48.109375 
Q 20.015625 56 32.328125 56 
Q 43.359375 56 49.78125 48.890625 
Q 56.203125 41.796875 56.203125 29.59375 
z
M 47.21875 32.234375 
Q 47.125 39.59375 43.09375 43.984375 
Q 39.0625 48.390625 32.421875 48.390625 
Q 24.90625 48.390625 20.390625 44.140625 
Q 15.875 39.890625 15.1875 32.171875 
z
" id="DejaVuSans-101"/>
       <path d="M 41.109375 46.296875 
Q 39.59375 47.171875 37.8125 47.578125 
Q 36.03125 48 33.890625 48 
Q 26.265625 48 22.1875 43.046875 
Q 18.109375 38.09375 18.109375 28.8125 
L 18.109375 0 
L 9.078125 0 
L 9.078125 54.6875 
L 18.109375 54.6875 
L 18.109375 46.1875 
Q 20.953125 51.171875 25.484375 53.578125 
Q 30.03125 56 36.53125 56 
Q 37.453125 56 38.578125 55.875 
Q 39.703125 55.765625 41.0625 55.515625 
z
" id="DejaVuSans-114"/>
       <path id="DejaVuSans-32"/>
       <path d="M 30.609375 48.390625 
Q 23.390625 48.390625 19.1875 42.75 
Q 14.984375 37.109375 14.984375 27.296875 
Q 14.984375 17.484375 19.15625 11.84375 
Q 23.34375 6.203125 30.609375 6.203125 
Q 37.796875 6.203125 41.984375 11.859375 
Q 46.1875 17.53125 46.1875 27.296875 
Q 46.1875 37.015625 41.984375 42.703125 
Q 37.796875 48.390625 30.609375 48.390625 
z
M 30.609375 56 
Q 42.328125 56 49.015625 48.375 
Q 55.71875 40.765625 55.71875 27.296875 
Q 55.71875 13.875 49.015625 6.21875 
Q 42.328125 -1.421875 30.609375 -1.421875 
Q 18.84375 -1.421875 12.171875 6.21875 
Q 5.515625 13.875 5.515625 27.296875 
Q 5.515625 40.765625 12.171875 48.375 
Q 18.84375 56 30.609375 56 
z
" id="DejaVuSans-111"/>
       <path d="M 37.109375 75.984375 
L 37.109375 68.5 
L 28.515625 68.5 
Q 23.6875 68.5 21.796875 66.546875 
Q 19.921875 64.59375 19.921875 59.515625 
L 19.921875 54.6875 
L 34.71875 54.6875 
L 34.71875 47.703125 
L 19.921875 47.703125 
L 19.921875 0 
L 10.890625 0 
L 10.890625 47.703125 
L 2.296875 47.703125 
L 2.296875 54.6875 
L 10.890625 54.6875 
L 10.890625 58.5 
Q 10.890625 67.625 15.140625 71.796875 
Q 19.390625 75.984375 28.609375 75.984375 
z
" id="DejaVuSans-102"/>
       <path d="M 45.40625 46.390625 
L 45.40625 75.984375 
L 54.390625 75.984375 
L 54.390625 0 
L 45.40625 0 
L 45.40625 8.203125 
Q 42.578125 3.328125 38.25 0.953125 
Q 33.9375 -1.421875 27.875 -1.421875 
Q 17.96875 -1.421875 11.734375 6.484375 
Q 5.515625 14.40625 5.515625 27.296875 
Q 5.515625 40.1875 11.734375 48.09375 
Q 17.96875 56 27.875 56 
Q 33.9375 56 38.25 53.625 
Q 42.578125 51.265625 45.40625 46.390625 
z
M 14.796875 27.296875 
Q 14.796875 17.390625 18.875 11.75 
Q 22.953125 6.109375 30.078125 6.109375 
Q 37.203125 6.109375 41.296875 11.75 
Q 45.40625 17.390625 45.40625 27.296875 
Q 45.40625 37.203125 41.296875 42.84375 
Q 37.203125 48.484375 30.078125 48.484375 
Q 22.953125 48.484375 18.875 42.84375 
Q 14.796875 37.203125 14.796875 27.296875 
z
" id="DejaVuSans-100"/>
       <path d="M 34.28125 27.484375 
Q 23.390625 27.484375 19.1875 25 
Q 14.984375 22.515625 14.984375 16.5 
Q 14.984375 11.71875 18.140625 8.90625 
Q 21.296875 6.109375 26.703125 6.109375 
Q 34.1875 6.109375 38.703125 11.40625 
Q 43.21875 16.703125 43.21875 25.484375 
L 43.21875 27.484375 
z
M 52.203125 31.203125 
L 52.203125 0 
L 43.21875 0 
L 43.21875 8.296875 
Q 40.140625 3.328125 35.546875 0.953125 
Q 30.953125 -1.421875 24.3125 -1.421875 
Q 15.921875 -1.421875 10.953125 3.296875 
Q 6 8.015625 6 15.921875 
Q 6 25.140625 12.171875 29.828125 
Q 18.359375 34.515625 30.609375 34.515625 
L 43.21875 34.515625 
L 43.21875 35.40625 
Q 43.21875 41.609375 39.140625 45 
Q 35.0625 48.390625 27.6875 48.390625 
Q 23 48.390625 18.546875 47.265625 
Q 14.109375 46.140625 10.015625 43.890625 
L 10.015625 52.203125 
Q 14.9375 54.109375 19.578125 55.046875 
Q 24.21875 56 28.609375 56 
Q 40.484375 56 46.34375 49.84375 
Q 52.203125 43.703125 52.203125 31.203125 
z
" id="DejaVuSans-97"/>
       <path d="M 18.3125 70.21875 
L 18.3125 54.6875 
L 36.8125 54.6875 
L 36.8125 47.703125 
L 18.3125 47.703125 
L 18.3125 18.015625 
Q 18.3125 11.328125 20.140625 9.421875 
Q 21.96875 7.515625 27.59375 7.515625 
L 36.8125 7.515625 
L 36.8125 0 
L 27.59375 0 
Q 17.1875 0 13.234375 3.875 
Q 9.28125 7.765625 9.28125 18.015625 
L 9.28125 47.703125 
L 2.6875 47.703125 
L 2.6875 54.6875 
L 9.28125 54.6875 
L 9.28125 70.21875 
z
" id="DejaVuSans-116"/>
      </defs>
      <use xlink:href="#DejaVuSans-78"/>
      <use x="74.804688" xlink:href="#DejaVuSans-117"/>
      <use x="138.183594" xlink:href="#DejaVuSans-109"/>
      <use x="235.595703" xlink:href="#DejaVuSans-98"/>
      <use x="299.072266" xlink:href="#DejaVuSans-101"/>
      <use x="360.595703" xlink:href="#DejaVuSans-114"/>
      <use x="401.708984" xlink:href="#DejaVuSans-32"/>
      <use x="433.496094" xlink:href="#DejaVuSans-111"/>
      <use x="494.677734" xlink:href="#DejaVuSans-102"/>
      <use x="529.882812" xlink:href="#DejaVuSans-32"/>
      <use x="561.669922" xlink:href="#DejaVuSans-100"/>
      <use x="625.146484" xlink:href="#DejaVuSans-97"/>
      <use x="686.425781" xlink:href="#DejaVuSans-116"/>
      <use x="725.634766" xlink:href="#DejaVuSans-97"/>
     </g>
    </g>
   </g>
   <g id="matplotlib.axis_2">
    <g id="ytick_1">
     <g id="line2d_9">
      <defs>
       <path d="M 0 0 
L -3.5 0 
" id="m8333297f1b" style="stroke:#000000;stroke-width:0.8;"/>
      </defs>
      <g>
       <use style="stroke:#000000;stroke-width:0.8;" x="57.6" xlink:href="#m8333297f1b" y="307.584"/>
      </g>
     </g>
     <g id="text_10">
      <!-- 0 -->
      <g transform="translate(44.2375 311.383219)scale(0.1 -0.1)">
       <use xlink:href="#DejaVuSans-48"/>
      </g>
     </g>
    </g>
    <g id="ytick_2">
     <g id="line2d_10">
      <g>
       <use style="stroke:#000000;stroke-width:0.8;" x="57.6" xlink:href="#m8333297f1b" y="274.32"/>
      </g>
     </g>
     <g id="text_11">
      <!-- 500 -->
      <g transform="translate(31.5125 278.119219)scale(0.1 -0.1)">
       <defs>
        <path d="M 10.796875 72.90625 
L 49.515625 72.90625 
L 49.515625 64.59375 
L 19.828125 64.59375 
L 19.828125 46.734375 
Q 21.96875 47.46875 24.109375 47.828125 
Q 26.265625 48.1875 28.421875 48.1875 
Q 40.625 48.1875 47.75 41.5 
Q 54.890625 34.8125 54.890625 23.390625 
Q 54.890625 11.625 47.5625 5.09375 
Q 40.234375 -1.421875 26.90625 -1.421875 
Q 22.3125 -1.421875 17.546875 -0.640625 
Q 12.796875 0.140625 7.71875 1.703125 
L 7.71875 11.625 
Q 12.109375 9.234375 16.796875 8.0625 
Q 21.484375 6.890625 26.703125 6.890625 
Q 35.15625 6.890625 40.078125 11.328125 
Q 45.015625 15.765625 45.015625 23.390625 
Q 45.015625 31 40.078125 35.4375 
Q 35.15625 39.890625 26.703125 39.890625 
Q 22.75 39.890625 18.8125 39.015625 
Q 14.890625 38.140625 10.796875 36.28125 
z
" id="DejaVuSans-53"/>
       </defs>
       <use xlink:href="#DejaVuSans-53"/>
       <use x="63.623047" xlink:href="#DejaVuSans-48"/>
       <use x="127.246094" xlink:href="#DejaVuSans-48"/>
      </g>
     </g>
    </g>
    <g id="ytick_3">
     <g id="line2d_11">
      <g>
       <use style="stroke:#000000;stroke-width:0.8;" x="57.6" xlink:href="#m8333297f1b" y="241.056"/>
      </g>
     </g>
     <g id="text_12">
      <!-- 1000 -->
      <g transform="translate(25.15 244.855219)scale(0.1 -0.1)">
       <use xlink:href="#DejaVuSans-49"/>
       <use x="63.623047" xlink:href="#DejaVuSans-48"/>
       <use x="127.246094" xlink:href="#DejaVuSans-48"/>
       <use x="190.869141" xlink:href="#DejaVuSans-48"/>
      </g>
     </g>
    </g>
    <g id="ytick_4">
     <g id="line2d_12">
      <g>
       <use style="stroke:#000000;stroke-width:0.8;" x="57.6" xlink:href="#m8333297f1b" y="207.792"/>
      </g>
     </g>
     <g id="text_13">
      <!-- 1500 -->
      <g transform="translate(25.15 211.591219)scale(0.1 -0.1)">
       <use xlink:href="#DejaVuSans-49"/>
       <use x="63.623047" xlink:href="#DejaVuSans-53"/>
       <use x="127.246094" xlink:href="#DejaVuSans-48"/>
       <use x="190.869141" xlink:href="#DejaVuSans-48"/>
      </g>
     </g>
    </g>
    <g id="ytick_5">
     <g id="line2d_13">
      <g>
       <use style="stroke:#000000;stroke-width:0.8;" x="57.6" xlink:href="#m8333297f1b" y="174.528"/>
      </g>
     </g>
     <g id="text_14">
      <!-- 2000 -->
      <g transform="translate(25.15 178.327219)scale(0.1 -0.1)">
       <use xlink:href="#DejaVuSans-50"/>
       <use x="63.623047" xlink:href="#DejaVuSans-48"/>
       <use x="127.246094" xlink:href="#DejaVuSans-48"/>
       <use x="190.869141" xlink:href="#DejaVuSans-48"/>
      </g>
     </g>
    </g>
    <g id="ytick_6">
     <g id="line2d_14">
      <g>
       <use style="stroke:#000000;stroke-width:0.8;" x="57.6" xlink:href="#m8333297f1b" y="141.264"/>
      </g>
     </g>
     <g id="text_15">
      <!-- 2500 -->
      <g transform="translate(25.15 145.063219)scale(0.1 -0.1)">
       <use xlink:href="#DejaVuSans-50"/>
       <use x="63.623047" xlink:href="#DejaVuSans-53"/>
       <use x="127.246094" xlink:href="#DejaVuSans-48"/>
       <use x="190.869141" xlink:href="#DejaVuSans-48"/>
      </g>
     </g>
    </g>
    <g id="ytick_7">
     <g id="line2d_15">
      <g>
       <use style="stroke:#000000;stroke-width:0.8;" x="57.6" xlink:href="#m8333297f1b" y="108"/>
      </g>
     </g>
     <g id="text_16">
      <!-- 3000 -->
      <g transform="translate(25.15 111.799219)scale(0.1 -0.1)">
       <defs>
        <path d="M 40.578125 39.3125 
Q 47.65625 37.796875 51.625 33 
Q 55.609375 28.21875 55.609375 21.1875 
Q 55.609375 10.40625 48.1875 4.484375 
Q 40.765625 -1.421875 27.09375 -1.421875 
Q 22.515625 -1.421875 17.65625 -0.515625 
Q 12.796875 0.390625 7.625 2.203125 
L 7.625 11.71875 
Q 11.71875 9.328125 16.59375 8.109375 
Q 21.484375 6.890625 26.8125 6.890625 
Q 36.078125 6.890625 40.9375 10.546875 
Q 45.796875 14.203125 45.796875 21.1875 
Q 45.796875 27.640625 41.28125 31.265625 
Q 36.765625 34.90625 28.71875 34.90625 
L 20.21875 34.90625 
L 20.21875 43.015625 
L 29.109375 43.015625 
Q 36.375 43.015625 40.234375 45.921875 
Q 44.09375 48.828125 44.09375 54.296875 
Q 44.09375 59.90625 40.109375 62.90625 
Q 36.140625 65.921875 28.71875 65.921875 
Q 24.65625 65.921875 20.015625 65.03125 
Q 15.375 64.15625 9.8125 62.3125 
L 9.8125 71.09375 
Q 15.4375 72.65625 20.34375 73.4375 
Q 25.25 74.21875 29.59375 74.21875 
Q 40.828125 74.21875 47.359375 69.109375 
Q 53.90625 64.015625 53.90625 55.328125 
Q 53.90625 49.265625 50.4375 45.09375 
Q 46.96875 40.921875 40.578125 39.3125 
z
" id="DejaVuSans-51"/>
       </defs>
       <use xlink:href="#DejaVuSans-51"/>
       <use x="63.623047" xlink:href="#DejaVuSans-48"/>
       <use x="127.246094" xlink:href="#DejaVuSans-48"/>
       <use x="190.869141" xlink:href="#DejaVuSans-48"/>
      </g>
     </g>
    </g>
    <g id="ytick_8">
     <g id="line2d_16">
      <g>
       <use style="stroke:#000000;stroke-width:0.8;" x="57.6" xlink:href="#m8333297f1b" y="74.736"/>
      </g>
     </g>
     <g id="text_17">
      <!-- 3500 -->
      <g transform="translate(25.15 78.535219)scale(0.1 -0.1)">
       <use xlink:href="#DejaVuSans-51"/>
       <use x="63.623047" xlink:href="#DejaVuSans-53"/>
       <use x="127.246094" xlink:href="#DejaVuSans-48"/>
       <use x="190.869141" xlink:href="#DejaVuSans-48"/>
      </g>
     </g>
    </g>
    <g id="ytick_9">
     <g id="line2d_17">
      <g>
       <use style="stroke:#000000;stroke-width:0.8;" x="57.6" xlink:href="#m8333297f1b" y="41.472"/>
      </g>
     </g>
     <g id="text_18">
      <!-- 4000 -->
      <g transform="translate(25.15 45.271219)scale(0.1 -0.1)">
       <use xlink:href="#DejaVuSans-52"/>
       <use x="63.623047" xlink:href="#DejaVuSans-48"/>
       <use x="127.246094" xlink:href="#DejaVuSans-48"/>
       <use x="190.869141" xlink:href="#DejaVuSans-48"/>
      </g>
     </g>
    </g>
    <g id="text_19">
     <!-- Empirical mean -->
     <g transform="translate(19.070312 213.536594)rotate(-90)scale(0.1 -0.1)">
      <defs>
       <path d="M 9.8125 72.90625 
L 55.90625 72.90625 
L 55.90625 64.59375 
L 19.671875 64.59375 
L 19.671875 43.015625 
L 54.390625 43.015625 
L 54.390625 34.71875 
L 19.671875 34.71875 
L 19.671875 8.296875 
L 56.78125 8.296875 
L 56.78125 0 
L 9.8125 0 
z
" id="DejaVuSans-69"/>
       <path d="M 18.109375 8.203125 
L 18.109375 -20.796875 
L 9.078125 -20.796875 
L 9.078125 54.6875 
L 18.109375 54.6875 
L 18.109375 46.390625 
Q 20.953125 51.265625 25.265625 53.625 
Q 29.59375 56 35.59375 56 
Q 45.5625 56 51.78125 48.09375 
Q 58.015625 40.1875 58.015625 27.296875 
Q 58.015625 14.40625 51.78125 6.484375 
Q 45.5625 -1.421875 35.59375 -1.421875 
Q 29.59375 -1.421875 25.265625 0.953125 
Q 20.953125 3.328125 18.109375 8.203125 
z
M 48.6875 27.296875 
Q 48.6875 37.203125 44.609375 42.84375 
Q 40.53125 48.484375 33.40625 48.484375 
Q 26.265625 48.484375 22.1875 42.84375 
Q 18.109375 37.203125 18.109375 27.296875 
Q 18.109375 17.390625 22.1875 11.75 
Q 26.265625 6.109375 33.40625 6.109375 
Q 40.53125 6.109375 44.609375 11.75 
Q 48.6875 17.390625 48.6875 27.296875 
z
" id="DejaVuSans-112"/>
       <path d="M 9.421875 54.6875 
L 18.40625 54.6875 
L 18.40625 0 
L 9.421875 0 
z
M 9.421875 75.984375 
L 18.40625 75.984375 
L 18.40625 64.59375 
L 9.421875 64.59375 
z
" id="DejaVuSans-105"/>
       <path d="M 48.78125 52.59375 
L 48.78125 44.1875 
Q 44.96875 46.296875 41.140625 47.34375 
Q 37.3125 48.390625 33.40625 48.390625 
Q 24.65625 48.390625 19.8125 42.84375 
Q 14.984375 37.3125 14.984375 27.296875 
Q 14.984375 17.28125 19.8125 11.734375 
Q 24.65625 6.203125 33.40625 6.203125 
Q 37.3125 6.203125 41.140625 7.25 
Q 44.96875 8.296875 48.78125 10.40625 
L 48.78125 2.09375 
Q 45.015625 0.34375 40.984375 -0.53125 
Q 36.96875 -1.421875 32.421875 -1.421875 
Q 20.0625 -1.421875 12.78125 6.34375 
Q 5.515625 14.109375 5.515625 27.296875 
Q 5.515625 40.671875 12.859375 48.328125 
Q 20.21875 56 33.015625 56 
Q 37.15625 56 41.109375 55.140625 
Q 45.0625 54.296875 48.78125 52.59375 
z
" id="DejaVuSans-99"/>
       <path d="M 9.421875 75.984375 
L 18.40625 75.984375 
L 18.40625 0 
L 9.421875 0 
z
" id="DejaVuSans-108"/>
       <path d="M 54.890625 33.015625 
L 54.890625 0 
L 45.90625 0 
L 45.90625 32.71875 
Q 45.90625 40.484375 42.875 44.328125 
Q 39.84375 48.1875 33.796875 48.1875 
Q 26.515625 48.1875 22.3125 43.546875 
Q 18.109375 38.921875 18.109375 30.90625 
L 18.109375 0 
L 9.078125 0 
L 9.078125 54.6875 
L 18.109375 54.6875 
L 18.109375 46.1875 
Q 21.34375 51.125 25.703125 53.5625 
Q 30.078125 56 35.796875 56 
Q 45.21875 56 50.046875 50.171875 
Q 54.890625 44.34375 54.890625 33.015625 
z
" id="DejaVuSans-110"/>
      </defs>
      <use xlink:href="#DejaVuSans-69"/>
      <use x="63.183594" xlink:href="#DejaVuSans-109"/>
      <use x="160.595703" xlink:href="#DejaVuSans-112"/>
      <use x="224.072266" xlink:href="#DejaVuSans-105"/>
      <use x="251.855469" xlink:href="#DejaVuSans-114"/>
      <use x="292.96875" xlink:href="#DejaVuSans-105"/>
      <use x="320.751953" xlink:href="#DejaVuSans-99"/>
      <use x="375.732422" xlink:href="#DejaVuSans-97"/>
      <use x="437.011719" xlink:href="#DejaVuSans-108"/>
      <use x="464.794922" xlink:href="#DejaVuSans-32"/>
      <use x="496.582031" xlink:href="#DejaVuSans-109"/>
      <use x="593.994141" xlink:href="#DejaVuSans-101"/>
      <use x="655.517578" xlink:href="#DejaVuSans-97"/>
      <use x="716.796875" xlink:href="#DejaVuSans-110"/>
     </g>
    </g>
   </g>
   <g id="line2d_18">
    <path clip-path="url(#p14885eda14)" d="M 57.6 259.68384 
L 57.83808 259.417728 
L 58.07616 263.409408 
L 58.31424 262.478016 
L 58.55232 262.025626 
L 58.7904 254.405952 
L 59.02848 256.946688 
L 59.26656 253.962432 
L 59.50464 254.686848 
L 59.74272 257.554944 
L 59.9808 258.909696 
L 60.21888 257.865408 
L 60.45696 259.090206 
L 60.69504 256.471488 
L 60.93312 256.384051 
L 61.1712 254.162016 
L 61.40928 255.754775 
L 61.64736 252.114432 
L 61.88544 250.776091 
L 62.12352 248.25433 
L 62.3616 248.684544 
L 62.59968 247.116096 
L 63.07584 246.533472 
L 63.31392 245.367014 
L 63.79008 246.62464 
L 64.02816 246.47328 
L 64.26624 247.332573 
L 64.50432 246.573389 
L 64.7424 246.292397 
L 64.98048 247.326264 
L 65.21856 246.402432 
L 65.45664 246.808715 
L 65.69472 246.902861 
L 65.9328 245.60208 
L 66.40896 246.987496 
L 66.64704 246.241772 
L 66.88512 246.651005 
L 67.1232 246.319825 
L 67.36128 247.246272 
L 67.59936 246.477258 
L 67.83744 246.384288 
L 68.07552 246.709402 
L 68.3136 246.077418 
L 68.55168 246.400888 
L 68.78976 245.596536 
L 69.02784 243.956078 
L 69.26592 243.136996 
L 69.504 242.767465 
L 69.98016 243.792435 
L 70.21824 242.051456 
L 70.45632 242.14464 
L 70.6944 243.094608 
L 70.93248 242.792731 
L 71.17056 243.285835 
L 71.64672 242.435347 
L 71.8848 242.033198 
L 72.12288 242.459526 
L 72.36096 241.047552 
L 72.83712 240.5074 
L 73.31328 240.642931 
L 73.55136 241.012952 
L 73.78944 240.041689 
L 74.2656 240.658706 
L 74.50368 239.677392 
L 74.74176 239.33174 
L 75.21792 239.427395 
L 75.456 239.648408 
L 75.69408 239.079168 
L 76.17024 239.546909 
L 76.88448 240.358267 
L 77.12256 240.010789 
L 77.59872 238.535763 
L 78.07488 238.737461 
L 78.31296 238.821264 
L 79.0272 238.272059 
L 79.26528 238.571324 
L 79.50336 238.658131 
L 79.74144 238.454331 
L 80.2176 239.029668 
L 80.45568 238.943565 
L 80.93184 238.601856 
L 81.16992 238.543903 
L 81.408 238.992973 
L 81.64608 238.084416 
L 82.12224 238.530495 
L 82.36032 238.513997 
L 82.5984 238.781496 
L 82.83648 238.864928 
L 83.31264 238.49986 
L 83.55072 237.439296 
L 83.7888 237.296868 
L 84.02688 237.546648 
L 84.26496 237.212683 
L 84.50304 237.213716 
L 84.74112 237.425307 
L 84.9792 237.21114 
L 85.69344 235.367017 
L 86.64576 235.934967 
L 86.88384 235.806726 
L 87.36 236.411712 
L 87.59808 236.257603 
L 87.83616 236.453094 
L 88.07424 236.48465 
L 88.31232 236.253702 
L 88.5504 235.703289 
L 88.78848 235.699488 
L 89.02656 235.905832 
L 89.26464 235.626521 
L 89.7408 236.111404 
L 90.21696 235.882243 
L 90.9312 236.464153 
L 91.16928 236.395292 
L 91.40736 236.53954 
L 91.64544 236.873976 
L 92.1216 235.908738 
L 92.35968 235.773586 
L 94.02624 237.050496 
L 94.26432 236.923538 
L 94.5024 236.967087 
L 94.74048 237.128729 
L 95.21664 236.806576 
L 95.6928 237.188285 
L 95.93088 237.018325 
L 96.8832 237.51639 
L 97.35936 237.50784 
L 98.31168 238.151975 
L 98.78784 238.679345 
L 99.02592 238.241295 
L 99.50208 238.439984 
L 99.97824 238.45286 
L 100.4544 238.124357 
L 101.16864 238.665331 
L 101.40672 238.584755 
L 102.12096 238.951167 
L 102.35904 238.801792 
L 102.59712 239.068564 
L 102.8352 239.05389 
L 103.07328 238.843944 
L 103.31136 238.854027 
L 103.78752 239.047196 
L 104.0256 238.950185 
L 104.26368 239.187813 
L 104.50176 239.230848 
L 104.73984 238.674364 
L 104.97792 238.627728 
L 105.216 238.719245 
L 105.45408 238.589853 
L 106.16832 239.032251 
L 106.4064 238.946481 
L 106.64448 239.07623 
L 106.88256 238.970603 
L 107.12064 239.028965 
L 107.35872 238.944845 
L 107.5968 239.097365 
L 108.07296 238.885875 
L 108.54912 239.175888 
L 108.7872 239.29424 
L 109.9776 239.263055 
L 110.45376 238.694405 
L 110.69184 238.71564 
L 110.92992 238.920008 
L 111.40608 238.773533 
L 111.64416 238.827896 
L 111.88224 238.753957 
L 112.59648 239.02919 
L 112.83456 238.962509 
L 113.31072 239.179627 
L 113.5488 238.894404 
L 114.26304 239.223279 
L 114.50112 239.113382 
L 114.7392 239.300323 
L 114.97728 239.342767 
L 115.69152 239.095461 
L 115.9296 238.743205 
L 116.16768 238.724557 
L 116.40576 238.428144 
L 117.12 238.351412 
L 117.35808 238.492032 
L 117.59616 238.381206 
L 118.3104 238.365774 
L 118.54848 238.195037 
L 119.02464 238.392825 
L 119.26272 238.568876 
L 120.45312 238.637895 
L 120.6912 238.744027 
L 120.92928 238.690892 
L 121.16736 238.820858 
L 122.11968 238.538698 
L 122.59584 238.509483 
L 122.83392 238.402621 
L 123.072 238.472978 
L 123.31008 238.370863 
L 123.78624 238.578011 
L 124.02432 238.511779 
L 124.2624 238.657204 
L 124.73856 238.718352 
L 124.97664 238.456723 
L 125.21472 238.433163 
L 125.69088 238.636884 
L 126.16704 238.080886 
L 126.40512 238.005806 
L 126.6432 238.072985 
L 127.11936 237.558398 
L 127.59552 237.512651 
L 128.07168 237.511424 
L 128.30976 237.244705 
L 128.54784 237.195151 
L 128.78592 237.294063 
L 129.024 236.87866 
L 129.50016 236.96859 
L 129.73824 236.788579 
L 130.45248 236.910027 
L 130.69056 236.683296 
L 130.92864 236.683668 
L 131.4048 236.930836 
L 133.30944 236.849929 
L 133.7856 236.73769 
L 134.26176 236.813862 
L 134.49984 236.75632 
L 134.976 236.821064 
L 135.21408 236.767284 
L 136.1664 237.055476 
L 137.83296 237.101324 
L 138.07104 237.169509 
L 139.02336 237.029407 
L 142.1184 237.34613 
L 142.35648 237.415409 
L 142.59456 237.367598 
L 142.83264 237.447551 
L 143.07072 237.394742 
L 143.54688 237.569345 
L 144.02304 237.62067 
L 144.4992 237.702698 
L 144.73728 237.366687 
L 145.45152 237.303102 
L 145.6896 237.349081 
L 146.40384 237.148992 
L 146.64192 237.19986 
L 146.88 237.125186 
L 149.2608 237.542081 
L 149.49888 237.506465 
L 149.97504 237.570548 
L 150.21312 237.389795 
L 150.92736 237.394759 
L 151.40352 237.610018 
L 151.6416 237.488352 
L 151.87968 237.546941 
L 152.11776 237.367875 
L 152.832 237.378213 
L 153.30816 237.5074 
L 153.54624 237.443727 
L 154.49856 237.651984 
L 155.2128 237.62309 
L 155.68896 237.746031 
L 156.16512 237.711325 
L 156.4032 237.798047 
L 156.87936 237.541157 
L 157.35552 237.70489 
L 159.49824 237.752241 
L 159.9744 237.834254 
L 160.68864 237.689745 
L 161.1648 237.562975 
L 161.40288 237.312772 
L 162.11712 237.471955 
L 162.59328 237.496601 
L 163.78368 237.415564 
L 164.736 237.619556 
L 165.45024 237.719049 
L 165.68832 237.524021 
L 165.9264 237.487998 
L 166.40256 237.573303 
L 166.64064 237.358261 
L 167.1168 237.331586 
L 167.59296 237.4655 
L 167.83104 237.242684 
L 168.06912 237.343022 
L 169.02144 237.162481 
L 169.97376 237.247167 
L 170.21184 237.300115 
L 170.44992 237.051995 
L 170.92608 237.061531 
L 171.8784 237.161138 
L 172.11648 237.086956 
L 172.59264 237.260605 
L 172.83072 237.173508 
L 173.54496 237.264449 
L 174.2592 237.142365 
L 174.49728 236.60241 
L 175.21152 236.523494 
L 176.87808 236.779124 
L 177.8304 236.320153 
L 178.78272 236.245634 
L 179.49696 236.296589 
L 179.73504 236.252523 
L 180.2112 236.344374 
L 180.68736 236.348694 
L 181.16352 236.475291 
L 182.11584 236.353334 
L 182.592 236.366661 
L 183.54432 236.30816 
L 184.73472 236.432615 
L 185.44896 236.519236 
L 187.11552 236.413444 
L 188.06784 236.540336 
L 188.30592 236.294047 
L 189.25824 236.267905 
L 189.7344 236.30188 
L 189.97248 236.270284 
L 190.68672 236.429453 
L 191.63904 236.561349 
L 192.59136 236.406068 
L 193.54368 236.408345 
L 194.01984 236.500107 
L 194.496 236.316804 
L 195.92448 236.404984 
L 196.16256 236.318933 
L 196.8768 236.388141 
L 197.59104 236.384356 
L 197.82912 236.426102 
L 198.0672 236.274989 
L 198.78144 236.398144 
L 200.448 236.624637 
L 202.11456 236.63145 
L 202.59072 236.48629 
L 203.30496 236.549026 
L 204.25728 236.498886 
L 204.73344 236.55746 
L 205.2096 236.549237 
L 206.87616 236.71134 
L 207.5904 236.493719 
L 209.25696 236.604672 
L 209.49504 236.417156 
L 210.68544 236.611021 
L 211.1616 236.639612 
L 211.39968 236.702375 
L 211.63776 236.57768 
L 212.352 236.760192 
L 214.49472 236.583706 
L 214.7328 236.437487 
L 215.20896 236.430949 
L 215.68512 236.298798 
L 216.87552 236.313249 
L 217.58976 236.352579 
L 218.78016 236.145488 
L 219.4944 236.222218 
L 219.97056 236.223515 
L 220.44672 236.28502 
L 221.8752 236.299874 
L 224.256 236.300909 
L 224.49408 236.106772 
L 225.20832 236.062154 
L 226.16064 236.049416 
L 226.87488 236.026035 
L 227.11296 236.033089 
L 227.35104 235.918249 
L 228.30336 235.990977 
L 230.208 236.039459 
L 230.44608 235.979374 
L 231.16032 236.100849 
L 232.35072 236.242812 
L 233.7792 236.206369 
L 234.25536 236.298218 
L 235.44576 236.280215 
L 236.39808 236.373561 
L 238.06464 236.318575 
L 239.25504 236.423422 
L 239.7312 236.295861 
L 240.44544 236.246951 
L 240.68352 236.150899 
L 241.15968 236.228411 
L 243.3024 235.970228 
L 243.77856 236.027741 
L 244.73088 236.02016 
L 246.39744 235.992499 
L 246.8736 235.778558 
L 247.58784 235.780721 
L 249.73056 235.817414 
L 250.4448 235.928012 
L 250.92096 235.917714 
L 252.11136 235.822898 
L 252.58752 235.821058 
L 253.77792 235.742147 
L 255.44448 235.857221 
L 256.3968 235.967404 
L 257.11104 236.024295 
L 257.34912 236.035354 
L 258.06336 235.767221 
L 258.7776 235.75169 
L 260.20608 235.729075 
L 261.39648 235.69774 
L 263.77728 235.637076 
L 264.01536 235.508117 
L 267.82464 235.739179 
L 269.96736 235.879779 
L 272.11008 235.796305 
L 274.72896 235.881827 
L 276.15744 235.813101 
L 276.6336 235.784613 
L 277.34784 235.77264 
L 278.30016 235.647732 
L 280.44288 235.680935 
L 280.91904 235.608497 
L 282.10944 235.565749 
L 283.06176 235.560563 
L 284.01408 235.516845 
L 284.9664 235.504391 
L 287.82336 235.557818 
L 288.77568 235.552519 
L 290.20416 235.654307 
L 290.44224 235.523915 
L 291.15648 235.548674 
L 291.87072 235.571391 
L 294.72768 235.819172 
L 296.39424 235.790216 
L 297.34656 235.833024 
L 297.58464 235.75143 
L 298.53696 235.863532 
L 299.2512 235.801336 
L 300.20352 235.882731 
L 300.91776 235.884115 
L 302.10816 235.933085 
L 302.8224 235.899725 
L 304.48896 235.832975 
L 305.67936 235.910573 
L 308.29824 235.804959 
L 310.67904 235.821297 
L 312.58368 235.816424 
L 313.77408 235.927723 
L 314.48832 235.922256 
L 315.20256 235.917802 
L 318.05952 235.931825 
L 318.2976 235.699282 
L 319.01184 235.746109 
L 320.44032 235.834666 
L 321.39264 235.78991 
L 322.34496 235.829637 
L 324.96384 235.762881 
L 327.8208 235.896566 
L 329.0112 235.899584 
L 330.43968 235.967855 
L 333.29664 235.940404 
L 334.01088 235.9772 
L 334.9632 236.009229 
L 336.62976 235.988983 
L 340.43904 235.801127 
L 341.15328 235.649595 
L 341.62944 235.601373 
L 342.34368 235.563244 
L 343.296 235.59594 
L 348.29568 235.580234 
L 348.77184 235.525262 
L 349.96224 235.488868 
L 351.15264 235.572885 
L 351.6288 235.573791 
L 352.10496 235.52934 
L 354.24768 235.486001 
L 357.34272 235.415482 
L 358.7712 235.334802 
L 359.9616 235.370499 
L 361.39008 235.358661 
L 362.58048 235.363445 
L 363.05664 235.267649 
L 363.5328 235.274375 
L 364.24704 235.162517 
L 369.4848 235.262025 
L 370.19904 235.254394 
L 370.43712 235.283292 
L 370.91328 235.188806 
L 373.53216 235.164665 
L 374.2464 235.175545 
L 374.72256 235.141247 
L 375.4368 235.183609 
L 376.38912 235.184854 
L 376.86528 235.136297 
L 379.008 235.134959 
L 380.91264 235.2266 
L 382.34112 235.22532 
L 382.81728 235.244947 
L 383.29344 235.193177 
L 384.72192 235.215277 
L 389.24544 235.079743 
L 389.7216 235.017774 
L 390.912 235.090419 
L 397.10208 235.218133 
L 397.57824 235.168575 
L 398.76864 235.198567 
L 399.2448 235.154651 
L 400.4352 235.174943 
L 400.91136 235.151006 
L 403.29216 235.217653 
L 411.38688 235.354725 
L 413.5296 235.394183 
L 414.95808 235.402803 
L 414.95808 235.402803 
" style="fill:none;stroke:#8a2be2;stroke-linecap:square;stroke-width:1.5;"/>
   </g>
   <g id="line2d_19">
    <path clip-path="url(#p14885eda14)" d="M 57.6 210.719232 
L 57.83808 155.367936 
L 58.07616 145.344384 
L 58.31424 150.710976 
L 58.55232 119.76215 
L 59.02848 136.093824 
L 59.26656 137.538432 
L 59.74272 129.608294 
L 60.21888 145.854432 
L 60.45696 146.463419 
L 60.69504 144.666432 
L 60.93312 150.648883 
L 61.1712 150.677712 
L 61.40928 153.270347 
L 61.64736 159.389184 
L 61.88544 159.387628 
L 62.3616 166.025088 
L 63.07584 171.556416 
L 63.552 174.220948 
L 63.79008 170.526464 
L 64.02816 162.495936 
L 64.26624 164.039517 
L 64.50432 164.078669 
L 64.7424 164.28698 
L 64.98048 161.604936 
L 65.21856 161.190144 
L 65.45664 162.944301 
L 65.69472 163.404518 
L 66.17088 166.429565 
L 66.40896 167.216923 
L 66.64704 168.74177 
L 67.1232 165.999435 
L 67.36128 162.26784 
L 67.59936 162.936656 
L 68.07552 166.952678 
L 68.3136 162.414119 
L 68.55168 163.345634 
L 68.78976 162.203688 
L 69.02784 163.37845 
L 69.26592 162.153792 
L 69.504 164.290515 
L 69.74208 163.19777 
L 69.98016 163.150457 
L 70.21824 162.483968 
L 70.6944 160.490592 
L 70.93248 160.680839 
L 71.17056 160.593825 
L 71.40864 159.621218 
L 72.12288 162.02932 
L 72.36096 159.604608 
L 72.59904 159.37209 
L 72.83712 158.966589 
L 73.0752 160.601472 
L 73.31328 161.460709 
L 73.55136 160.737137 
L 73.78944 160.663179 
L 74.2656 161.960767 
L 74.50368 159.0972 
L 74.74176 160.413128 
L 74.97984 160.136375 
L 75.456 158.582289 
L 75.93216 159.816783 
L 76.17024 159.487619 
L 76.40832 157.989139 
L 76.6464 157.664384 
L 76.88448 157.603926 
L 77.12256 157.086442 
L 77.59872 158.248207 
L 77.8368 158.852147 
L 78.07488 159.901016 
L 78.31296 159.4836 
L 78.78912 160.560077 
L 79.0272 159.909386 
L 79.26528 160.022003 
L 79.74144 159.832389 
L 80.45568 158.926155 
L 80.69376 158.870839 
L 80.93184 158.150016 
L 81.16992 157.797539 
L 81.408 158.400559 
L 81.64608 158.323866 
L 81.88416 159.129675 
L 82.12224 157.148839 
L 82.36032 157.071053 
L 82.5984 156.658328 
L 83.55072 158.537088 
L 83.7888 159.273309 
L 84.02688 157.321008 
L 84.26496 156.82331 
L 84.50304 156.999623 
L 84.9792 157.990057 
L 85.21728 157.308052 
L 85.93152 158.873962 
L 86.1696 158.552483 
L 86.40768 158.511111 
L 86.64576 159.216824 
L 86.88384 158.670729 
L 87.12192 158.867841 
L 87.36 158.3712 
L 87.59808 158.156874 
L 87.83616 158.105979 
L 88.07424 158.850084 
L 88.5504 157.905141 
L 88.78848 156.70656 
L 89.02656 157.138681 
L 89.26464 157.05596 
L 89.50272 156.724122 
L 89.7408 155.596871 
L 90.21696 156.548085 
L 90.69312 158.08608 
L 90.9312 157.711986 
L 91.40736 157.666176 
L 91.88352 157.489491 
L 92.35968 158.512402 
L 92.59776 158.097382 
L 92.83584 158.055846 
L 93.07392 157.668918 
L 93.312 158.175329 
L 93.55008 158.379203 
L 93.78816 158.051667 
L 94.02624 158.412672 
L 94.26432 158.988776 
L 94.5024 158.573221 
L 94.97856 159.245087 
L 95.21664 159.588907 
L 95.45472 159.26814 
L 95.6928 159.174495 
L 95.93088 159.535381 
L 96.40704 158.637544 
L 96.8832 157.98417 
L 97.12128 157.944601 
L 97.35936 157.083408 
L 97.59744 157.293705 
L 97.83552 157.271419 
L 98.0736 157.076655 
L 98.31168 157.301889 
L 98.54976 157.130736 
L 98.78784 157.097664 
L 99.02592 156.0431 
L 99.264 156.36888 
L 99.50208 156.244452 
L 99.97824 157.263427 
L 100.4544 155.122407 
L 100.69248 155.379633 
L 100.93056 155.126545 
L 101.6448 156.077568 
L 101.88288 155.749316 
L 102.12096 155.983674 
L 102.59712 155.54301 
L 102.8352 155.884834 
L 103.07328 155.71998 
L 103.54944 156.378887 
L 103.78752 156.451489 
L 104.26368 155.954193 
L 104.50176 156.037248 
L 104.73984 156.325404 
L 104.97792 156.356542 
L 105.216 156.143765 
L 105.45408 156.109624 
L 105.69216 156.416653 
L 105.93024 156.252367 
L 106.16832 155.891073 
L 106.4064 155.794232 
L 106.64448 155.544058 
L 107.12064 155.631501 
L 107.35872 155.93184 
L 107.5968 155.809354 
L 107.83488 155.00266 
L 108.07296 155.260492 
L 108.31104 154.987421 
L 108.54912 155.298623 
L 108.7872 155.295248 
L 109.02528 155.073619 
L 109.50144 155.01069 
L 109.73952 154.103904 
L 109.9776 154.106011 
L 110.21568 153.843186 
L 110.45376 152.939515 
L 110.92992 153.690839 
L 111.168 152.736253 
L 111.64416 152.646124 
L 111.88224 152.961307 
L 112.12032 153.464657 
L 112.3584 153.689472 
L 112.83456 153.669616 
L 113.07264 153.846321 
L 113.31072 153.633112 
L 113.5488 153.882896 
L 113.78688 153.612944 
L 114.26304 154.067439 
L 114.50112 153.99635 
L 114.7392 153.793348 
L 114.97728 153.930711 
L 115.45344 154.614316 
L 115.69152 154.454466 
L 116.40576 155.19947 
L 116.88192 154.799521 
L 117.59616 155.647722 
L 117.83424 155.478991 
L 118.07232 155.646571 
L 118.3104 155.447977 
L 118.54848 155.438347 
L 118.78656 155.23488 
L 119.02464 155.21279 
L 119.26272 155.3925 
L 119.5008 155.144647 
L 119.73888 155.064243 
L 119.97696 155.311273 
L 121.16736 155.257718 
L 121.64352 153.713114 
L 122.11968 154.134233 
L 122.35776 154.061745 
L 122.59584 153.841191 
L 122.83392 154.061568 
L 123.072 153.883108 
L 123.54816 154.36858 
L 124.02432 154.197994 
L 124.2624 154.472057 
L 124.50048 153.867517 
L 124.73856 154.093796 
L 124.97664 154.041124 
L 125.21472 153.872106 
L 125.4528 154.080177 
L 126.6432 153.263731 
L 126.88128 153.487836 
L 127.11936 153.244489 
L 127.35744 153.419163 
L 127.59552 153.792012 
L 127.8336 153.797336 
L 128.07168 154.02304 
L 128.30976 152.989002 
L 129.024 152.890707 
L 129.26208 153.093648 
L 129.50016 152.860511 
L 129.73824 153.17864 
L 129.97632 152.972928 
L 130.69056 153.477504 
L 130.92864 153.00307 
L 131.16672 153.014991 
L 131.4048 152.836877 
L 131.64288 153.019839 
L 131.88096 152.85305 
L 132.11904 152.491553 
L 132.35712 152.651059 
L 132.5952 153.021771 
L 133.07136 152.993849 
L 133.54752 152.675215 
L 134.26176 153.270347 
L 134.49984 152.652608 
L 134.976 153.087209 
L 135.21408 153.084418 
L 135.69024 152.832188 
L 135.92832 152.385062 
L 136.40448 152.076002 
L 136.64256 152.279279 
L 137.11872 152.831531 
L 137.3568 152.830368 
L 138.07104 152.525483 
L 138.5472 152.87538 
L 139.02336 152.591992 
L 139.49952 152.894251 
L 139.7376 152.745271 
L 139.97568 152.851759 
L 140.21376 152.701463 
L 140.45184 152.702241 
L 140.928 153.014626 
L 141.16608 152.8875 
L 141.88032 153.036645 
L 142.35648 153.455209 
L 142.59456 153.32601 
L 143.07072 153.653731 
L 143.54688 153.61689 
L 143.78496 153.59239 
L 144.26112 153.833235 
L 144.4992 153.312475 
L 144.73728 153.472522 
L 144.97536 152.758158 
L 145.21344 152.939033 
L 145.45152 152.941282 
L 145.6896 153.118536 
L 145.92768 153.113853 
L 146.16576 153.294688 
L 146.64192 153.288714 
L 146.88 153.463395 
L 147.11808 153.296921 
L 147.59424 153.263615 
L 148.30848 153.879241 
L 148.54656 153.733049 
L 149.02272 154.049818 
L 149.2608 153.901562 
L 149.49888 154.20722 
L 149.73696 154.183463 
L 150.21312 153.908414 
L 150.4512 154.093865 
L 150.92736 154.025865 
L 151.16544 153.941468 
L 151.6416 154.219488 
L 151.87968 153.82891 
L 152.35584 154.338836 
L 153.30816 153.977947 
L 153.54624 154.123665 
L 153.78432 154.095855 
L 154.0224 154.261539 
L 154.73664 153.978168 
L 154.97472 154.196394 
L 155.2128 154.186295 
L 155.68896 154.502589 
L 155.92704 154.379336 
L 156.16512 153.673155 
L 157.11744 154.138994 
L 157.35552 154.024704 
L 157.5936 154.15937 
L 157.83168 154.034223 
L 158.06976 154.161939 
L 158.30784 153.798252 
L 159.02208 153.482093 
L 159.26016 153.729606 
L 160.21248 153.784816 
L 160.45056 153.66863 
L 160.92672 153.97253 
L 161.1648 153.967796 
L 161.64096 154.206886 
L 162.11712 154.001693 
L 162.3552 154.1472 
L 164.736 153.981321 
L 164.97408 154.171609 
L 165.68832 154.082995 
L 166.40256 153.649248 
L 167.1168 153.381621 
L 167.35488 153.058176 
L 168.06912 153.078801 
L 168.3072 153.232758 
L 168.54528 153.17066 
L 169.02144 153.546572 
L 169.4976 152.78309 
L 169.97376 152.671935 
L 170.21184 152.575444 
L 170.44992 152.71522 
L 170.92608 152.538892 
L 171.16416 152.773622 
L 171.40224 152.647371 
L 171.64032 152.889214 
L 171.8784 152.820232 
L 172.11648 152.944219 
L 172.59264 152.643037 
L 173.0688 152.606066 
L 173.30688 152.569115 
L 174.02112 153.030495 
L 174.49728 153.197933 
L 174.73536 153.379923 
L 175.68768 153.317749 
L 175.92576 153.210719 
L 176.16384 153.322767 
L 176.40192 153.289069 
L 176.64 153.407949 
L 177.35424 153.123408 
L 178.06848 153.486256 
L 178.30656 153.389383 
L 178.54464 153.491559 
L 179.0208 153.285388 
L 179.25888 153.407959 
L 179.49696 153.397255 
L 179.73504 153.029878 
L 179.97312 153.133112 
L 180.2112 153.062148 
L 180.68736 153.146055 
L 182.83008 153.769749 
L 183.30624 153.652042 
L 183.54432 153.856621 
L 184.02048 153.626203 
L 184.49664 153.910798 
L 184.9728 153.890419 
L 185.92512 154.402541 
L 186.1632 154.608951 
L 186.63936 154.471585 
L 186.87744 154.566665 
L 187.11552 154.451437 
L 187.59168 154.582249 
L 187.82976 154.48559 
L 188.06784 154.668483 
L 188.30592 154.666368 
L 188.544 154.321358 
L 188.78208 154.232621 
L 189.25824 154.261218 
L 189.49632 153.888737 
L 190.44864 154.035948 
L 190.9248 153.836725 
L 191.16288 153.923734 
L 191.40096 153.859653 
L 192.82944 154.376914 
L 194.01984 154.442107 
L 194.496 154.254054 
L 194.73408 154.251834 
L 194.97216 154.39741 
L 195.21024 154.396328 
L 195.44832 154.278253 
L 195.6864 154.42578 
L 196.63872 154.10288 
L 197.11488 153.903187 
L 197.59104 154.249272 
L 198.0672 154.53673 
L 198.54336 154.439012 
L 199.01952 154.481045 
L 199.2576 154.392341 
L 199.49568 154.503183 
L 199.73376 154.187787 
L 200.68608 153.914929 
L 200.92416 154.00516 
L 201.16224 153.928111 
L 202.11456 154.310491 
L 202.35264 154.244935 
L 202.59072 154.32181 
L 203.06688 154.198696 
L 203.54304 154.265348 
L 203.78112 154.331614 
L 204.0192 154.063728 
L 204.49536 154.048141 
L 205.44768 154.368519 
L 206.16192 154.174051 
L 206.4 154.27033 
L 206.63808 154.03101 
L 206.87616 154.01407 
L 207.11424 154.11776 
L 209.01888 154.015235 
L 209.9712 154.331718 
L 210.68544 154.092334 
L 210.92352 153.620261 
L 211.87584 153.702378 
L 212.59008 153.83167 
L 212.82816 153.823427 
L 213.30432 153.979685 
L 213.5424 153.96598 
L 214.25664 154.217476 
L 214.7328 154.152919 
L 215.20896 154.108419 
L 215.68512 154.346306 
L 216.39936 154.188757 
L 217.1136 154.535097 
L 217.58976 154.727369 
L 218.06592 154.581033 
L 218.304 154.656598 
L 218.54208 154.563311 
L 218.78016 154.284256 
L 219.01824 154.210212 
L 219.4944 153.71812 
L 219.97056 153.730354 
L 220.20864 153.469359 
L 220.6848 153.384897 
L 220.92288 153.466029 
L 221.16096 153.390662 
L 221.39904 153.530257 
L 221.8752 153.4651 
L 222.58944 153.720649 
L 223.0656 153.643561 
L 223.30368 153.592202 
L 223.54176 153.671377 
L 223.77984 153.630404 
L 224.73216 154.111569 
L 225.4464 153.89452 
L 226.39872 154.325976 
L 226.6368 154.442345 
L 226.87488 154.3674 
L 227.58912 154.732989 
L 228.06528 154.606715 
L 228.30336 154.75232 
L 228.77952 154.807253 
L 229.0176 154.880002 
L 229.49376 154.721611 
L 229.73184 154.813659 
L 230.68416 154.579835 
L 231.3984 154.81387 
L 231.87456 154.690857 
L 233.06496 155.057472 
L 233.30304 154.989114 
L 233.54112 155.071257 
L 234.01728 154.954781 
L 234.25536 154.679913 
L 234.73152 154.746055 
L 236.39808 155.239834 
L 237.58848 155.269506 
L 238.06464 155.52571 
L 238.5408 155.604674 
L 239.01696 155.815409 
L 239.96928 155.860954 
L 240.20736 155.931345 
L 240.44544 155.881473 
L 240.9216 155.915002 
L 241.15968 155.868792 
L 241.63584 155.952076 
L 242.112 155.935482 
L 242.35008 155.614869 
L 242.82624 155.828422 
L 243.54048 155.828357 
L 244.01664 155.986035 
L 244.4928 155.908286 
L 244.96896 156.082521 
L 245.44512 155.902181 
L 245.92128 155.828928 
L 246.15936 155.545456 
L 246.8736 155.487285 
L 247.58784 155.290667 
L 248.30208 155.404103 
L 248.54016 155.354349 
L 249.01632 155.431076 
L 249.73056 155.432817 
L 250.20672 155.56637 
L 250.68288 155.60783 
L 251.39712 155.800572 
L 251.6352 155.737427 
L 252.34944 156.013558 
L 252.8256 155.913125 
L 253.53984 155.837507 
L 254.25408 156.089045 
L 255.2064 155.814018 
L 255.68256 155.893771 
L 255.92064 155.831877 
L 256.15872 155.645521 
L 256.63488 155.539939 
L 256.87296 155.644845 
L 257.34912 155.521584 
L 257.82528 155.599599 
L 258.30144 155.667154 
L 258.53952 155.741753 
L 258.7776 155.686893 
L 259.25376 155.870976 
L 260.44416 155.889241 
L 260.92032 156.136704 
L 261.1584 156.077983 
L 261.63456 156.093076 
L 262.11072 156.09108 
L 262.82496 156.034912 
L 264.7296 155.647797 
L 264.96768 155.548294 
L 265.20576 155.623989 
L 265.44384 155.546968 
L 265.68192 155.594207 
L 265.92 155.522257 
L 266.15808 155.580037 
L 266.87232 155.418739 
L 267.58656 155.500841 
L 267.82464 155.44199 
L 268.06272 155.514072 
L 269.01504 155.400863 
L 269.25312 155.507271 
L 269.4912 155.279232 
L 269.96736 155.400716 
L 270.20544 155.335491 
L 270.44352 155.401832 
L 270.6816 155.348334 
L 271.39584 155.608295 
L 273.0624 155.979171 
L 273.30048 155.898693 
L 273.77664 155.975105 
L 274.96704 156.131334 
L 275.20512 156.188666 
L 275.4432 155.971917 
L 276.6336 155.746156 
L 276.87168 155.814727 
L 277.10976 155.754851 
L 277.824 155.952463 
L 278.30016 155.794346 
L 279.0144 155.676637 
L 279.72864 155.625501 
L 280.2048 155.784162 
L 280.44288 155.715273 
L 281.15712 155.95593 
L 281.63328 156.004684 
L 282.10944 155.915946 
L 282.5856 155.95839 
L 282.82368 156.035886 
L 283.06176 155.973706 
L 283.776 156.172988 
L 284.25216 155.905186 
L 284.72832 155.936106 
L 286.87104 155.976626 
L 288.06144 156.086081 
L 290.20416 155.878664 
L 290.44224 155.600614 
L 290.9184 155.497601 
L 291.63264 155.651086 
L 291.87072 155.713476 
L 292.34688 155.649416 
L 293.06112 155.76361 
L 293.2992 155.683457 
L 294.25152 155.841054 
L 296.8704 155.597279 
L 297.34656 155.697672 
L 297.58464 155.645652 
L 297.82272 155.379529 
L 298.53696 155.294906 
L 302.10816 155.334801 
L 302.8224 155.410266 
L 303.77472 155.218553 
L 304.25088 155.249892 
L 305.91744 155.003689 
L 306.15552 154.935027 
L 306.86976 155.047992 
L 307.82208 154.85696 
L 308.06016 154.661337 
L 309.9648 154.987704 
L 310.44096 154.930841 
L 311.86944 155.167294 
L 312.58368 155.121931 
L 313.05984 155.235128 
L 313.536 155.32515 
L 313.77408 155.176197 
L 316.39296 155.272791 
L 317.34528 155.416674 
L 317.58336 155.384492 
L 318.05952 155.165496 
L 319.72608 154.867829 
L 320.20224 154.871386 
L 320.6784 154.876615 
L 321.39264 154.931935 
L 322.10688 155.024527 
L 322.82112 155.135714 
L 324.01152 155.017951 
L 324.48768 155.039209 
L 328.29696 154.989112 
L 329.0112 155.056811 
L 330.43968 155.214347 
L 330.91584 155.229206 
L 331.392 155.328169 
L 331.86816 155.435791 
L 332.34432 155.396966 
L 333.29664 155.49904 
L 333.7728 155.543969 
L 334.01088 155.402975 
L 334.24896 155.39997 
L 334.48704 155.274202 
L 334.72512 155.274511 
L 335.20128 155.05599 
L 335.43936 154.989045 
L 335.91552 155.032453 
L 337.344 154.864677 
L 338.05824 154.804113 
L 339.24864 154.95326 
L 339.7248 154.926809 
L 340.20096 155.080992 
L 341.15328 155.01498 
L 341.86752 155.130996 
L 342.58176 155.055177 
L 343.05792 155.0761 
L 344.01024 155.081932 
L 344.4864 155.104031 
L 346.62912 154.915655 
L 347.58144 155.148323 
L 347.81952 154.980765 
L 348.77184 155.030948 
L 349.248 155.0697 
L 353.05728 155.642833 
L 354.48576 155.406531 
L 356.86656 155.791219 
L 358.05696 155.664389 
L 358.53312 155.689164 
L 359.72352 155.763961 
L 359.9616 155.714656 
L 360.67584 155.868619 
L 361.152 155.550419 
L 362.10432 155.776667 
L 362.81856 155.748333 
L 363.77088 155.889822 
L 364.7232 155.743915 
L 366.15168 155.954121 
L 366.62784 155.644291 
L 367.81824 155.665271 
L 370.6752 155.785708 
L 372.34176 156.071936 
L 373.056 156.02258 
L 374.00832 156.177677 
L 374.2464 156.229251 
L 374.72256 156.032517 
L 375.4368 155.955534 
L 376.15104 155.931362 
L 376.6272 155.971004 
L 377.57952 155.828142 
L 378.05568 155.632468 
L 379.48416 155.787067 
L 379.96032 155.797839 
L 380.67456 155.860184 
L 381.15072 155.546779 
L 381.62688 155.538701 
L 382.10304 155.354084 
L 383.05536 155.356653 
L 385.43616 155.357894 
L 385.67424 155.232661 
L 386.1504 155.236903 
L 386.86464 155.210653 
L 387.81696 155.274183 
L 388.05504 155.136501 
L 388.76928 155.181161 
L 389.48352 155.137878 
L 400.67328 155.865466 
L 401.14944 155.871411 
L 401.6256 155.818081 
L 402.816 155.927303 
L 403.29216 155.919207 
L 404.24448 155.96646 
L 404.48256 155.999085 
L 404.72064 155.863864 
L 405.67296 155.915257 
L 406.86336 155.774174 
L 407.33952 155.779414 
L 408.05376 155.759245 
L 408.768 155.775578 
L 411.38688 155.605057 
L 411.86304 155.602057 
L 412.57728 155.663121 
L 413.76768 155.737862 
L 414.48192 155.735525 
L 414.95808 155.753639 
L 414.95808 155.753639 
" style="fill:none;stroke:#ff8c00;stroke-linecap:square;stroke-width:1.5;"/>
   </g>
   <g id="patch_3">
    <path d="M 57.6 307.584 
L 57.6 41.472 
" style="fill:none;stroke:#000000;stroke-linecap:square;stroke-linejoin:miter;stroke-width:0.8;"/>
   </g>
   <g id="patch_4">
    <path d="M 414.72 307.584 
L 414.72 41.472 
" style="fill:none;stroke:#000000;stroke-linecap:square;stroke-linejoin:miter;stroke-width:0.8;"/>
   </g>
   <g id="patch_5">
    <path d="M 57.6 307.584 
L 414.72 307.584 
" style="fill:none;stroke:#000000;stroke-linecap:square;stroke-linejoin:miter;stroke-width:0.8;"/>
   </g>
   <g id="patch_6">
    <path d="M 57.6 41.472 
L 414.72 41.472 
" style="fill:none;stroke:#000000;stroke-linecap:square;stroke-linejoin:miter;stroke-width:0.8;"/>
   </g>
   <g id="text_20">
    <!-- Empirical mean convergence -->
    <g transform="translate(148.770938 35.472)scale(0.12 -0.12)">
     <defs>
      <path d="M 2.984375 54.6875 
L 12.5 54.6875 
L 29.59375 8.796875 
L 46.6875 54.6875 
L 56.203125 54.6875 
L 35.6875 0 
L 23.484375 0 
z
" id="DejaVuSans-118"/>
      <path d="M 45.40625 27.984375 
Q 45.40625 37.75 41.375 43.109375 
Q 37.359375 48.484375 30.078125 48.484375 
Q 22.859375 48.484375 18.828125 43.109375 
Q 14.796875 37.75 14.796875 27.984375 
Q 14.796875 18.265625 18.828125 12.890625 
Q 22.859375 7.515625 30.078125 7.515625 
Q 37.359375 7.515625 41.375 12.890625 
Q 45.40625 18.265625 45.40625 27.984375 
z
M 54.390625 6.78125 
Q 54.390625 -7.171875 48.1875 -13.984375 
Q 42 -20.796875 29.203125 -20.796875 
Q 24.46875 -20.796875 20.265625 -20.09375 
Q 16.0625 -19.390625 12.109375 -17.921875 
L 12.109375 -9.1875 
Q 16.0625 -11.328125 19.921875 -12.34375 
Q 23.78125 -13.375 27.78125 -13.375 
Q 36.625 -13.375 41.015625 -8.765625 
Q 45.40625 -4.15625 45.40625 5.171875 
L 45.40625 9.625 
Q 42.625 4.78125 38.28125 2.390625 
Q 33.9375 0 27.875 0 
Q 17.828125 0 11.671875 7.65625 
Q 5.515625 15.328125 5.515625 27.984375 
Q 5.515625 40.671875 11.671875 48.328125 
Q 17.828125 56 27.875 56 
Q 33.9375 56 38.28125 53.609375 
Q 42.625 51.21875 45.40625 46.390625 
L 45.40625 54.6875 
L 54.390625 54.6875 
z
" id="DejaVuSans-103"/>
     </defs>
     <use xlink:href="#DejaVuSans-69"/>
     <use x="63.183594" xlink:href="#DejaVuSans-109"/>
     <use x="160.595703" xlink:href="#DejaVuSans-112"/>
     <use x="224.072266" xlink:href="#DejaVuSans-105"/>
     <use x="251.855469" xlink:href="#DejaVuSans-114"/>
     <use x="292.96875" xlink:href="#DejaVuSans-105"/>
     <use x="320.751953" xlink:href="#DejaVuSans-99"/>
     <use x="375.732422" xlink:href="#DejaVuSans-97"/>
     <use x="437.011719" xlink:href="#DejaVuSans-108"/>
     <use x="464.794922" xlink:href="#DejaVuSans-32"/>
     <use x="496.582031" xlink:href="#DejaVuSans-109"/>
     <use x="593.994141" xlink:href="#DejaVuSans-101"/>
     <use x="655.517578" xlink:href="#DejaVuSans-97"/>
     <use x="716.796875" xlink:href="#DejaVuSans-110"/>
     <use x="780.175781" xlink:href="#DejaVuSans-32"/>
     <use x="811.962891" xlink:href="#DejaVuSans-99"/>
     <use x="866.943359" xlink:href="#DejaVuSans-111"/>
     <use x="928.125" xlink:href="#DejaVuSans-110"/>
     <use x="991.503906" xlink:href="#DejaVuSans-118"/>
     <use x="1050.683594" xlink:href="#DejaVuSans-101"/>
     <use x="1112.207031" xlink:href="#DejaVuSans-114"/>
     <use x="1151.570312" xlink:href="#DejaVuSans-103"/>
     <use x="1215.046875" xlink:href="#DejaVuSans-101"/>
     <use x="1276.570312" xlink:href="#DejaVuSans-110"/>
     <use x="1339.949219" xlink:href="#DejaVuSans-99"/>
     <use x="1394.929688" xlink:href="#DejaVuSans-101"/>
    </g>
   </g>
   <g id="legend_1">
    <g id="patch_7">
     <path d="M 270.455938 78.82825 
L 407.72 78.82825 
Q 409.72 78.82825 409.72 76.82825 
L 409.72 48.472 
Q 409.72 46.472 407.72 46.472 
L 270.455938 46.472 
Q 268.455938 46.472 268.455938 48.472 
L 268.455938 76.82825 
Q 268.455938 78.82825 270.455938 78.82825 
z
" style="fill:#ffffff;opacity:0.8;stroke:#cccccc;stroke-linejoin:miter;"/>
    </g>
    <g id="line2d_20">
     <path d="M 272.455938 54.570437 
L 292.455938 54.570437 
" style="fill:none;stroke:#8a2be2;stroke-linecap:square;stroke-width:1.5;"/>
    </g>
    <g id="line2d_21"/>
    <g id="text_21">
     <!-- random movement -->
     <g transform="translate(300.455938 58.070437)scale(0.1 -0.1)">
      <use xlink:href="#DejaVuSans-114"/>
      <use x="41.113281" xlink:href="#DejaVuSans-97"/>
      <use x="102.392578" xlink:href="#DejaVuSans-110"/>
      <use x="165.771484" xlink:href="#DejaVuSans-100"/>
      <use x="229.248047" xlink:href="#DejaVuSans-111"/>
      <use x="290.429688" xlink:href="#DejaVuSans-109"/>
      <use x="387.841797" xlink:href="#DejaVuSans-32"/>
      <use x="419.628906" xlink:href="#DejaVuSans-109"/>
      <use x="517.041016" xlink:href="#DejaVuSans-111"/>
      <use x="578.222656" xlink:href="#DejaVuSans-118"/>
      <use x="637.402344" xlink:href="#DejaVuSans-101"/>
      <use x="698.925781" xlink:href="#DejaVuSans-109"/>
      <use x="796.337891" xlink:href="#DejaVuSans-101"/>
      <use x="857.861328" xlink:href="#DejaVuSans-110"/>
      <use x="921.240234" xlink:href="#DejaVuSans-116"/>
     </g>
    </g>
    <g id="line2d_22">
     <path d="M 272.455938 69.248562 
L 292.455938 69.248562 
" style="fill:none;stroke:#ff8c00;stroke-linecap:square;stroke-width:1.5;"/>
    </g>
    <g id="line2d_23"/>
    <g id="text_22">
     <!-- clockwise movement -->
     <g transform="translate(300.455938 72.748562)scale(0.1 -0.1)">
      <defs>
       <path d="M 9.078125 75.984375 
L 18.109375 75.984375 
L 18.109375 31.109375 
L 44.921875 54.6875 
L 56.390625 54.6875 
L 27.390625 29.109375 
L 57.625 0 
L 45.90625 0 
L 18.109375 26.703125 
L 18.109375 0 
L 9.078125 0 
z
" id="DejaVuSans-107"/>
       <path d="M 4.203125 54.6875 
L 13.1875 54.6875 
L 24.421875 12.015625 
L 35.59375 54.6875 
L 46.1875 54.6875 
L 57.421875 12.015625 
L 68.609375 54.6875 
L 77.59375 54.6875 
L 63.28125 0 
L 52.6875 0 
L 40.921875 44.828125 
L 29.109375 0 
L 18.5 0 
z
" id="DejaVuSans-119"/>
       <path d="M 44.28125 53.078125 
L 44.28125 44.578125 
Q 40.484375 46.53125 36.375 47.5 
Q 32.28125 48.484375 27.875 48.484375 
Q 21.1875 48.484375 17.84375 46.4375 
Q 14.5 44.390625 14.5 40.28125 
Q 14.5 37.15625 16.890625 35.375 
Q 19.28125 33.59375 26.515625 31.984375 
L 29.59375 31.296875 
Q 39.15625 29.25 43.1875 25.515625 
Q 47.21875 21.78125 47.21875 15.09375 
Q 47.21875 7.46875 41.1875 3.015625 
Q 35.15625 -1.421875 24.609375 -1.421875 
Q 20.21875 -1.421875 15.453125 -0.5625 
Q 10.6875 0.296875 5.421875 2 
L 5.421875 11.28125 
Q 10.40625 8.6875 15.234375 7.390625 
Q 20.0625 6.109375 24.8125 6.109375 
Q 31.15625 6.109375 34.5625 8.28125 
Q 37.984375 10.453125 37.984375 14.40625 
Q 37.984375 18.0625 35.515625 20.015625 
Q 33.0625 21.96875 24.703125 23.78125 
L 21.578125 24.515625 
Q 13.234375 26.265625 9.515625 29.90625 
Q 5.8125 33.546875 5.8125 39.890625 
Q 5.8125 47.609375 11.28125 51.796875 
Q 16.75 56 26.8125 56 
Q 31.78125 56 36.171875 55.265625 
Q 40.578125 54.546875 44.28125 53.078125 
z
" id="DejaVuSans-115"/>
      </defs>
      <use xlink:href="#DejaVuSans-99"/>
      <use x="54.980469" xlink:href="#DejaVuSans-108"/>
      <use x="82.763672" xlink:href="#DejaVuSans-111"/>
      <use x="143.945312" xlink:href="#DejaVuSans-99"/>
      <use x="198.925781" xlink:href="#DejaVuSans-107"/>
      <use x="256.835938" xlink:href="#DejaVuSans-119"/>
      <use x="338.623047" xlink:href="#DejaVuSans-105"/>
      <use x="366.40625" xlink:href="#DejaVuSans-115"/>
      <use x="418.505859" xlink:href="#DejaVuSans-101"/>
      <use x="480.029297" xlink:href="#DejaVuSans-32"/>
      <use x="511.816406" xlink:href="#DejaVuSans-109"/>
      <use x="609.228516" xlink:href="#DejaVuSans-111"/>
      <use x="670.410156" xlink:href="#DejaVuSans-118"/>
      <use x="729.589844" xlink:href="#DejaVuSans-101"/>
      <use x="791.113281" xlink:href="#DejaVuSans-109"/>
      <use x="888.525391" xlink:href="#DejaVuSans-101"/>
      <use x="950.048828" xlink:href="#DejaVuSans-110"/>
      <use x="1013.427734" xlink:href="#DejaVuSans-116"/>
     </g>
    </g>
   </g>
  </g>
 </g>
 <defs>
  <clipPath id="p14885eda14">
   <rect height="266.112" width="357.12" x="57.6" y="41.472"/>
  </clipPath>
 </defs>
</svg>
