<?xml version="1.0" encoding="utf-8" standalone="no"?>
<!DOCTYPE svg PUBLIC "-//W3C//DTD SVG 1.1//EN"
  "http://www.w3.org/Graphics/SVG/1.1/DTD/svg11.dtd">
<!-- Created with matplotlib (https://matplotlib.org/) -->
<svg height="353.52pt" version="1.1" viewBox="0 0 501.12 353.52" width="501.12pt" xmlns="http://www.w3.org/2000/svg" xmlns:xlink="http://www.w3.org/1999/xlink">
 <metadata>
  <rdf:RDF xmlns:cc="http://creativecommons.org/ns#" xmlns:dc="http://purl.org/dc/elements/1.1/" xmlns:rdf="http://www.w3.org/1999/02/22-rdf-syntax-ns#">
   <cc:Work>
    <dc:type rdf:resource="http://purl.org/dc/dcmitype/StillImage"/>
    <dc:date>2021-04-24T22:52:33.677272</dc:date>
    <dc:format>image/svg+xml</dc:format>
    <dc:creator>
     <cc:Agent>
      <dc:title>Matplotlib v3.3.2, https://matplotlib.org/</dc:title>
     </cc:Agent>
    </dc:creator>
   </cc:Work>
  </rdf:RDF>
 </metadata>
 <defs>
  <style type="text/css">*{stroke-linecap:butt;stroke-linejoin:round;}</style>
 </defs>
 <g id="figure_1">
  <g id="patch_1">
   <path d="M 0 353.52 
L 501.12 353.52 
L 501.12 0 
L 0 0 
z
" style="fill:#ffffff;"/>
  </g>
  <g id="axes_1">
   <g id="patch_2">
    <path d="M 62.64 166.1544 
L 451.008 166.1544 
L 451.008 42.4224 
L 62.64 42.4224 
z
" style="fill:#ffffff;"/>
   </g>
   <g id="patch_3">
    <path clip-path="url(#p61412a4195)" d="M 82.0584 166.1544 
L 88.85484 166.1544 
L 88.85484 166.130971 
L 82.0584 166.130971 
z
" style="fill:#8a2be2;"/>
   </g>
   <g id="patch_4">
    <path clip-path="url(#p61412a4195)" d="M 88.85484 166.1544 
L 95.65128 166.1544 
L 95.65128 166.1544 
L 88.85484 166.1544 
z
" style="fill:#8a2be2;"/>
   </g>
   <g id="patch_5">
    <path clip-path="url(#p61412a4195)" d="M 95.65128 166.1544 
L 102.44772 166.1544 
L 102.44772 48.3144 
L 95.65128 48.3144 
z
" style="fill:#8a2be2;"/>
   </g>
   <g id="patch_6">
    <path clip-path="url(#p61412a4195)" d="M 102.44772 166.1544 
L 109.24416 166.1544 
L 109.24416 166.1544 
L 102.44772 166.1544 
z
" style="fill:#8a2be2;"/>
   </g>
   <g id="patch_7">
    <path clip-path="url(#p61412a4195)" d="M 109.24416 166.1544 
L 116.0406 166.1544 
L 116.0406 166.1544 
L 109.24416 166.1544 
z
" style="fill:#8a2be2;"/>
   </g>
   <g id="patch_8">
    <path clip-path="url(#p61412a4195)" d="M 116.0406 166.1544 
L 122.83704 166.1544 
L 122.83704 166.1544 
L 116.0406 166.1544 
z
" style="fill:#8a2be2;"/>
   </g>
   <g id="patch_9">
    <path clip-path="url(#p61412a4195)" d="M 122.83704 166.1544 
L 129.63348 166.1544 
L 129.63348 166.1544 
L 122.83704 166.1544 
z
" style="fill:#8a2be2;"/>
   </g>
   <g id="patch_10">
    <path clip-path="url(#p61412a4195)" d="M 129.63348 166.1544 
L 136.42992 166.1544 
L 136.42992 166.1544 
L 129.63348 166.1544 
z
" style="fill:#8a2be2;"/>
   </g>
   <g id="patch_11">
    <path clip-path="url(#p61412a4195)" d="M 136.42992 166.1544 
L 143.22636 166.1544 
L 143.22636 77.307536 
L 136.42992 77.307536 
z
" style="fill:#8a2be2;"/>
   </g>
   <g id="patch_12">
    <path clip-path="url(#p61412a4195)" d="M 143.22636 166.1544 
L 150.0228 166.1544 
L 150.0228 166.1544 
L 143.22636 166.1544 
z
" style="fill:#8a2be2;"/>
   </g>
   <g id="patch_13">
    <path clip-path="url(#p61412a4195)" d="M 150.0228 166.1544 
L 156.81924 166.1544 
L 156.81924 166.1544 
L 150.0228 166.1544 
z
" style="fill:#8a2be2;"/>
   </g>
   <g id="patch_14">
    <path clip-path="url(#p61412a4195)" d="M 156.81924 166.1544 
L 163.61568 166.1544 
L 163.61568 166.1544 
L 156.81924 166.1544 
z
" style="fill:#8a2be2;"/>
   </g>
   <g id="patch_15">
    <path clip-path="url(#p61412a4195)" d="M 163.61568 166.1544 
L 170.41212 166.1544 
L 170.41212 166.1544 
L 163.61568 166.1544 
z
" style="fill:#8a2be2;"/>
   </g>
   <g id="patch_16">
    <path clip-path="url(#p61412a4195)" d="M 170.41212 166.1544 
L 177.20856 166.1544 
L 177.20856 166.1544 
L 170.41212 166.1544 
z
" style="fill:#8a2be2;"/>
   </g>
   <g id="patch_17">
    <path clip-path="url(#p61412a4195)" d="M 177.20856 166.1544 
L 184.005 166.1544 
L 184.005 166.1544 
L 177.20856 166.1544 
z
" style="fill:#8a2be2;"/>
   </g>
   <g id="patch_18">
    <path clip-path="url(#p61412a4195)" d="M 184.005 166.1544 
L 190.80144 166.1544 
L 190.80144 166.1544 
L 184.005 166.1544 
z
" style="fill:#8a2be2;"/>
   </g>
   <g id="patch_19">
    <path clip-path="url(#p61412a4195)" d="M 190.80144 166.1544 
L 197.59788 166.1544 
L 197.59788 166.1544 
L 190.80144 166.1544 
z
" style="fill:#8a2be2;"/>
   </g>
   <g id="patch_20">
    <path clip-path="url(#p61412a4195)" d="M 197.59788 166.1544 
L 204.39432 166.1544 
L 204.39432 166.1544 
L 197.59788 166.1544 
z
" style="fill:#8a2be2;"/>
   </g>
   <g id="patch_21">
    <path clip-path="url(#p61412a4195)" d="M 204.39432 166.1544 
L 211.19076 166.1544 
L 211.19076 166.1544 
L 204.39432 166.1544 
z
" style="fill:#8a2be2;"/>
   </g>
   <g id="patch_22">
    <path clip-path="url(#p61412a4195)" d="M 211.19076 166.1544 
L 217.9872 166.1544 
L 217.9872 166.135105 
L 211.19076 166.135105 
z
" style="fill:#8a2be2;"/>
   </g>
   <g id="matplotlib.axis_1">
    <g id="xtick_1">
     <g id="line2d_1">
      <defs>
       <path d="M 0 0 
L 0 3.5 
" id="m8a6ae89b08" style="stroke:#000000;stroke-width:0.8;"/>
      </defs>
      <g>
       <use style="stroke:#000000;stroke-width:0.8;" x="62.64" xlink:href="#m8a6ae89b08" y="166.1544"/>
      </g>
     </g>
     <g id="text_1">
      <!-- 0 -->
      <g transform="translate(59.45875 180.752837)scale(0.1 -0.1)">
       <defs>
        <path d="M 31.78125 66.40625 
Q 24.171875 66.40625 20.328125 58.90625 
Q 16.5 51.421875 16.5 36.375 
Q 16.5 21.390625 20.328125 13.890625 
Q 24.171875 6.390625 31.78125 6.390625 
Q 39.453125 6.390625 43.28125 13.890625 
Q 47.125 21.390625 47.125 36.375 
Q 47.125 51.421875 43.28125 58.90625 
Q 39.453125 66.40625 31.78125 66.40625 
z
M 31.78125 74.21875 
Q 44.046875 74.21875 50.515625 64.515625 
Q 56.984375 54.828125 56.984375 36.375 
Q 56.984375 17.96875 50.515625 8.265625 
Q 44.046875 -1.421875 31.78125 -1.421875 
Q 19.53125 -1.421875 13.0625 8.265625 
Q 6.59375 17.96875 6.59375 36.375 
Q 6.59375 54.828125 13.0625 64.515625 
Q 19.53125 74.21875 31.78125 74.21875 
z
" id="DejaVuSans-48"/>
       </defs>
       <use xlink:href="#DejaVuSans-48"/>
      </g>
     </g>
    </g>
    <g id="xtick_2">
     <g id="line2d_2">
      <g>
       <use style="stroke:#000000;stroke-width:0.8;" x="111.186" xlink:href="#m8a6ae89b08" y="166.1544"/>
      </g>
     </g>
     <g id="text_2">
      <!-- 10 -->
      <g transform="translate(104.8235 180.752837)scale(0.1 -0.1)">
       <defs>
        <path d="M 12.40625 8.296875 
L 28.515625 8.296875 
L 28.515625 63.921875 
L 10.984375 60.40625 
L 10.984375 69.390625 
L 28.421875 72.90625 
L 38.28125 72.90625 
L 38.28125 8.296875 
L 54.390625 8.296875 
L 54.390625 0 
L 12.40625 0 
z
" id="DejaVuSans-49"/>
       </defs>
       <use xlink:href="#DejaVuSans-49"/>
       <use x="63.623047" xlink:href="#DejaVuSans-48"/>
      </g>
     </g>
    </g>
    <g id="xtick_3">
     <g id="line2d_3">
      <g>
       <use style="stroke:#000000;stroke-width:0.8;" x="159.732" xlink:href="#m8a6ae89b08" y="166.1544"/>
      </g>
     </g>
     <g id="text_3">
      <!-- 20 -->
      <g transform="translate(153.3695 180.752837)scale(0.1 -0.1)">
       <defs>
        <path d="M 19.1875 8.296875 
L 53.609375 8.296875 
L 53.609375 0 
L 7.328125 0 
L 7.328125 8.296875 
Q 12.9375 14.109375 22.625 23.890625 
Q 32.328125 33.6875 34.8125 36.53125 
Q 39.546875 41.84375 41.421875 45.53125 
Q 43.3125 49.21875 43.3125 52.78125 
Q 43.3125 58.59375 39.234375 62.25 
Q 35.15625 65.921875 28.609375 65.921875 
Q 23.96875 65.921875 18.8125 64.3125 
Q 13.671875 62.703125 7.8125 59.421875 
L 7.8125 69.390625 
Q 13.765625 71.78125 18.9375 73 
Q 24.125 74.21875 28.421875 74.21875 
Q 39.75 74.21875 46.484375 68.546875 
Q 53.21875 62.890625 53.21875 53.421875 
Q 53.21875 48.921875 51.53125 44.890625 
Q 49.859375 40.875 45.40625 35.40625 
Q 44.1875 33.984375 37.640625 27.21875 
Q 31.109375 20.453125 19.1875 8.296875 
z
" id="DejaVuSans-50"/>
       </defs>
       <use xlink:href="#DejaVuSans-50"/>
       <use x="63.623047" xlink:href="#DejaVuSans-48"/>
      </g>
     </g>
    </g>
    <g id="xtick_4">
     <g id="line2d_4">
      <g>
       <use style="stroke:#000000;stroke-width:0.8;" x="208.278" xlink:href="#m8a6ae89b08" y="166.1544"/>
      </g>
     </g>
     <g id="text_4">
      <!-- 30 -->
      <g transform="translate(201.9155 180.752837)scale(0.1 -0.1)">
       <defs>
        <path d="M 40.578125 39.3125 
Q 47.65625 37.796875 51.625 33 
Q 55.609375 28.21875 55.609375 21.1875 
Q 55.609375 10.40625 48.1875 4.484375 
Q 40.765625 -1.421875 27.09375 -1.421875 
Q 22.515625 -1.421875 17.65625 -0.515625 
Q 12.796875 0.390625 7.625 2.203125 
L 7.625 11.71875 
Q 11.71875 9.328125 16.59375 8.109375 
Q 21.484375 6.890625 26.8125 6.890625 
Q 36.078125 6.890625 40.9375 10.546875 
Q 45.796875 14.203125 45.796875 21.1875 
Q 45.796875 27.640625 41.28125 31.265625 
Q 36.765625 34.90625 28.71875 34.90625 
L 20.21875 34.90625 
L 20.21875 43.015625 
L 29.109375 43.015625 
Q 36.375 43.015625 40.234375 45.921875 
Q 44.09375 48.828125 44.09375 54.296875 
Q 44.09375 59.90625 40.109375 62.90625 
Q 36.140625 65.921875 28.71875 65.921875 
Q 24.65625 65.921875 20.015625 65.03125 
Q 15.375 64.15625 9.8125 62.3125 
L 9.8125 71.09375 
Q 15.4375 72.65625 20.34375 73.4375 
Q 25.25 74.21875 29.59375 74.21875 
Q 40.828125 74.21875 47.359375 69.109375 
Q 53.90625 64.015625 53.90625 55.328125 
Q 53.90625 49.265625 50.4375 45.09375 
Q 46.96875 40.921875 40.578125 39.3125 
z
" id="DejaVuSans-51"/>
       </defs>
       <use xlink:href="#DejaVuSans-51"/>
       <use x="63.623047" xlink:href="#DejaVuSans-48"/>
      </g>
     </g>
    </g>
    <g id="xtick_5">
     <g id="line2d_5">
      <g>
       <use style="stroke:#000000;stroke-width:0.8;" x="256.824" xlink:href="#m8a6ae89b08" y="166.1544"/>
      </g>
     </g>
     <g id="text_5">
      <!-- 40 -->
      <g transform="translate(250.4615 180.752837)scale(0.1 -0.1)">
       <defs>
        <path d="M 37.796875 64.3125 
L 12.890625 25.390625 
L 37.796875 25.390625 
z
M 35.203125 72.90625 
L 47.609375 72.90625 
L 47.609375 25.390625 
L 58.015625 25.390625 
L 58.015625 17.1875 
L 47.609375 17.1875 
L 47.609375 0 
L 37.796875 0 
L 37.796875 17.1875 
L 4.890625 17.1875 
L 4.890625 26.703125 
z
" id="DejaVuSans-52"/>
       </defs>
       <use xlink:href="#DejaVuSans-52"/>
       <use x="63.623047" xlink:href="#DejaVuSans-48"/>
      </g>
     </g>
    </g>
    <g id="xtick_6">
     <g id="line2d_6">
      <g>
       <use style="stroke:#000000;stroke-width:0.8;" x="305.37" xlink:href="#m8a6ae89b08" y="166.1544"/>
      </g>
     </g>
     <g id="text_6">
      <!-- 50 -->
      <g transform="translate(299.0075 180.752837)scale(0.1 -0.1)">
       <defs>
        <path d="M 10.796875 72.90625 
L 49.515625 72.90625 
L 49.515625 64.59375 
L 19.828125 64.59375 
L 19.828125 46.734375 
Q 21.96875 47.46875 24.109375 47.828125 
Q 26.265625 48.1875 28.421875 48.1875 
Q 40.625 48.1875 47.75 41.5 
Q 54.890625 34.8125 54.890625 23.390625 
Q 54.890625 11.625 47.5625 5.09375 
Q 40.234375 -1.421875 26.90625 -1.421875 
Q 22.3125 -1.421875 17.546875 -0.640625 
Q 12.796875 0.140625 7.71875 1.703125 
L 7.71875 11.625 
Q 12.109375 9.234375 16.796875 8.0625 
Q 21.484375 6.890625 26.703125 6.890625 
Q 35.15625 6.890625 40.078125 11.328125 
Q 45.015625 15.765625 45.015625 23.390625 
Q 45.015625 31 40.078125 35.4375 
Q 35.15625 39.890625 26.703125 39.890625 
Q 22.75 39.890625 18.8125 39.015625 
Q 14.890625 38.140625 10.796875 36.28125 
z
" id="DejaVuSans-53"/>
       </defs>
       <use xlink:href="#DejaVuSans-53"/>
       <use x="63.623047" xlink:href="#DejaVuSans-48"/>
      </g>
     </g>
    </g>
    <g id="xtick_7">
     <g id="line2d_7">
      <g>
       <use style="stroke:#000000;stroke-width:0.8;" x="353.916" xlink:href="#m8a6ae89b08" y="166.1544"/>
      </g>
     </g>
     <g id="text_7">
      <!-- 60 -->
      <g transform="translate(347.5535 180.752837)scale(0.1 -0.1)">
       <defs>
        <path d="M 33.015625 40.375 
Q 26.375 40.375 22.484375 35.828125 
Q 18.609375 31.296875 18.609375 23.390625 
Q 18.609375 15.53125 22.484375 10.953125 
Q 26.375 6.390625 33.015625 6.390625 
Q 39.65625 6.390625 43.53125 10.953125 
Q 47.40625 15.53125 47.40625 23.390625 
Q 47.40625 31.296875 43.53125 35.828125 
Q 39.65625 40.375 33.015625 40.375 
z
M 52.59375 71.296875 
L 52.59375 62.3125 
Q 48.875 64.0625 45.09375 64.984375 
Q 41.3125 65.921875 37.59375 65.921875 
Q 27.828125 65.921875 22.671875 59.328125 
Q 17.53125 52.734375 16.796875 39.40625 
Q 19.671875 43.65625 24.015625 45.921875 
Q 28.375 48.1875 33.59375 48.1875 
Q 44.578125 48.1875 50.953125 41.515625 
Q 57.328125 34.859375 57.328125 23.390625 
Q 57.328125 12.15625 50.6875 5.359375 
Q 44.046875 -1.421875 33.015625 -1.421875 
Q 20.359375 -1.421875 13.671875 8.265625 
Q 6.984375 17.96875 6.984375 36.375 
Q 6.984375 53.65625 15.1875 63.9375 
Q 23.390625 74.21875 37.203125 74.21875 
Q 40.921875 74.21875 44.703125 73.484375 
Q 48.484375 72.75 52.59375 71.296875 
z
" id="DejaVuSans-54"/>
       </defs>
       <use xlink:href="#DejaVuSans-54"/>
       <use x="63.623047" xlink:href="#DejaVuSans-48"/>
      </g>
     </g>
    </g>
    <g id="xtick_8">
     <g id="line2d_8">
      <g>
       <use style="stroke:#000000;stroke-width:0.8;" x="402.462" xlink:href="#m8a6ae89b08" y="166.1544"/>
      </g>
     </g>
     <g id="text_8">
      <!-- 70 -->
      <g transform="translate(396.0995 180.752837)scale(0.1 -0.1)">
       <defs>
        <path d="M 8.203125 72.90625 
L 55.078125 72.90625 
L 55.078125 68.703125 
L 28.609375 0 
L 18.3125 0 
L 43.21875 64.59375 
L 8.203125 64.59375 
z
" id="DejaVuSans-55"/>
       </defs>
       <use xlink:href="#DejaVuSans-55"/>
       <use x="63.623047" xlink:href="#DejaVuSans-48"/>
      </g>
     </g>
    </g>
    <g id="xtick_9">
     <g id="line2d_9">
      <g>
       <use style="stroke:#000000;stroke-width:0.8;" x="451.008" xlink:href="#m8a6ae89b08" y="166.1544"/>
      </g>
     </g>
     <g id="text_9">
      <!-- 80 -->
      <g transform="translate(444.6455 180.752837)scale(0.1 -0.1)">
       <defs>
        <path d="M 31.78125 34.625 
Q 24.75 34.625 20.71875 30.859375 
Q 16.703125 27.09375 16.703125 20.515625 
Q 16.703125 13.921875 20.71875 10.15625 
Q 24.75 6.390625 31.78125 6.390625 
Q 38.8125 6.390625 42.859375 10.171875 
Q 46.921875 13.96875 46.921875 20.515625 
Q 46.921875 27.09375 42.890625 30.859375 
Q 38.875 34.625 31.78125 34.625 
z
M 21.921875 38.8125 
Q 15.578125 40.375 12.03125 44.71875 
Q 8.5 49.078125 8.5 55.328125 
Q 8.5 64.0625 14.71875 69.140625 
Q 20.953125 74.21875 31.78125 74.21875 
Q 42.671875 74.21875 48.875 69.140625 
Q 55.078125 64.0625 55.078125 55.328125 
Q 55.078125 49.078125 51.53125 44.71875 
Q 48 40.375 41.703125 38.8125 
Q 48.828125 37.15625 52.796875 32.3125 
Q 56.78125 27.484375 56.78125 20.515625 
Q 56.78125 9.90625 50.3125 4.234375 
Q 43.84375 -1.421875 31.78125 -1.421875 
Q 19.734375 -1.421875 13.25 4.234375 
Q 6.78125 9.90625 6.78125 20.515625 
Q 6.78125 27.484375 10.78125 32.3125 
Q 14.796875 37.15625 21.921875 38.8125 
z
M 18.3125 54.390625 
Q 18.3125 48.734375 21.84375 45.5625 
Q 25.390625 42.390625 31.78125 42.390625 
Q 38.140625 42.390625 41.71875 45.5625 
Q 45.3125 48.734375 45.3125 54.390625 
Q 45.3125 60.0625 41.71875 63.234375 
Q 38.140625 66.40625 31.78125 66.40625 
Q 25.390625 66.40625 21.84375 63.234375 
Q 18.3125 60.0625 18.3125 54.390625 
z
" id="DejaVuSans-56"/>
       </defs>
       <use xlink:href="#DejaVuSans-56"/>
       <use x="63.623047" xlink:href="#DejaVuSans-48"/>
      </g>
     </g>
    </g>
   </g>
   <g id="matplotlib.axis_2">
    <g id="ytick_1">
     <g id="line2d_10">
      <defs>
       <path d="M 0 0 
L -3.5 0 
" id="m98b4b0fe37" style="stroke:#000000;stroke-width:0.8;"/>
      </defs>
      <g>
       <use style="stroke:#000000;stroke-width:0.8;" x="62.64" xlink:href="#m98b4b0fe37" y="166.1544"/>
      </g>
     </g>
     <g id="text_10">
      <!-- 0 -->
      <g transform="translate(49.2775 169.953619)scale(0.1 -0.1)">
       <use xlink:href="#DejaVuSans-48"/>
      </g>
     </g>
    </g>
    <g id="ytick_2">
     <g id="line2d_11">
      <g>
       <use style="stroke:#000000;stroke-width:0.8;" x="62.64" xlink:href="#m98b4b0fe37" y="131.699469"/>
      </g>
     </g>
     <g id="text_11">
      <!-- 50000 -->
      <g transform="translate(23.8275 135.498687)scale(0.1 -0.1)">
       <use xlink:href="#DejaVuSans-53"/>
       <use x="63.623047" xlink:href="#DejaVuSans-48"/>
       <use x="127.246094" xlink:href="#DejaVuSans-48"/>
       <use x="190.869141" xlink:href="#DejaVuSans-48"/>
       <use x="254.492188" xlink:href="#DejaVuSans-48"/>
      </g>
     </g>
    </g>
    <g id="ytick_3">
     <g id="line2d_12">
      <g>
       <use style="stroke:#000000;stroke-width:0.8;" x="62.64" xlink:href="#m98b4b0fe37" y="97.244537"/>
      </g>
     </g>
     <g id="text_12">
      <!-- 100000 -->
      <g transform="translate(17.465 101.043756)scale(0.1 -0.1)">
       <use xlink:href="#DejaVuSans-49"/>
       <use x="63.623047" xlink:href="#DejaVuSans-48"/>
       <use x="127.246094" xlink:href="#DejaVuSans-48"/>
       <use x="190.869141" xlink:href="#DejaVuSans-48"/>
       <use x="254.492188" xlink:href="#DejaVuSans-48"/>
       <use x="318.115234" xlink:href="#DejaVuSans-48"/>
      </g>
     </g>
    </g>
    <g id="ytick_4">
     <g id="line2d_13">
      <g>
       <use style="stroke:#000000;stroke-width:0.8;" x="62.64" xlink:href="#m98b4b0fe37" y="62.789606"/>
      </g>
     </g>
     <g id="text_13">
      <!-- 150000 -->
      <g transform="translate(17.465 66.588825)scale(0.1 -0.1)">
       <use xlink:href="#DejaVuSans-49"/>
       <use x="63.623047" xlink:href="#DejaVuSans-53"/>
       <use x="127.246094" xlink:href="#DejaVuSans-48"/>
       <use x="190.869141" xlink:href="#DejaVuSans-48"/>
       <use x="254.492188" xlink:href="#DejaVuSans-48"/>
       <use x="318.115234" xlink:href="#DejaVuSans-48"/>
      </g>
     </g>
    </g>
    <g id="text_14">
     <!-- Number of appearance -->
     <g transform="translate(11.385312 162.039181)rotate(-90)scale(0.1 -0.1)">
      <defs>
       <path d="M 9.8125 72.90625 
L 23.09375 72.90625 
L 55.421875 11.921875 
L 55.421875 72.90625 
L 64.984375 72.90625 
L 64.984375 0 
L 51.703125 0 
L 19.390625 60.984375 
L 19.390625 0 
L 9.8125 0 
z
" id="DejaVuSans-78"/>
       <path d="M 8.5 21.578125 
L 8.5 54.6875 
L 17.484375 54.6875 
L 17.484375 21.921875 
Q 17.484375 14.15625 20.5 10.265625 
Q 23.53125 6.390625 29.59375 6.390625 
Q 36.859375 6.390625 41.078125 11.03125 
Q 45.3125 15.671875 45.3125 23.6875 
L 45.3125 54.6875 
L 54.296875 54.6875 
L 54.296875 0 
L 45.3125 0 
L 45.3125 8.40625 
Q 42.046875 3.421875 37.71875 1 
Q 33.40625 -1.421875 27.6875 -1.421875 
Q 18.265625 -1.421875 13.375 4.4375 
Q 8.5 10.296875 8.5 21.578125 
z
M 31.109375 56 
z
" id="DejaVuSans-117"/>
       <path d="M 52 44.1875 
Q 55.375 50.25 60.0625 53.125 
Q 64.75 56 71.09375 56 
Q 79.640625 56 84.28125 50.015625 
Q 88.921875 44.046875 88.921875 33.015625 
L 88.921875 0 
L 79.890625 0 
L 79.890625 32.71875 
Q 79.890625 40.578125 77.09375 44.375 
Q 74.3125 48.1875 68.609375 48.1875 
Q 61.625 48.1875 57.5625 43.546875 
Q 53.515625 38.921875 53.515625 30.90625 
L 53.515625 0 
L 44.484375 0 
L 44.484375 32.71875 
Q 44.484375 40.625 41.703125 44.40625 
Q 38.921875 48.1875 33.109375 48.1875 
Q 26.21875 48.1875 22.15625 43.53125 
Q 18.109375 38.875 18.109375 30.90625 
L 18.109375 0 
L 9.078125 0 
L 9.078125 54.6875 
L 18.109375 54.6875 
L 18.109375 46.1875 
Q 21.1875 51.21875 25.484375 53.609375 
Q 29.78125 56 35.6875 56 
Q 41.65625 56 45.828125 52.96875 
Q 50 49.953125 52 44.1875 
z
" id="DejaVuSans-109"/>
       <path d="M 48.6875 27.296875 
Q 48.6875 37.203125 44.609375 42.84375 
Q 40.53125 48.484375 33.40625 48.484375 
Q 26.265625 48.484375 22.1875 42.84375 
Q 18.109375 37.203125 18.109375 27.296875 
Q 18.109375 17.390625 22.1875 11.75 
Q 26.265625 6.109375 33.40625 6.109375 
Q 40.53125 6.109375 44.609375 11.75 
Q 48.6875 17.390625 48.6875 27.296875 
z
M 18.109375 46.390625 
Q 20.953125 51.265625 25.265625 53.625 
Q 29.59375 56 35.59375 56 
Q 45.5625 56 51.78125 48.09375 
Q 58.015625 40.1875 58.015625 27.296875 
Q 58.015625 14.40625 51.78125 6.484375 
Q 45.5625 -1.421875 35.59375 -1.421875 
Q 29.59375 -1.421875 25.265625 0.953125 
Q 20.953125 3.328125 18.109375 8.203125 
L 18.109375 0 
L 9.078125 0 
L 9.078125 75.984375 
L 18.109375 75.984375 
z
" id="DejaVuSans-98"/>
       <path d="M 56.203125 29.59375 
L 56.203125 25.203125 
L 14.890625 25.203125 
Q 15.484375 15.921875 20.484375 11.0625 
Q 25.484375 6.203125 34.421875 6.203125 
Q 39.59375 6.203125 44.453125 7.46875 
Q 49.3125 8.734375 54.109375 11.28125 
L 54.109375 2.78125 
Q 49.265625 0.734375 44.1875 -0.34375 
Q 39.109375 -1.421875 33.890625 -1.421875 
Q 20.796875 -1.421875 13.15625 6.1875 
Q 5.515625 13.8125 5.515625 26.8125 
Q 5.515625 40.234375 12.765625 48.109375 
Q 20.015625 56 32.328125 56 
Q 43.359375 56 49.78125 48.890625 
Q 56.203125 41.796875 56.203125 29.59375 
z
M 47.21875 32.234375 
Q 47.125 39.59375 43.09375 43.984375 
Q 39.0625 48.390625 32.421875 48.390625 
Q 24.90625 48.390625 20.390625 44.140625 
Q 15.875 39.890625 15.1875 32.171875 
z
" id="DejaVuSans-101"/>
       <path d="M 41.109375 46.296875 
Q 39.59375 47.171875 37.8125 47.578125 
Q 36.03125 48 33.890625 48 
Q 26.265625 48 22.1875 43.046875 
Q 18.109375 38.09375 18.109375 28.8125 
L 18.109375 0 
L 9.078125 0 
L 9.078125 54.6875 
L 18.109375 54.6875 
L 18.109375 46.1875 
Q 20.953125 51.171875 25.484375 53.578125 
Q 30.03125 56 36.53125 56 
Q 37.453125 56 38.578125 55.875 
Q 39.703125 55.765625 41.0625 55.515625 
z
" id="DejaVuSans-114"/>
       <path id="DejaVuSans-32"/>
       <path d="M 30.609375 48.390625 
Q 23.390625 48.390625 19.1875 42.75 
Q 14.984375 37.109375 14.984375 27.296875 
Q 14.984375 17.484375 19.15625 11.84375 
Q 23.34375 6.203125 30.609375 6.203125 
Q 37.796875 6.203125 41.984375 11.859375 
Q 46.1875 17.53125 46.1875 27.296875 
Q 46.1875 37.015625 41.984375 42.703125 
Q 37.796875 48.390625 30.609375 48.390625 
z
M 30.609375 56 
Q 42.328125 56 49.015625 48.375 
Q 55.71875 40.765625 55.71875 27.296875 
Q 55.71875 13.875 49.015625 6.21875 
Q 42.328125 -1.421875 30.609375 -1.421875 
Q 18.84375 -1.421875 12.171875 6.21875 
Q 5.515625 13.875 5.515625 27.296875 
Q 5.515625 40.765625 12.171875 48.375 
Q 18.84375 56 30.609375 56 
z
" id="DejaVuSans-111"/>
       <path d="M 37.109375 75.984375 
L 37.109375 68.5 
L 28.515625 68.5 
Q 23.6875 68.5 21.796875 66.546875 
Q 19.921875 64.59375 19.921875 59.515625 
L 19.921875 54.6875 
L 34.71875 54.6875 
L 34.71875 47.703125 
L 19.921875 47.703125 
L 19.921875 0 
L 10.890625 0 
L 10.890625 47.703125 
L 2.296875 47.703125 
L 2.296875 54.6875 
L 10.890625 54.6875 
L 10.890625 58.5 
Q 10.890625 67.625 15.140625 71.796875 
Q 19.390625 75.984375 28.609375 75.984375 
z
" id="DejaVuSans-102"/>
       <path d="M 34.28125 27.484375 
Q 23.390625 27.484375 19.1875 25 
Q 14.984375 22.515625 14.984375 16.5 
Q 14.984375 11.71875 18.140625 8.90625 
Q 21.296875 6.109375 26.703125 6.109375 
Q 34.1875 6.109375 38.703125 11.40625 
Q 43.21875 16.703125 43.21875 25.484375 
L 43.21875 27.484375 
z
M 52.203125 31.203125 
L 52.203125 0 
L 43.21875 0 
L 43.21875 8.296875 
Q 40.140625 3.328125 35.546875 0.953125 
Q 30.953125 -1.421875 24.3125 -1.421875 
Q 15.921875 -1.421875 10.953125 3.296875 
Q 6 8.015625 6 15.921875 
Q 6 25.140625 12.171875 29.828125 
Q 18.359375 34.515625 30.609375 34.515625 
L 43.21875 34.515625 
L 43.21875 35.40625 
Q 43.21875 41.609375 39.140625 45 
Q 35.0625 48.390625 27.6875 48.390625 
Q 23 48.390625 18.546875 47.265625 
Q 14.109375 46.140625 10.015625 43.890625 
L 10.015625 52.203125 
Q 14.9375 54.109375 19.578125 55.046875 
Q 24.21875 56 28.609375 56 
Q 40.484375 56 46.34375 49.84375 
Q 52.203125 43.703125 52.203125 31.203125 
z
" id="DejaVuSans-97"/>
       <path d="M 18.109375 8.203125 
L 18.109375 -20.796875 
L 9.078125 -20.796875 
L 9.078125 54.6875 
L 18.109375 54.6875 
L 18.109375 46.390625 
Q 20.953125 51.265625 25.265625 53.625 
Q 29.59375 56 35.59375 56 
Q 45.5625 56 51.78125 48.09375 
Q 58.015625 40.1875 58.015625 27.296875 
Q 58.015625 14.40625 51.78125 6.484375 
Q 45.5625 -1.421875 35.59375 -1.421875 
Q 29.59375 -1.421875 25.265625 0.953125 
Q 20.953125 3.328125 18.109375 8.203125 
z
M 48.6875 27.296875 
Q 48.6875 37.203125 44.609375 42.84375 
Q 40.53125 48.484375 33.40625 48.484375 
Q 26.265625 48.484375 22.1875 42.84375 
Q 18.109375 37.203125 18.109375 27.296875 
Q 18.109375 17.390625 22.1875 11.75 
Q 26.265625 6.109375 33.40625 6.109375 
Q 40.53125 6.109375 44.609375 11.75 
Q 48.6875 17.390625 48.6875 27.296875 
z
" id="DejaVuSans-112"/>
       <path d="M 54.890625 33.015625 
L 54.890625 0 
L 45.90625 0 
L 45.90625 32.71875 
Q 45.90625 40.484375 42.875 44.328125 
Q 39.84375 48.1875 33.796875 48.1875 
Q 26.515625 48.1875 22.3125 43.546875 
Q 18.109375 38.921875 18.109375 30.90625 
L 18.109375 0 
L 9.078125 0 
L 9.078125 54.6875 
L 18.109375 54.6875 
L 18.109375 46.1875 
Q 21.34375 51.125 25.703125 53.5625 
Q 30.078125 56 35.796875 56 
Q 45.21875 56 50.046875 50.171875 
Q 54.890625 44.34375 54.890625 33.015625 
z
" id="DejaVuSans-110"/>
       <path d="M 48.78125 52.59375 
L 48.78125 44.1875 
Q 44.96875 46.296875 41.140625 47.34375 
Q 37.3125 48.390625 33.40625 48.390625 
Q 24.65625 48.390625 19.8125 42.84375 
Q 14.984375 37.3125 14.984375 27.296875 
Q 14.984375 17.28125 19.8125 11.734375 
Q 24.65625 6.203125 33.40625 6.203125 
Q 37.3125 6.203125 41.140625 7.25 
Q 44.96875 8.296875 48.78125 10.40625 
L 48.78125 2.09375 
Q 45.015625 0.34375 40.984375 -0.53125 
Q 36.96875 -1.421875 32.421875 -1.421875 
Q 20.0625 -1.421875 12.78125 6.34375 
Q 5.515625 14.109375 5.515625 27.296875 
Q 5.515625 40.671875 12.859375 48.328125 
Q 20.21875 56 33.015625 56 
Q 37.15625 56 41.109375 55.140625 
Q 45.0625 54.296875 48.78125 52.59375 
z
" id="DejaVuSans-99"/>
      </defs>
      <use xlink:href="#DejaVuSans-78"/>
      <use x="74.804688" xlink:href="#DejaVuSans-117"/>
      <use x="138.183594" xlink:href="#DejaVuSans-109"/>
      <use x="235.595703" xlink:href="#DejaVuSans-98"/>
      <use x="299.072266" xlink:href="#DejaVuSans-101"/>
      <use x="360.595703" xlink:href="#DejaVuSans-114"/>
      <use x="401.708984" xlink:href="#DejaVuSans-32"/>
      <use x="433.496094" xlink:href="#DejaVuSans-111"/>
      <use x="494.677734" xlink:href="#DejaVuSans-102"/>
      <use x="529.882812" xlink:href="#DejaVuSans-32"/>
      <use x="561.669922" xlink:href="#DejaVuSans-97"/>
      <use x="622.949219" xlink:href="#DejaVuSans-112"/>
      <use x="686.425781" xlink:href="#DejaVuSans-112"/>
      <use x="749.902344" xlink:href="#DejaVuSans-101"/>
      <use x="811.425781" xlink:href="#DejaVuSans-97"/>
      <use x="872.705078" xlink:href="#DejaVuSans-114"/>
      <use x="913.818359" xlink:href="#DejaVuSans-97"/>
      <use x="975.097656" xlink:href="#DejaVuSans-110"/>
      <use x="1038.476562" xlink:href="#DejaVuSans-99"/>
      <use x="1093.457031" xlink:href="#DejaVuSans-101"/>
     </g>
    </g>
   </g>
   <g id="patch_23">
    <path d="M 62.64 166.1544 
L 62.64 42.4224 
" style="fill:none;stroke:#000000;stroke-linecap:square;stroke-linejoin:miter;stroke-width:0.8;"/>
   </g>
   <g id="patch_24">
    <path d="M 451.008 166.1544 
L 451.008 42.4224 
" style="fill:none;stroke:#000000;stroke-linecap:square;stroke-linejoin:miter;stroke-width:0.8;"/>
   </g>
   <g id="patch_25">
    <path d="M 62.64 166.1544 
L 451.008 166.1544 
" style="fill:none;stroke:#000000;stroke-linecap:square;stroke-linejoin:miter;stroke-width:0.8;"/>
   </g>
   <g id="patch_26">
    <path d="M 62.64 42.4224 
L 451.008 42.4224 
" style="fill:none;stroke:#000000;stroke-linecap:square;stroke-linejoin:miter;stroke-width:0.8;"/>
   </g>
   <g id="text_15">
    <!-- Distribution of max score -->
    <g transform="translate(181.125563 36.4224)scale(0.12 -0.12)">
     <defs>
      <path d="M 19.671875 64.796875 
L 19.671875 8.109375 
L 31.59375 8.109375 
Q 46.6875 8.109375 53.6875 14.9375 
Q 60.6875 21.78125 60.6875 36.53125 
Q 60.6875 51.171875 53.6875 57.984375 
Q 46.6875 64.796875 31.59375 64.796875 
z
M 9.8125 72.90625 
L 30.078125 72.90625 
Q 51.265625 72.90625 61.171875 64.09375 
Q 71.09375 55.28125 71.09375 36.53125 
Q 71.09375 17.671875 61.125 8.828125 
Q 51.171875 0 30.078125 0 
L 9.8125 0 
z
" id="DejaVuSans-68"/>
      <path d="M 9.421875 54.6875 
L 18.40625 54.6875 
L 18.40625 0 
L 9.421875 0 
z
M 9.421875 75.984375 
L 18.40625 75.984375 
L 18.40625 64.59375 
L 9.421875 64.59375 
z
" id="DejaVuSans-105"/>
      <path d="M 44.28125 53.078125 
L 44.28125 44.578125 
Q 40.484375 46.53125 36.375 47.5 
Q 32.28125 48.484375 27.875 48.484375 
Q 21.1875 48.484375 17.84375 46.4375 
Q 14.5 44.390625 14.5 40.28125 
Q 14.5 37.15625 16.890625 35.375 
Q 19.28125 33.59375 26.515625 31.984375 
L 29.59375 31.296875 
Q 39.15625 29.25 43.1875 25.515625 
Q 47.21875 21.78125 47.21875 15.09375 
Q 47.21875 7.46875 41.1875 3.015625 
Q 35.15625 -1.421875 24.609375 -1.421875 
Q 20.21875 -1.421875 15.453125 -0.5625 
Q 10.6875 0.296875 5.421875 2 
L 5.421875 11.28125 
Q 10.40625 8.6875 15.234375 7.390625 
Q 20.0625 6.109375 24.8125 6.109375 
Q 31.15625 6.109375 34.5625 8.28125 
Q 37.984375 10.453125 37.984375 14.40625 
Q 37.984375 18.0625 35.515625 20.015625 
Q 33.0625 21.96875 24.703125 23.78125 
L 21.578125 24.515625 
Q 13.234375 26.265625 9.515625 29.90625 
Q 5.8125 33.546875 5.8125 39.890625 
Q 5.8125 47.609375 11.28125 51.796875 
Q 16.75 56 26.8125 56 
Q 31.78125 56 36.171875 55.265625 
Q 40.578125 54.546875 44.28125 53.078125 
z
" id="DejaVuSans-115"/>
      <path d="M 18.3125 70.21875 
L 18.3125 54.6875 
L 36.8125 54.6875 
L 36.8125 47.703125 
L 18.3125 47.703125 
L 18.3125 18.015625 
Q 18.3125 11.328125 20.140625 9.421875 
Q 21.96875 7.515625 27.59375 7.515625 
L 36.8125 7.515625 
L 36.8125 0 
L 27.59375 0 
Q 17.1875 0 13.234375 3.875 
Q 9.28125 7.765625 9.28125 18.015625 
L 9.28125 47.703125 
L 2.6875 47.703125 
L 2.6875 54.6875 
L 9.28125 54.6875 
L 9.28125 70.21875 
z
" id="DejaVuSans-116"/>
      <path d="M 54.890625 54.6875 
L 35.109375 28.078125 
L 55.90625 0 
L 45.3125 0 
L 29.390625 21.484375 
L 13.484375 0 
L 2.875 0 
L 24.125 28.609375 
L 4.6875 54.6875 
L 15.28125 54.6875 
L 29.78125 35.203125 
L 44.28125 54.6875 
z
" id="DejaVuSans-120"/>
     </defs>
     <use xlink:href="#DejaVuSans-68"/>
     <use x="77.001953" xlink:href="#DejaVuSans-105"/>
     <use x="104.785156" xlink:href="#DejaVuSans-115"/>
     <use x="156.884766" xlink:href="#DejaVuSans-116"/>
     <use x="196.09375" xlink:href="#DejaVuSans-114"/>
     <use x="237.207031" xlink:href="#DejaVuSans-105"/>
     <use x="264.990234" xlink:href="#DejaVuSans-98"/>
     <use x="328.466797" xlink:href="#DejaVuSans-117"/>
     <use x="391.845703" xlink:href="#DejaVuSans-116"/>
     <use x="431.054688" xlink:href="#DejaVuSans-105"/>
     <use x="458.837891" xlink:href="#DejaVuSans-111"/>
     <use x="520.019531" xlink:href="#DejaVuSans-110"/>
     <use x="583.398438" xlink:href="#DejaVuSans-32"/>
     <use x="615.185547" xlink:href="#DejaVuSans-111"/>
     <use x="676.367188" xlink:href="#DejaVuSans-102"/>
     <use x="711.572266" xlink:href="#DejaVuSans-32"/>
     <use x="743.359375" xlink:href="#DejaVuSans-109"/>
     <use x="840.771484" xlink:href="#DejaVuSans-97"/>
     <use x="902.050781" xlink:href="#DejaVuSans-120"/>
     <use x="961.230469" xlink:href="#DejaVuSans-32"/>
     <use x="993.017578" xlink:href="#DejaVuSans-115"/>
     <use x="1045.117188" xlink:href="#DejaVuSans-99"/>
     <use x="1100.097656" xlink:href="#DejaVuSans-111"/>
     <use x="1161.279297" xlink:href="#DejaVuSans-114"/>
     <use x="1200.142578" xlink:href="#DejaVuSans-101"/>
    </g>
   </g>
   <g id="legend_1">
    <g id="patch_27">
     <path d="M 322.372063 65.100525 
L 444.008 65.100525 
Q 446.008 65.100525 446.008 63.100525 
L 446.008 49.4224 
Q 446.008 47.4224 444.008 47.4224 
L 322.372063 47.4224 
Q 320.372063 47.4224 320.372063 49.4224 
L 320.372063 63.100525 
Q 320.372063 65.100525 322.372063 65.100525 
z
" style="fill:#ffffff;opacity:0.8;stroke:#cccccc;stroke-linejoin:miter;"/>
    </g>
    <g id="patch_28">
     <path d="M 324.372063 59.020837 
L 344.372063 59.020837 
L 344.372063 52.020837 
L 324.372063 52.020837 
z
" style="fill:#8a2be2;"/>
    </g>
    <g id="text_16">
     <!-- Opposite strategy -->
     <g transform="translate(352.372063 59.020837)scale(0.1 -0.1)">
      <defs>
       <path d="M 39.40625 66.21875 
Q 28.65625 66.21875 22.328125 58.203125 
Q 16.015625 50.203125 16.015625 36.375 
Q 16.015625 22.609375 22.328125 14.59375 
Q 28.65625 6.59375 39.40625 6.59375 
Q 50.140625 6.59375 56.421875 14.59375 
Q 62.703125 22.609375 62.703125 36.375 
Q 62.703125 50.203125 56.421875 58.203125 
Q 50.140625 66.21875 39.40625 66.21875 
z
M 39.40625 74.21875 
Q 54.734375 74.21875 63.90625 63.9375 
Q 73.09375 53.65625 73.09375 36.375 
Q 73.09375 19.140625 63.90625 8.859375 
Q 54.734375 -1.421875 39.40625 -1.421875 
Q 24.03125 -1.421875 14.8125 8.828125 
Q 5.609375 19.09375 5.609375 36.375 
Q 5.609375 53.65625 14.8125 63.9375 
Q 24.03125 74.21875 39.40625 74.21875 
z
" id="DejaVuSans-79"/>
       <path d="M 45.40625 27.984375 
Q 45.40625 37.75 41.375 43.109375 
Q 37.359375 48.484375 30.078125 48.484375 
Q 22.859375 48.484375 18.828125 43.109375 
Q 14.796875 37.75 14.796875 27.984375 
Q 14.796875 18.265625 18.828125 12.890625 
Q 22.859375 7.515625 30.078125 7.515625 
Q 37.359375 7.515625 41.375 12.890625 
Q 45.40625 18.265625 45.40625 27.984375 
z
M 54.390625 6.78125 
Q 54.390625 -7.171875 48.1875 -13.984375 
Q 42 -20.796875 29.203125 -20.796875 
Q 24.46875 -20.796875 20.265625 -20.09375 
Q 16.0625 -19.390625 12.109375 -17.921875 
L 12.109375 -9.1875 
Q 16.0625 -11.328125 19.921875 -12.34375 
Q 23.78125 -13.375 27.78125 -13.375 
Q 36.625 -13.375 41.015625 -8.765625 
Q 45.40625 -4.15625 45.40625 5.171875 
L 45.40625 9.625 
Q 42.625 4.78125 38.28125 2.390625 
Q 33.9375 0 27.875 0 
Q 17.828125 0 11.671875 7.65625 
Q 5.515625 15.328125 5.515625 27.984375 
Q 5.515625 40.671875 11.671875 48.328125 
Q 17.828125 56 27.875 56 
Q 33.9375 56 38.28125 53.609375 
Q 42.625 51.21875 45.40625 46.390625 
L 45.40625 54.6875 
L 54.390625 54.6875 
z
" id="DejaVuSans-103"/>
       <path d="M 32.171875 -5.078125 
Q 28.375 -14.84375 24.75 -17.8125 
Q 21.140625 -20.796875 15.09375 -20.796875 
L 7.90625 -20.796875 
L 7.90625 -13.28125 
L 13.1875 -13.28125 
Q 16.890625 -13.28125 18.9375 -11.515625 
Q 21 -9.765625 23.484375 -3.21875 
L 25.09375 0.875 
L 2.984375 54.6875 
L 12.5 54.6875 
L 29.59375 11.921875 
L 46.6875 54.6875 
L 56.203125 54.6875 
z
" id="DejaVuSans-121"/>
      </defs>
      <use xlink:href="#DejaVuSans-79"/>
      <use x="78.710938" xlink:href="#DejaVuSans-112"/>
      <use x="142.1875" xlink:href="#DejaVuSans-112"/>
      <use x="205.664062" xlink:href="#DejaVuSans-111"/>
      <use x="266.845703" xlink:href="#DejaVuSans-115"/>
      <use x="318.945312" xlink:href="#DejaVuSans-105"/>
      <use x="346.728516" xlink:href="#DejaVuSans-116"/>
      <use x="385.9375" xlink:href="#DejaVuSans-101"/>
      <use x="447.460938" xlink:href="#DejaVuSans-32"/>
      <use x="479.248047" xlink:href="#DejaVuSans-115"/>
      <use x="531.347656" xlink:href="#DejaVuSans-116"/>
      <use x="570.556641" xlink:href="#DejaVuSans-114"/>
      <use x="611.669922" xlink:href="#DejaVuSans-97"/>
      <use x="672.949219" xlink:href="#DejaVuSans-116"/>
      <use x="712.158203" xlink:href="#DejaVuSans-101"/>
      <use x="773.681641" xlink:href="#DejaVuSans-103"/>
      <use x="837.158203" xlink:href="#DejaVuSans-121"/>
     </g>
    </g>
   </g>
  </g>
  <g id="axes_2">
   <g id="patch_29">
    <path d="M 62.64 314.6328 
L 451.008 314.6328 
L 451.008 190.9008 
L 62.64 190.9008 
z
" style="fill:#ffffff;"/>
   </g>
   <g id="patch_30">
    <path clip-path="url(#p926a8363a1)" d="M 82.0584 314.6328 
L 112.15692 314.6328 
L 112.15692 240.141547 
L 82.0584 240.141547 
z
" style="fill:#ff8c00;"/>
   </g>
   <g id="patch_31">
    <path clip-path="url(#p926a8363a1)" d="M 112.15692 314.6328 
L 142.25544 314.6328 
L 142.25544 196.7928 
L 112.15692 196.7928 
z
" style="fill:#ff8c00;"/>
   </g>
   <g id="patch_32">
    <path clip-path="url(#p926a8363a1)" d="M 142.25544 314.6328 
L 172.35396 314.6328 
L 172.35396 314.6328 
L 142.25544 314.6328 
z
" style="fill:#ff8c00;"/>
   </g>
   <g id="patch_33">
    <path clip-path="url(#p926a8363a1)" d="M 172.35396 314.6328 
L 202.45248 314.6328 
L 202.45248 314.6328 
L 172.35396 314.6328 
z
" style="fill:#ff8c00;"/>
   </g>
   <g id="patch_34">
    <path clip-path="url(#p926a8363a1)" d="M 202.45248 314.6328 
L 232.551 314.6328 
L 232.551 203.180495 
L 202.45248 203.180495 
z
" style="fill:#ff8c00;"/>
   </g>
   <g id="patch_35">
    <path clip-path="url(#p926a8363a1)" d="M 232.551 314.6328 
L 262.64952 314.6328 
L 262.64952 314.6328 
L 232.551 314.6328 
z
" style="fill:#ff8c00;"/>
   </g>
   <g id="patch_36">
    <path clip-path="url(#p926a8363a1)" d="M 262.64952 314.6328 
L 292.74804 314.6328 
L 292.74804 314.6328 
L 262.64952 314.6328 
z
" style="fill:#ff8c00;"/>
   </g>
   <g id="patch_37">
    <path clip-path="url(#p926a8363a1)" d="M 292.74804 314.6328 
L 322.84656 314.6328 
L 322.84656 314.6328 
L 292.74804 314.6328 
z
" style="fill:#ff8c00;"/>
   </g>
   <g id="patch_38">
    <path clip-path="url(#p926a8363a1)" d="M 322.84656 314.6328 
L 352.94508 314.6328 
L 352.94508 314.6328 
L 322.84656 314.6328 
z
" style="fill:#ff8c00;"/>
   </g>
   <g id="patch_39">
    <path clip-path="url(#p926a8363a1)" d="M 352.94508 314.6328 
L 383.0436 314.6328 
L 383.0436 303.406293 
L 352.94508 303.406293 
z
" style="fill:#ff8c00;"/>
   </g>
   <g id="patch_40">
    <path clip-path="url(#p926a8363a1)" d="M 383.0436 314.6328 
L 413.14212 314.6328 
L 413.14212 314.6328 
L 383.0436 314.6328 
z
" style="fill:#ff8c00;"/>
   </g>
   <g id="patch_41">
    <path clip-path="url(#p926a8363a1)" d="M 413.14212 314.6328 
L 443.24064 314.6328 
L 443.24064 314.6328 
L 413.14212 314.6328 
z
" style="fill:#ff8c00;"/>
   </g>
   <g id="patch_42">
    <path clip-path="url(#p926a8363a1)" d="M 443.24064 314.6328 
L 473.33916 314.6328 
L 473.33916 314.6328 
L 443.24064 314.6328 
z
" style="fill:#ff8c00;"/>
   </g>
   <g id="patch_43">
    <path clip-path="url(#p926a8363a1)" d="M 473.33916 314.6328 
L 503.43768 314.6328 
L 503.43768 314.6328 
L 473.33916 314.6328 
z
" style="fill:#ff8c00;"/>
   </g>
   <g id="patch_44">
    <path clip-path="url(#p926a8363a1)" d="M 503.43768 314.6328 
L 533.5362 314.6328 
L 533.5362 314.6328 
L 503.43768 314.6328 
z
" style="fill:#ff8c00;"/>
   </g>
   <g id="patch_45">
    <path clip-path="url(#p926a8363a1)" d="M 533.5362 314.6328 
L 563.63472 314.6328 
L 563.63472 314.6328 
L 533.5362 314.6328 
z
" style="fill:#ff8c00;"/>
   </g>
   <g id="patch_46">
    <path clip-path="url(#p926a8363a1)" d="M 563.63472 314.6328 
L 593.73324 314.6328 
L 593.73324 314.6328 
L 563.63472 314.6328 
z
" style="fill:#ff8c00;"/>
   </g>
   <g id="patch_47">
    <path clip-path="url(#p926a8363a1)" d="M 593.73324 314.6328 
L 623.83176 314.6328 
L 623.83176 314.6328 
L 593.73324 314.6328 
z
" style="fill:#ff8c00;"/>
   </g>
   <g id="patch_48">
    <path clip-path="url(#p926a8363a1)" d="M 623.83176 314.6328 
L 653.93028 314.6328 
L 653.93028 314.6328 
L 623.83176 314.6328 
z
" style="fill:#ff8c00;"/>
   </g>
   <g id="patch_49">
    <path clip-path="url(#p926a8363a1)" d="M 653.93028 314.6328 
L 684.0288 314.6328 
L 684.0288 314.615999 
L 653.93028 314.615999 
z
" style="fill:#ff8c00;"/>
   </g>
   <g id="matplotlib.axis_3">
    <g id="xtick_10">
     <g id="line2d_14">
      <g>
       <use style="stroke:#000000;stroke-width:0.8;" x="62.64" xlink:href="#m8a6ae89b08" y="314.6328"/>
      </g>
     </g>
     <g id="text_17">
      <!-- 0 -->
      <g transform="translate(59.45875 329.231238)scale(0.1 -0.1)">
       <use xlink:href="#DejaVuSans-48"/>
      </g>
     </g>
    </g>
    <g id="xtick_11">
     <g id="line2d_15">
      <g>
       <use style="stroke:#000000;stroke-width:0.8;" x="111.186" xlink:href="#m8a6ae89b08" y="314.6328"/>
      </g>
     </g>
     <g id="text_18">
      <!-- 10 -->
      <g transform="translate(104.8235 329.231238)scale(0.1 -0.1)">
       <use xlink:href="#DejaVuSans-49"/>
       <use x="63.623047" xlink:href="#DejaVuSans-48"/>
      </g>
     </g>
    </g>
    <g id="xtick_12">
     <g id="line2d_16">
      <g>
       <use style="stroke:#000000;stroke-width:0.8;" x="159.732" xlink:href="#m8a6ae89b08" y="314.6328"/>
      </g>
     </g>
     <g id="text_19">
      <!-- 20 -->
      <g transform="translate(153.3695 329.231238)scale(0.1 -0.1)">
       <use xlink:href="#DejaVuSans-50"/>
       <use x="63.623047" xlink:href="#DejaVuSans-48"/>
      </g>
     </g>
    </g>
    <g id="xtick_13">
     <g id="line2d_17">
      <g>
       <use style="stroke:#000000;stroke-width:0.8;" x="208.278" xlink:href="#m8a6ae89b08" y="314.6328"/>
      </g>
     </g>
     <g id="text_20">
      <!-- 30 -->
      <g transform="translate(201.9155 329.231238)scale(0.1 -0.1)">
       <use xlink:href="#DejaVuSans-51"/>
       <use x="63.623047" xlink:href="#DejaVuSans-48"/>
      </g>
     </g>
    </g>
    <g id="xtick_14">
     <g id="line2d_18">
      <g>
       <use style="stroke:#000000;stroke-width:0.8;" x="256.824" xlink:href="#m8a6ae89b08" y="314.6328"/>
      </g>
     </g>
     <g id="text_21">
      <!-- 40 -->
      <g transform="translate(250.4615 329.231238)scale(0.1 -0.1)">
       <use xlink:href="#DejaVuSans-52"/>
       <use x="63.623047" xlink:href="#DejaVuSans-48"/>
      </g>
     </g>
    </g>
    <g id="xtick_15">
     <g id="line2d_19">
      <g>
       <use style="stroke:#000000;stroke-width:0.8;" x="305.37" xlink:href="#m8a6ae89b08" y="314.6328"/>
      </g>
     </g>
     <g id="text_22">
      <!-- 50 -->
      <g transform="translate(299.0075 329.231238)scale(0.1 -0.1)">
       <use xlink:href="#DejaVuSans-53"/>
       <use x="63.623047" xlink:href="#DejaVuSans-48"/>
      </g>
     </g>
    </g>
    <g id="xtick_16">
     <g id="line2d_20">
      <g>
       <use style="stroke:#000000;stroke-width:0.8;" x="353.916" xlink:href="#m8a6ae89b08" y="314.6328"/>
      </g>
     </g>
     <g id="text_23">
      <!-- 60 -->
      <g transform="translate(347.5535 329.231238)scale(0.1 -0.1)">
       <use xlink:href="#DejaVuSans-54"/>
       <use x="63.623047" xlink:href="#DejaVuSans-48"/>
      </g>
     </g>
    </g>
    <g id="xtick_17">
     <g id="line2d_21">
      <g>
       <use style="stroke:#000000;stroke-width:0.8;" x="402.462" xlink:href="#m8a6ae89b08" y="314.6328"/>
      </g>
     </g>
     <g id="text_24">
      <!-- 70 -->
      <g transform="translate(396.0995 329.231238)scale(0.1 -0.1)">
       <use xlink:href="#DejaVuSans-55"/>
       <use x="63.623047" xlink:href="#DejaVuSans-48"/>
      </g>
     </g>
    </g>
    <g id="xtick_18">
     <g id="line2d_22">
      <g>
       <use style="stroke:#000000;stroke-width:0.8;" x="451.008" xlink:href="#m8a6ae89b08" y="314.6328"/>
      </g>
     </g>
     <g id="text_25">
      <!-- 80 -->
      <g transform="translate(444.6455 329.231238)scale(0.1 -0.1)">
       <use xlink:href="#DejaVuSans-56"/>
       <use x="63.623047" xlink:href="#DejaVuSans-48"/>
      </g>
     </g>
    </g>
    <g id="text_26">
     <!-- Max cell -->
     <g transform="translate(236.293531 342.909362)scale(0.1 -0.1)">
      <defs>
       <path d="M 9.8125 72.90625 
L 24.515625 72.90625 
L 43.109375 23.296875 
L 61.8125 72.90625 
L 76.515625 72.90625 
L 76.515625 0 
L 66.890625 0 
L 66.890625 64.015625 
L 48.09375 14.015625 
L 38.1875 14.015625 
L 19.390625 64.015625 
L 19.390625 0 
L 9.8125 0 
z
" id="DejaVuSans-77"/>
       <path d="M 9.421875 75.984375 
L 18.40625 75.984375 
L 18.40625 0 
L 9.421875 0 
z
" id="DejaVuSans-108"/>
      </defs>
      <use xlink:href="#DejaVuSans-77"/>
      <use x="86.279297" xlink:href="#DejaVuSans-97"/>
      <use x="147.558594" xlink:href="#DejaVuSans-120"/>
      <use x="206.738281" xlink:href="#DejaVuSans-32"/>
      <use x="238.525391" xlink:href="#DejaVuSans-99"/>
      <use x="293.505859" xlink:href="#DejaVuSans-101"/>
      <use x="355.029297" xlink:href="#DejaVuSans-108"/>
      <use x="382.8125" xlink:href="#DejaVuSans-108"/>
     </g>
    </g>
   </g>
   <g id="matplotlib.axis_4">
    <g id="ytick_5">
     <g id="line2d_23">
      <g>
       <use style="stroke:#000000;stroke-width:0.8;" x="62.64" xlink:href="#m98b4b0fe37" y="314.6328"/>
      </g>
     </g>
     <g id="text_27">
      <!-- 0 -->
      <g transform="translate(49.2775 318.432019)scale(0.1 -0.1)">
       <use xlink:href="#DejaVuSans-48"/>
      </g>
     </g>
    </g>
    <g id="ytick_6">
     <g id="line2d_24">
      <g>
       <use style="stroke:#000000;stroke-width:0.8;" x="62.64" xlink:href="#m98b4b0fe37" y="293.631009"/>
      </g>
     </g>
     <g id="text_28">
      <!-- 20000 -->
      <g transform="translate(23.8275 297.430228)scale(0.1 -0.1)">
       <use xlink:href="#DejaVuSans-50"/>
       <use x="63.623047" xlink:href="#DejaVuSans-48"/>
       <use x="127.246094" xlink:href="#DejaVuSans-48"/>
       <use x="190.869141" xlink:href="#DejaVuSans-48"/>
       <use x="254.492188" xlink:href="#DejaVuSans-48"/>
      </g>
     </g>
    </g>
    <g id="ytick_7">
     <g id="line2d_25">
      <g>
       <use style="stroke:#000000;stroke-width:0.8;" x="62.64" xlink:href="#m98b4b0fe37" y="272.629218"/>
      </g>
     </g>
     <g id="text_29">
      <!-- 40000 -->
      <g transform="translate(23.8275 276.428436)scale(0.1 -0.1)">
       <use xlink:href="#DejaVuSans-52"/>
       <use x="63.623047" xlink:href="#DejaVuSans-48"/>
       <use x="127.246094" xlink:href="#DejaVuSans-48"/>
       <use x="190.869141" xlink:href="#DejaVuSans-48"/>
       <use x="254.492188" xlink:href="#DejaVuSans-48"/>
      </g>
     </g>
    </g>
    <g id="ytick_8">
     <g id="line2d_26">
      <g>
       <use style="stroke:#000000;stroke-width:0.8;" x="62.64" xlink:href="#m98b4b0fe37" y="251.627427"/>
      </g>
     </g>
     <g id="text_30">
      <!-- 60000 -->
      <g transform="translate(23.8275 255.426645)scale(0.1 -0.1)">
       <use xlink:href="#DejaVuSans-54"/>
       <use x="63.623047" xlink:href="#DejaVuSans-48"/>
       <use x="127.246094" xlink:href="#DejaVuSans-48"/>
       <use x="190.869141" xlink:href="#DejaVuSans-48"/>
       <use x="254.492188" xlink:href="#DejaVuSans-48"/>
      </g>
     </g>
    </g>
    <g id="ytick_9">
     <g id="line2d_27">
      <g>
       <use style="stroke:#000000;stroke-width:0.8;" x="62.64" xlink:href="#m98b4b0fe37" y="230.625635"/>
      </g>
     </g>
     <g id="text_31">
      <!-- 80000 -->
      <g transform="translate(23.8275 234.424854)scale(0.1 -0.1)">
       <use xlink:href="#DejaVuSans-56"/>
       <use x="63.623047" xlink:href="#DejaVuSans-48"/>
       <use x="127.246094" xlink:href="#DejaVuSans-48"/>
       <use x="190.869141" xlink:href="#DejaVuSans-48"/>
       <use x="254.492188" xlink:href="#DejaVuSans-48"/>
      </g>
     </g>
    </g>
    <g id="ytick_10">
     <g id="line2d_28">
      <g>
       <use style="stroke:#000000;stroke-width:0.8;" x="62.64" xlink:href="#m98b4b0fe37" y="209.623844"/>
      </g>
     </g>
     <g id="text_32">
      <!-- 100000 -->
      <g transform="translate(17.465 213.423063)scale(0.1 -0.1)">
       <use xlink:href="#DejaVuSans-49"/>
       <use x="63.623047" xlink:href="#DejaVuSans-48"/>
       <use x="127.246094" xlink:href="#DejaVuSans-48"/>
       <use x="190.869141" xlink:href="#DejaVuSans-48"/>
       <use x="254.492188" xlink:href="#DejaVuSans-48"/>
       <use x="318.115234" xlink:href="#DejaVuSans-48"/>
      </g>
     </g>
    </g>
    <g id="text_33">
     <!-- Number of appearance -->
     <g transform="translate(11.385312 310.517581)rotate(-90)scale(0.1 -0.1)">
      <use xlink:href="#DejaVuSans-78"/>
      <use x="74.804688" xlink:href="#DejaVuSans-117"/>
      <use x="138.183594" xlink:href="#DejaVuSans-109"/>
      <use x="235.595703" xlink:href="#DejaVuSans-98"/>
      <use x="299.072266" xlink:href="#DejaVuSans-101"/>
      <use x="360.595703" xlink:href="#DejaVuSans-114"/>
      <use x="401.708984" xlink:href="#DejaVuSans-32"/>
      <use x="433.496094" xlink:href="#DejaVuSans-111"/>
      <use x="494.677734" xlink:href="#DejaVuSans-102"/>
      <use x="529.882812" xlink:href="#DejaVuSans-32"/>
      <use x="561.669922" xlink:href="#DejaVuSans-97"/>
      <use x="622.949219" xlink:href="#DejaVuSans-112"/>
      <use x="686.425781" xlink:href="#DejaVuSans-112"/>
      <use x="749.902344" xlink:href="#DejaVuSans-101"/>
      <use x="811.425781" xlink:href="#DejaVuSans-97"/>
      <use x="872.705078" xlink:href="#DejaVuSans-114"/>
      <use x="913.818359" xlink:href="#DejaVuSans-97"/>
      <use x="975.097656" xlink:href="#DejaVuSans-110"/>
      <use x="1038.476562" xlink:href="#DejaVuSans-99"/>
      <use x="1093.457031" xlink:href="#DejaVuSans-101"/>
     </g>
    </g>
   </g>
   <g id="patch_50">
    <path d="M 62.64 314.6328 
L 62.64 190.9008 
" style="fill:none;stroke:#000000;stroke-linecap:square;stroke-linejoin:miter;stroke-width:0.8;"/>
   </g>
   <g id="patch_51">
    <path d="M 451.008 314.6328 
L 451.008 190.9008 
" style="fill:none;stroke:#000000;stroke-linecap:square;stroke-linejoin:miter;stroke-width:0.8;"/>
   </g>
   <g id="patch_52">
    <path d="M 62.64 314.6328 
L 451.008 314.6328 
" style="fill:none;stroke:#000000;stroke-linecap:square;stroke-linejoin:miter;stroke-width:0.8;"/>
   </g>
   <g id="patch_53">
    <path d="M 62.64 190.9008 
L 451.008 190.9008 
" style="fill:none;stroke:#000000;stroke-linecap:square;stroke-linejoin:miter;stroke-width:0.8;"/>
   </g>
   <g id="legend_2">
    <g id="patch_54">
     <path d="M 320.278313 213.578925 
L 444.008 213.578925 
Q 446.008 213.578925 446.008 211.578925 
L 446.008 197.9008 
Q 446.008 195.9008 444.008 195.9008 
L 320.278313 195.9008 
Q 318.278313 195.9008 318.278313 197.9008 
L 318.278313 211.578925 
Q 318.278313 213.578925 320.278313 213.578925 
z
" style="fill:#ffffff;opacity:0.8;stroke:#cccccc;stroke-linejoin:miter;"/>
    </g>
    <g id="patch_55">
     <path d="M 322.278313 207.499237 
L 342.278313 207.499237 
L 342.278313 200.499237 
L 322.278313 200.499237 
z
" style="fill:#ff8c00;"/>
    </g>
    <g id="text_34">
     <!-- Adjacent strategie -->
     <g transform="translate(350.278313 207.499237)scale(0.1 -0.1)">
      <defs>
       <path d="M 34.1875 63.1875 
L 20.796875 26.90625 
L 47.609375 26.90625 
z
M 28.609375 72.90625 
L 39.796875 72.90625 
L 67.578125 0 
L 57.328125 0 
L 50.6875 18.703125 
L 17.828125 18.703125 
L 11.1875 0 
L 0.78125 0 
z
" id="DejaVuSans-65"/>
       <path d="M 45.40625 46.390625 
L 45.40625 75.984375 
L 54.390625 75.984375 
L 54.390625 0 
L 45.40625 0 
L 45.40625 8.203125 
Q 42.578125 3.328125 38.25 0.953125 
Q 33.9375 -1.421875 27.875 -1.421875 
Q 17.96875 -1.421875 11.734375 6.484375 
Q 5.515625 14.40625 5.515625 27.296875 
Q 5.515625 40.1875 11.734375 48.09375 
Q 17.96875 56 27.875 56 
Q 33.9375 56 38.25 53.625 
Q 42.578125 51.265625 45.40625 46.390625 
z
M 14.796875 27.296875 
Q 14.796875 17.390625 18.875 11.75 
Q 22.953125 6.109375 30.078125 6.109375 
Q 37.203125 6.109375 41.296875 11.75 
Q 45.40625 17.390625 45.40625 27.296875 
Q 45.40625 37.203125 41.296875 42.84375 
Q 37.203125 48.484375 30.078125 48.484375 
Q 22.953125 48.484375 18.875 42.84375 
Q 14.796875 37.203125 14.796875 27.296875 
z
" id="DejaVuSans-100"/>
       <path d="M 9.421875 54.6875 
L 18.40625 54.6875 
L 18.40625 -0.984375 
Q 18.40625 -11.421875 14.421875 -16.109375 
Q 10.453125 -20.796875 1.609375 -20.796875 
L -1.8125 -20.796875 
L -1.8125 -13.1875 
L 0.59375 -13.1875 
Q 5.71875 -13.1875 7.5625 -10.8125 
Q 9.421875 -8.453125 9.421875 -0.984375 
z
M 9.421875 75.984375 
L 18.40625 75.984375 
L 18.40625 64.59375 
L 9.421875 64.59375 
z
" id="DejaVuSans-106"/>
      </defs>
      <use xlink:href="#DejaVuSans-65"/>
      <use x="66.658203" xlink:href="#DejaVuSans-100"/>
      <use x="130.134766" xlink:href="#DejaVuSans-106"/>
      <use x="157.917969" xlink:href="#DejaVuSans-97"/>
      <use x="219.197266" xlink:href="#DejaVuSans-99"/>
      <use x="274.177734" xlink:href="#DejaVuSans-101"/>
      <use x="335.701172" xlink:href="#DejaVuSans-110"/>
      <use x="399.080078" xlink:href="#DejaVuSans-116"/>
      <use x="438.289062" xlink:href="#DejaVuSans-32"/>
      <use x="470.076172" xlink:href="#DejaVuSans-115"/>
      <use x="522.175781" xlink:href="#DejaVuSans-116"/>
      <use x="561.384766" xlink:href="#DejaVuSans-114"/>
      <use x="602.498047" xlink:href="#DejaVuSans-97"/>
      <use x="663.777344" xlink:href="#DejaVuSans-116"/>
      <use x="702.986328" xlink:href="#DejaVuSans-101"/>
      <use x="764.509766" xlink:href="#DejaVuSans-103"/>
      <use x="827.986328" xlink:href="#DejaVuSans-105"/>
      <use x="855.769531" xlink:href="#DejaVuSans-101"/>
     </g>
    </g>
   </g>
  </g>
 </g>
 <defs>
  <clipPath id="p61412a4195">
   <rect height="123.732" width="388.368" x="62.64" y="42.4224"/>
  </clipPath>
  <clipPath id="p926a8363a1">
   <rect height="123.732" width="388.368" x="62.64" y="190.9008"/>
  </clipPath>
 </defs>
</svg>
