<?xml version="1.0" encoding="utf-8" standalone="no"?>
<!DOCTYPE svg PUBLIC "-//W3C//DTD SVG 1.1//EN"
  "http://www.w3.org/Graphics/SVG/1.1/DTD/svg11.dtd">
<!-- Created with matplotlib (https://matplotlib.org/) -->
<svg height="345.6pt" version="1.1" viewBox="0 0 460.8 345.6" width="460.8pt" xmlns="http://www.w3.org/2000/svg" xmlns:xlink="http://www.w3.org/1999/xlink">
 <metadata>
  <rdf:RDF xmlns:cc="http://creativecommons.org/ns#" xmlns:dc="http://purl.org/dc/elements/1.1/" xmlns:rdf="http://www.w3.org/1999/02/22-rdf-syntax-ns#">
   <cc:Work>
    <dc:type rdf:resource="http://purl.org/dc/dcmitype/StillImage"/>
    <dc:date>2021-04-21T12:26:52.001046</dc:date>
    <dc:format>image/svg+xml</dc:format>
    <dc:creator>
     <cc:Agent>
      <dc:title>Matplotlib v3.3.2, https://matplotlib.org/</dc:title>
     </cc:Agent>
    </dc:creator>
   </cc:Work>
  </rdf:RDF>
 </metadata>
 <defs>
  <style type="text/css">*{stroke-linecap:butt;stroke-linejoin:round;}</style>
 </defs>
 <g id="figure_1">
  <g id="patch_1">
   <path d="M 0 345.6 
L 460.8 345.6 
L 460.8 0 
L 0 0 
z
" style="fill:#ffffff;"/>
  </g>
  <g id="axes_1">
   <g id="patch_2">
    <path d="M 57.6 307.584 
L 414.72 307.584 
L 414.72 41.472 
L 57.6 41.472 
z
" style="fill:#ffffff;"/>
   </g>
   <g id="matplotlib.axis_1">
    <g id="xtick_1">
     <g id="line2d_1">
      <defs>
       <path d="M 0 0 
L 0 3.5 
" id="ma5eaf4edb7" style="stroke:#000000;stroke-width:0.8;"/>
      </defs>
      <g>
       <use style="stroke:#000000;stroke-width:0.8;" x="57.6" xlink:href="#ma5eaf4edb7" y="307.584"/>
      </g>
     </g>
     <g id="text_1">
      <!-- 0 -->
      <g transform="translate(54.41875 322.182437)scale(0.1 -0.1)">
       <defs>
        <path d="M 31.78125 66.40625 
Q 24.171875 66.40625 20.328125 58.90625 
Q 16.5 51.421875 16.5 36.375 
Q 16.5 21.390625 20.328125 13.890625 
Q 24.171875 6.390625 31.78125 6.390625 
Q 39.453125 6.390625 43.28125 13.890625 
Q 47.125 21.390625 47.125 36.375 
Q 47.125 51.421875 43.28125 58.90625 
Q 39.453125 66.40625 31.78125 66.40625 
z
M 31.78125 74.21875 
Q 44.046875 74.21875 50.515625 64.515625 
Q 56.984375 54.828125 56.984375 36.375 
Q 56.984375 17.96875 50.515625 8.265625 
Q 44.046875 -1.421875 31.78125 -1.421875 
Q 19.53125 -1.421875 13.0625 8.265625 
Q 6.59375 17.96875 6.59375 36.375 
Q 6.59375 54.828125 13.0625 64.515625 
Q 19.53125 74.21875 31.78125 74.21875 
z
" id="DejaVuSans-48"/>
       </defs>
       <use xlink:href="#DejaVuSans-48"/>
      </g>
     </g>
    </g>
    <g id="xtick_2">
     <g id="line2d_2">
      <g>
       <use style="stroke:#000000;stroke-width:0.8;" x="105.216" xlink:href="#ma5eaf4edb7" y="307.584"/>
      </g>
     </g>
     <g id="text_2">
      <!-- 200 -->
      <g transform="translate(95.67225 322.182437)scale(0.1 -0.1)">
       <defs>
        <path d="M 19.1875 8.296875 
L 53.609375 8.296875 
L 53.609375 0 
L 7.328125 0 
L 7.328125 8.296875 
Q 12.9375 14.109375 22.625 23.890625 
Q 32.328125 33.6875 34.8125 36.53125 
Q 39.546875 41.84375 41.421875 45.53125 
Q 43.3125 49.21875 43.3125 52.78125 
Q 43.3125 58.59375 39.234375 62.25 
Q 35.15625 65.921875 28.609375 65.921875 
Q 23.96875 65.921875 18.8125 64.3125 
Q 13.671875 62.703125 7.8125 59.421875 
L 7.8125 69.390625 
Q 13.765625 71.78125 18.9375 73 
Q 24.125 74.21875 28.421875 74.21875 
Q 39.75 74.21875 46.484375 68.546875 
Q 53.21875 62.890625 53.21875 53.421875 
Q 53.21875 48.921875 51.53125 44.890625 
Q 49.859375 40.875 45.40625 35.40625 
Q 44.1875 33.984375 37.640625 27.21875 
Q 31.109375 20.453125 19.1875 8.296875 
z
" id="DejaVuSans-50"/>
       </defs>
       <use xlink:href="#DejaVuSans-50"/>
       <use x="63.623047" xlink:href="#DejaVuSans-48"/>
       <use x="127.246094" xlink:href="#DejaVuSans-48"/>
      </g>
     </g>
    </g>
    <g id="xtick_3">
     <g id="line2d_3">
      <g>
       <use style="stroke:#000000;stroke-width:0.8;" x="152.832" xlink:href="#ma5eaf4edb7" y="307.584"/>
      </g>
     </g>
     <g id="text_3">
      <!-- 400 -->
      <g transform="translate(143.28825 322.182437)scale(0.1 -0.1)">
       <defs>
        <path d="M 37.796875 64.3125 
L 12.890625 25.390625 
L 37.796875 25.390625 
z
M 35.203125 72.90625 
L 47.609375 72.90625 
L 47.609375 25.390625 
L 58.015625 25.390625 
L 58.015625 17.1875 
L 47.609375 17.1875 
L 47.609375 0 
L 37.796875 0 
L 37.796875 17.1875 
L 4.890625 17.1875 
L 4.890625 26.703125 
z
" id="DejaVuSans-52"/>
       </defs>
       <use xlink:href="#DejaVuSans-52"/>
       <use x="63.623047" xlink:href="#DejaVuSans-48"/>
       <use x="127.246094" xlink:href="#DejaVuSans-48"/>
      </g>
     </g>
    </g>
    <g id="xtick_4">
     <g id="line2d_4">
      <g>
       <use style="stroke:#000000;stroke-width:0.8;" x="200.448" xlink:href="#ma5eaf4edb7" y="307.584"/>
      </g>
     </g>
     <g id="text_4">
      <!-- 600 -->
      <g transform="translate(190.90425 322.182437)scale(0.1 -0.1)">
       <defs>
        <path d="M 33.015625 40.375 
Q 26.375 40.375 22.484375 35.828125 
Q 18.609375 31.296875 18.609375 23.390625 
Q 18.609375 15.53125 22.484375 10.953125 
Q 26.375 6.390625 33.015625 6.390625 
Q 39.65625 6.390625 43.53125 10.953125 
Q 47.40625 15.53125 47.40625 23.390625 
Q 47.40625 31.296875 43.53125 35.828125 
Q 39.65625 40.375 33.015625 40.375 
z
M 52.59375 71.296875 
L 52.59375 62.3125 
Q 48.875 64.0625 45.09375 64.984375 
Q 41.3125 65.921875 37.59375 65.921875 
Q 27.828125 65.921875 22.671875 59.328125 
Q 17.53125 52.734375 16.796875 39.40625 
Q 19.671875 43.65625 24.015625 45.921875 
Q 28.375 48.1875 33.59375 48.1875 
Q 44.578125 48.1875 50.953125 41.515625 
Q 57.328125 34.859375 57.328125 23.390625 
Q 57.328125 12.15625 50.6875 5.359375 
Q 44.046875 -1.421875 33.015625 -1.421875 
Q 20.359375 -1.421875 13.671875 8.265625 
Q 6.984375 17.96875 6.984375 36.375 
Q 6.984375 53.65625 15.1875 63.9375 
Q 23.390625 74.21875 37.203125 74.21875 
Q 40.921875 74.21875 44.703125 73.484375 
Q 48.484375 72.75 52.59375 71.296875 
z
" id="DejaVuSans-54"/>
       </defs>
       <use xlink:href="#DejaVuSans-54"/>
       <use x="63.623047" xlink:href="#DejaVuSans-48"/>
       <use x="127.246094" xlink:href="#DejaVuSans-48"/>
      </g>
     </g>
    </g>
    <g id="xtick_5">
     <g id="line2d_5">
      <g>
       <use style="stroke:#000000;stroke-width:0.8;" x="248.064" xlink:href="#ma5eaf4edb7" y="307.584"/>
      </g>
     </g>
     <g id="text_5">
      <!-- 800 -->
      <g transform="translate(238.52025 322.182437)scale(0.1 -0.1)">
       <defs>
        <path d="M 31.78125 34.625 
Q 24.75 34.625 20.71875 30.859375 
Q 16.703125 27.09375 16.703125 20.515625 
Q 16.703125 13.921875 20.71875 10.15625 
Q 24.75 6.390625 31.78125 6.390625 
Q 38.8125 6.390625 42.859375 10.171875 
Q 46.921875 13.96875 46.921875 20.515625 
Q 46.921875 27.09375 42.890625 30.859375 
Q 38.875 34.625 31.78125 34.625 
z
M 21.921875 38.8125 
Q 15.578125 40.375 12.03125 44.71875 
Q 8.5 49.078125 8.5 55.328125 
Q 8.5 64.0625 14.71875 69.140625 
Q 20.953125 74.21875 31.78125 74.21875 
Q 42.671875 74.21875 48.875 69.140625 
Q 55.078125 64.0625 55.078125 55.328125 
Q 55.078125 49.078125 51.53125 44.71875 
Q 48 40.375 41.703125 38.8125 
Q 48.828125 37.15625 52.796875 32.3125 
Q 56.78125 27.484375 56.78125 20.515625 
Q 56.78125 9.90625 50.3125 4.234375 
Q 43.84375 -1.421875 31.78125 -1.421875 
Q 19.734375 -1.421875 13.25 4.234375 
Q 6.78125 9.90625 6.78125 20.515625 
Q 6.78125 27.484375 10.78125 32.3125 
Q 14.796875 37.15625 21.921875 38.8125 
z
M 18.3125 54.390625 
Q 18.3125 48.734375 21.84375 45.5625 
Q 25.390625 42.390625 31.78125 42.390625 
Q 38.140625 42.390625 41.71875 45.5625 
Q 45.3125 48.734375 45.3125 54.390625 
Q 45.3125 60.0625 41.71875 63.234375 
Q 38.140625 66.40625 31.78125 66.40625 
Q 25.390625 66.40625 21.84375 63.234375 
Q 18.3125 60.0625 18.3125 54.390625 
z
" id="DejaVuSans-56"/>
       </defs>
       <use xlink:href="#DejaVuSans-56"/>
       <use x="63.623047" xlink:href="#DejaVuSans-48"/>
       <use x="127.246094" xlink:href="#DejaVuSans-48"/>
      </g>
     </g>
    </g>
    <g id="xtick_6">
     <g id="line2d_6">
      <g>
       <use style="stroke:#000000;stroke-width:0.8;" x="295.68" xlink:href="#ma5eaf4edb7" y="307.584"/>
      </g>
     </g>
     <g id="text_6">
      <!-- 1000 -->
      <g transform="translate(282.955 322.182437)scale(0.1 -0.1)">
       <defs>
        <path d="M 12.40625 8.296875 
L 28.515625 8.296875 
L 28.515625 63.921875 
L 10.984375 60.40625 
L 10.984375 69.390625 
L 28.421875 72.90625 
L 38.28125 72.90625 
L 38.28125 8.296875 
L 54.390625 8.296875 
L 54.390625 0 
L 12.40625 0 
z
" id="DejaVuSans-49"/>
       </defs>
       <use xlink:href="#DejaVuSans-49"/>
       <use x="63.623047" xlink:href="#DejaVuSans-48"/>
       <use x="127.246094" xlink:href="#DejaVuSans-48"/>
       <use x="190.869141" xlink:href="#DejaVuSans-48"/>
      </g>
     </g>
    </g>
    <g id="xtick_7">
     <g id="line2d_7">
      <g>
       <use style="stroke:#000000;stroke-width:0.8;" x="343.296" xlink:href="#ma5eaf4edb7" y="307.584"/>
      </g>
     </g>
     <g id="text_7">
      <!-- 1200 -->
      <g transform="translate(330.571 322.182437)scale(0.1 -0.1)">
       <use xlink:href="#DejaVuSans-49"/>
       <use x="63.623047" xlink:href="#DejaVuSans-50"/>
       <use x="127.246094" xlink:href="#DejaVuSans-48"/>
       <use x="190.869141" xlink:href="#DejaVuSans-48"/>
      </g>
     </g>
    </g>
    <g id="xtick_8">
     <g id="line2d_8">
      <g>
       <use style="stroke:#000000;stroke-width:0.8;" x="390.912" xlink:href="#ma5eaf4edb7" y="307.584"/>
      </g>
     </g>
     <g id="text_8">
      <!-- 1400 -->
      <g transform="translate(378.187 322.182437)scale(0.1 -0.1)">
       <use xlink:href="#DejaVuSans-49"/>
       <use x="63.623047" xlink:href="#DejaVuSans-52"/>
       <use x="127.246094" xlink:href="#DejaVuSans-48"/>
       <use x="190.869141" xlink:href="#DejaVuSans-48"/>
      </g>
     </g>
    </g>
    <g id="text_9">
     <!-- Number of data -->
     <g transform="translate(196.813906 335.860562)scale(0.1 -0.1)">
      <defs>
       <path d="M 9.8125 72.90625 
L 23.09375 72.90625 
L 55.421875 11.921875 
L 55.421875 72.90625 
L 64.984375 72.90625 
L 64.984375 0 
L 51.703125 0 
L 19.390625 60.984375 
L 19.390625 0 
L 9.8125 0 
z
" id="DejaVuSans-78"/>
       <path d="M 8.5 21.578125 
L 8.5 54.6875 
L 17.484375 54.6875 
L 17.484375 21.921875 
Q 17.484375 14.15625 20.5 10.265625 
Q 23.53125 6.390625 29.59375 6.390625 
Q 36.859375 6.390625 41.078125 11.03125 
Q 45.3125 15.671875 45.3125 23.6875 
L 45.3125 54.6875 
L 54.296875 54.6875 
L 54.296875 0 
L 45.3125 0 
L 45.3125 8.40625 
Q 42.046875 3.421875 37.71875 1 
Q 33.40625 -1.421875 27.6875 -1.421875 
Q 18.265625 -1.421875 13.375 4.4375 
Q 8.5 10.296875 8.5 21.578125 
z
M 31.109375 56 
z
" id="DejaVuSans-117"/>
       <path d="M 52 44.1875 
Q 55.375 50.25 60.0625 53.125 
Q 64.75 56 71.09375 56 
Q 79.640625 56 84.28125 50.015625 
Q 88.921875 44.046875 88.921875 33.015625 
L 88.921875 0 
L 79.890625 0 
L 79.890625 32.71875 
Q 79.890625 40.578125 77.09375 44.375 
Q 74.3125 48.1875 68.609375 48.1875 
Q 61.625 48.1875 57.5625 43.546875 
Q 53.515625 38.921875 53.515625 30.90625 
L 53.515625 0 
L 44.484375 0 
L 44.484375 32.71875 
Q 44.484375 40.625 41.703125 44.40625 
Q 38.921875 48.1875 33.109375 48.1875 
Q 26.21875 48.1875 22.15625 43.53125 
Q 18.109375 38.875 18.109375 30.90625 
L 18.109375 0 
L 9.078125 0 
L 9.078125 54.6875 
L 18.109375 54.6875 
L 18.109375 46.1875 
Q 21.1875 51.21875 25.484375 53.609375 
Q 29.78125 56 35.6875 56 
Q 41.65625 56 45.828125 52.96875 
Q 50 49.953125 52 44.1875 
z
" id="DejaVuSans-109"/>
       <path d="M 48.6875 27.296875 
Q 48.6875 37.203125 44.609375 42.84375 
Q 40.53125 48.484375 33.40625 48.484375 
Q 26.265625 48.484375 22.1875 42.84375 
Q 18.109375 37.203125 18.109375 27.296875 
Q 18.109375 17.390625 22.1875 11.75 
Q 26.265625 6.109375 33.40625 6.109375 
Q 40.53125 6.109375 44.609375 11.75 
Q 48.6875 17.390625 48.6875 27.296875 
z
M 18.109375 46.390625 
Q 20.953125 51.265625 25.265625 53.625 
Q 29.59375 56 35.59375 56 
Q 45.5625 56 51.78125 48.09375 
Q 58.015625 40.1875 58.015625 27.296875 
Q 58.015625 14.40625 51.78125 6.484375 
Q 45.5625 -1.421875 35.59375 -1.421875 
Q 29.59375 -1.421875 25.265625 0.953125 
Q 20.953125 3.328125 18.109375 8.203125 
L 18.109375 0 
L 9.078125 0 
L 9.078125 75.984375 
L 18.109375 75.984375 
z
" id="DejaVuSans-98"/>
       <path d="M 56.203125 29.59375 
L 56.203125 25.203125 
L 14.890625 25.203125 
Q 15.484375 15.921875 20.484375 11.0625 
Q 25.484375 6.203125 34.421875 6.203125 
Q 39.59375 6.203125 44.453125 7.46875 
Q 49.3125 8.734375 54.109375 11.28125 
L 54.109375 2.78125 
Q 49.265625 0.734375 44.1875 -0.34375 
Q 39.109375 -1.421875 33.890625 -1.421875 
Q 20.796875 -1.421875 13.15625 6.1875 
Q 5.515625 13.8125 5.515625 26.8125 
Q 5.515625 40.234375 12.765625 48.109375 
Q 20.015625 56 32.328125 56 
Q 43.359375 56 49.78125 48.890625 
Q 56.203125 41.796875 56.203125 29.59375 
z
M 47.21875 32.234375 
Q 47.125 39.59375 43.09375 43.984375 
Q 39.0625 48.390625 32.421875 48.390625 
Q 24.90625 48.390625 20.390625 44.140625 
Q 15.875 39.890625 15.1875 32.171875 
z
" id="DejaVuSans-101"/>
       <path d="M 41.109375 46.296875 
Q 39.59375 47.171875 37.8125 47.578125 
Q 36.03125 48 33.890625 48 
Q 26.265625 48 22.1875 43.046875 
Q 18.109375 38.09375 18.109375 28.8125 
L 18.109375 0 
L 9.078125 0 
L 9.078125 54.6875 
L 18.109375 54.6875 
L 18.109375 46.1875 
Q 20.953125 51.171875 25.484375 53.578125 
Q 30.03125 56 36.53125 56 
Q 37.453125 56 38.578125 55.875 
Q 39.703125 55.765625 41.0625 55.515625 
z
" id="DejaVuSans-114"/>
       <path id="DejaVuSans-32"/>
       <path d="M 30.609375 48.390625 
Q 23.390625 48.390625 19.1875 42.75 
Q 14.984375 37.109375 14.984375 27.296875 
Q 14.984375 17.484375 19.15625 11.84375 
Q 23.34375 6.203125 30.609375 6.203125 
Q 37.796875 6.203125 41.984375 11.859375 
Q 46.1875 17.53125 46.1875 27.296875 
Q 46.1875 37.015625 41.984375 42.703125 
Q 37.796875 48.390625 30.609375 48.390625 
z
M 30.609375 56 
Q 42.328125 56 49.015625 48.375 
Q 55.71875 40.765625 55.71875 27.296875 
Q 55.71875 13.875 49.015625 6.21875 
Q 42.328125 -1.421875 30.609375 -1.421875 
Q 18.84375 -1.421875 12.171875 6.21875 
Q 5.515625 13.875 5.515625 27.296875 
Q 5.515625 40.765625 12.171875 48.375 
Q 18.84375 56 30.609375 56 
z
" id="DejaVuSans-111"/>
       <path d="M 37.109375 75.984375 
L 37.109375 68.5 
L 28.515625 68.5 
Q 23.6875 68.5 21.796875 66.546875 
Q 19.921875 64.59375 19.921875 59.515625 
L 19.921875 54.6875 
L 34.71875 54.6875 
L 34.71875 47.703125 
L 19.921875 47.703125 
L 19.921875 0 
L 10.890625 0 
L 10.890625 47.703125 
L 2.296875 47.703125 
L 2.296875 54.6875 
L 10.890625 54.6875 
L 10.890625 58.5 
Q 10.890625 67.625 15.140625 71.796875 
Q 19.390625 75.984375 28.609375 75.984375 
z
" id="DejaVuSans-102"/>
       <path d="M 45.40625 46.390625 
L 45.40625 75.984375 
L 54.390625 75.984375 
L 54.390625 0 
L 45.40625 0 
L 45.40625 8.203125 
Q 42.578125 3.328125 38.25 0.953125 
Q 33.9375 -1.421875 27.875 -1.421875 
Q 17.96875 -1.421875 11.734375 6.484375 
Q 5.515625 14.40625 5.515625 27.296875 
Q 5.515625 40.1875 11.734375 48.09375 
Q 17.96875 56 27.875 56 
Q 33.9375 56 38.25 53.625 
Q 42.578125 51.265625 45.40625 46.390625 
z
M 14.796875 27.296875 
Q 14.796875 17.390625 18.875 11.75 
Q 22.953125 6.109375 30.078125 6.109375 
Q 37.203125 6.109375 41.296875 11.75 
Q 45.40625 17.390625 45.40625 27.296875 
Q 45.40625 37.203125 41.296875 42.84375 
Q 37.203125 48.484375 30.078125 48.484375 
Q 22.953125 48.484375 18.875 42.84375 
Q 14.796875 37.203125 14.796875 27.296875 
z
" id="DejaVuSans-100"/>
       <path d="M 34.28125 27.484375 
Q 23.390625 27.484375 19.1875 25 
Q 14.984375 22.515625 14.984375 16.5 
Q 14.984375 11.71875 18.140625 8.90625 
Q 21.296875 6.109375 26.703125 6.109375 
Q 34.1875 6.109375 38.703125 11.40625 
Q 43.21875 16.703125 43.21875 25.484375 
L 43.21875 27.484375 
z
M 52.203125 31.203125 
L 52.203125 0 
L 43.21875 0 
L 43.21875 8.296875 
Q 40.140625 3.328125 35.546875 0.953125 
Q 30.953125 -1.421875 24.3125 -1.421875 
Q 15.921875 -1.421875 10.953125 3.296875 
Q 6 8.015625 6 15.921875 
Q 6 25.140625 12.171875 29.828125 
Q 18.359375 34.515625 30.609375 34.515625 
L 43.21875 34.515625 
L 43.21875 35.40625 
Q 43.21875 41.609375 39.140625 45 
Q 35.0625 48.390625 27.6875 48.390625 
Q 23 48.390625 18.546875 47.265625 
Q 14.109375 46.140625 10.015625 43.890625 
L 10.015625 52.203125 
Q 14.9375 54.109375 19.578125 55.046875 
Q 24.21875 56 28.609375 56 
Q 40.484375 56 46.34375 49.84375 
Q 52.203125 43.703125 52.203125 31.203125 
z
" id="DejaVuSans-97"/>
       <path d="M 18.3125 70.21875 
L 18.3125 54.6875 
L 36.8125 54.6875 
L 36.8125 47.703125 
L 18.3125 47.703125 
L 18.3125 18.015625 
Q 18.3125 11.328125 20.140625 9.421875 
Q 21.96875 7.515625 27.59375 7.515625 
L 36.8125 7.515625 
L 36.8125 0 
L 27.59375 0 
Q 17.1875 0 13.234375 3.875 
Q 9.28125 7.765625 9.28125 18.015625 
L 9.28125 47.703125 
L 2.6875 47.703125 
L 2.6875 54.6875 
L 9.28125 54.6875 
L 9.28125 70.21875 
z
" id="DejaVuSans-116"/>
      </defs>
      <use xlink:href="#DejaVuSans-78"/>
      <use x="74.804688" xlink:href="#DejaVuSans-117"/>
      <use x="138.183594" xlink:href="#DejaVuSans-109"/>
      <use x="235.595703" xlink:href="#DejaVuSans-98"/>
      <use x="299.072266" xlink:href="#DejaVuSans-101"/>
      <use x="360.595703" xlink:href="#DejaVuSans-114"/>
      <use x="401.708984" xlink:href="#DejaVuSans-32"/>
      <use x="433.496094" xlink:href="#DejaVuSans-111"/>
      <use x="494.677734" xlink:href="#DejaVuSans-102"/>
      <use x="529.882812" xlink:href="#DejaVuSans-32"/>
      <use x="561.669922" xlink:href="#DejaVuSans-100"/>
      <use x="625.146484" xlink:href="#DejaVuSans-97"/>
      <use x="686.425781" xlink:href="#DejaVuSans-116"/>
      <use x="725.634766" xlink:href="#DejaVuSans-97"/>
     </g>
    </g>
   </g>
   <g id="matplotlib.axis_2">
    <g id="ytick_1">
     <g id="line2d_9">
      <defs>
       <path d="M 0 0 
L -3.5 0 
" id="m761d5e8536" style="stroke:#000000;stroke-width:0.8;"/>
      </defs>
      <g>
       <use style="stroke:#000000;stroke-width:0.8;" x="57.6" xlink:href="#m761d5e8536" y="307.584"/>
      </g>
     </g>
     <g id="text_10">
      <!-- 0 -->
      <g transform="translate(44.2375 311.383219)scale(0.1 -0.1)">
       <use xlink:href="#DejaVuSans-48"/>
      </g>
     </g>
    </g>
    <g id="ytick_2">
     <g id="line2d_10">
      <g>
       <use style="stroke:#000000;stroke-width:0.8;" x="57.6" xlink:href="#m761d5e8536" y="274.32"/>
      </g>
     </g>
     <g id="text_11">
      <!-- 50 -->
      <g transform="translate(37.875 278.119219)scale(0.1 -0.1)">
       <defs>
        <path d="M 10.796875 72.90625 
L 49.515625 72.90625 
L 49.515625 64.59375 
L 19.828125 64.59375 
L 19.828125 46.734375 
Q 21.96875 47.46875 24.109375 47.828125 
Q 26.265625 48.1875 28.421875 48.1875 
Q 40.625 48.1875 47.75 41.5 
Q 54.890625 34.8125 54.890625 23.390625 
Q 54.890625 11.625 47.5625 5.09375 
Q 40.234375 -1.421875 26.90625 -1.421875 
Q 22.3125 -1.421875 17.546875 -0.640625 
Q 12.796875 0.140625 7.71875 1.703125 
L 7.71875 11.625 
Q 12.109375 9.234375 16.796875 8.0625 
Q 21.484375 6.890625 26.703125 6.890625 
Q 35.15625 6.890625 40.078125 11.328125 
Q 45.015625 15.765625 45.015625 23.390625 
Q 45.015625 31 40.078125 35.4375 
Q 35.15625 39.890625 26.703125 39.890625 
Q 22.75 39.890625 18.8125 39.015625 
Q 14.890625 38.140625 10.796875 36.28125 
z
" id="DejaVuSans-53"/>
       </defs>
       <use xlink:href="#DejaVuSans-53"/>
       <use x="63.623047" xlink:href="#DejaVuSans-48"/>
      </g>
     </g>
    </g>
    <g id="ytick_3">
     <g id="line2d_11">
      <g>
       <use style="stroke:#000000;stroke-width:0.8;" x="57.6" xlink:href="#m761d5e8536" y="241.056"/>
      </g>
     </g>
     <g id="text_12">
      <!-- 100 -->
      <g transform="translate(31.5125 244.855219)scale(0.1 -0.1)">
       <use xlink:href="#DejaVuSans-49"/>
       <use x="63.623047" xlink:href="#DejaVuSans-48"/>
       <use x="127.246094" xlink:href="#DejaVuSans-48"/>
      </g>
     </g>
    </g>
    <g id="ytick_4">
     <g id="line2d_12">
      <g>
       <use style="stroke:#000000;stroke-width:0.8;" x="57.6" xlink:href="#m761d5e8536" y="207.792"/>
      </g>
     </g>
     <g id="text_13">
      <!-- 150 -->
      <g transform="translate(31.5125 211.591219)scale(0.1 -0.1)">
       <use xlink:href="#DejaVuSans-49"/>
       <use x="63.623047" xlink:href="#DejaVuSans-53"/>
       <use x="127.246094" xlink:href="#DejaVuSans-48"/>
      </g>
     </g>
    </g>
    <g id="ytick_5">
     <g id="line2d_13">
      <g>
       <use style="stroke:#000000;stroke-width:0.8;" x="57.6" xlink:href="#m761d5e8536" y="174.528"/>
      </g>
     </g>
     <g id="text_14">
      <!-- 200 -->
      <g transform="translate(31.5125 178.327219)scale(0.1 -0.1)">
       <use xlink:href="#DejaVuSans-50"/>
       <use x="63.623047" xlink:href="#DejaVuSans-48"/>
       <use x="127.246094" xlink:href="#DejaVuSans-48"/>
      </g>
     </g>
    </g>
    <g id="ytick_6">
     <g id="line2d_14">
      <g>
       <use style="stroke:#000000;stroke-width:0.8;" x="57.6" xlink:href="#m761d5e8536" y="141.264"/>
      </g>
     </g>
     <g id="text_15">
      <!-- 250 -->
      <g transform="translate(31.5125 145.063219)scale(0.1 -0.1)">
       <use xlink:href="#DejaVuSans-50"/>
       <use x="63.623047" xlink:href="#DejaVuSans-53"/>
       <use x="127.246094" xlink:href="#DejaVuSans-48"/>
      </g>
     </g>
    </g>
    <g id="ytick_7">
     <g id="line2d_15">
      <g>
       <use style="stroke:#000000;stroke-width:0.8;" x="57.6" xlink:href="#m761d5e8536" y="108"/>
      </g>
     </g>
     <g id="text_16">
      <!-- 300 -->
      <g transform="translate(31.5125 111.799219)scale(0.1 -0.1)">
       <defs>
        <path d="M 40.578125 39.3125 
Q 47.65625 37.796875 51.625 33 
Q 55.609375 28.21875 55.609375 21.1875 
Q 55.609375 10.40625 48.1875 4.484375 
Q 40.765625 -1.421875 27.09375 -1.421875 
Q 22.515625 -1.421875 17.65625 -0.515625 
Q 12.796875 0.390625 7.625 2.203125 
L 7.625 11.71875 
Q 11.71875 9.328125 16.59375 8.109375 
Q 21.484375 6.890625 26.8125 6.890625 
Q 36.078125 6.890625 40.9375 10.546875 
Q 45.796875 14.203125 45.796875 21.1875 
Q 45.796875 27.640625 41.28125 31.265625 
Q 36.765625 34.90625 28.71875 34.90625 
L 20.21875 34.90625 
L 20.21875 43.015625 
L 29.109375 43.015625 
Q 36.375 43.015625 40.234375 45.921875 
Q 44.09375 48.828125 44.09375 54.296875 
Q 44.09375 59.90625 40.109375 62.90625 
Q 36.140625 65.921875 28.71875 65.921875 
Q 24.65625 65.921875 20.015625 65.03125 
Q 15.375 64.15625 9.8125 62.3125 
L 9.8125 71.09375 
Q 15.4375 72.65625 20.34375 73.4375 
Q 25.25 74.21875 29.59375 74.21875 
Q 40.828125 74.21875 47.359375 69.109375 
Q 53.90625 64.015625 53.90625 55.328125 
Q 53.90625 49.265625 50.4375 45.09375 
Q 46.96875 40.921875 40.578125 39.3125 
z
" id="DejaVuSans-51"/>
       </defs>
       <use xlink:href="#DejaVuSans-51"/>
       <use x="63.623047" xlink:href="#DejaVuSans-48"/>
       <use x="127.246094" xlink:href="#DejaVuSans-48"/>
      </g>
     </g>
    </g>
    <g id="ytick_8">
     <g id="line2d_16">
      <g>
       <use style="stroke:#000000;stroke-width:0.8;" x="57.6" xlink:href="#m761d5e8536" y="74.736"/>
      </g>
     </g>
     <g id="text_17">
      <!-- 350 -->
      <g transform="translate(31.5125 78.535219)scale(0.1 -0.1)">
       <use xlink:href="#DejaVuSans-51"/>
       <use x="63.623047" xlink:href="#DejaVuSans-53"/>
       <use x="127.246094" xlink:href="#DejaVuSans-48"/>
      </g>
     </g>
    </g>
    <g id="ytick_9">
     <g id="line2d_17">
      <g>
       <use style="stroke:#000000;stroke-width:0.8;" x="57.6" xlink:href="#m761d5e8536" y="41.472"/>
      </g>
     </g>
     <g id="text_18">
      <!-- 400 -->
      <g transform="translate(31.5125 45.271219)scale(0.1 -0.1)">
       <use xlink:href="#DejaVuSans-52"/>
       <use x="63.623047" xlink:href="#DejaVuSans-48"/>
       <use x="127.246094" xlink:href="#DejaVuSans-48"/>
      </g>
     </g>
    </g>
    <g id="text_19">
     <!-- Empirical mean -->
     <g transform="translate(25.432812 213.536594)rotate(-90)scale(0.1 -0.1)">
      <defs>
       <path d="M 9.8125 72.90625 
L 55.90625 72.90625 
L 55.90625 64.59375 
L 19.671875 64.59375 
L 19.671875 43.015625 
L 54.390625 43.015625 
L 54.390625 34.71875 
L 19.671875 34.71875 
L 19.671875 8.296875 
L 56.78125 8.296875 
L 56.78125 0 
L 9.8125 0 
z
" id="DejaVuSans-69"/>
       <path d="M 18.109375 8.203125 
L 18.109375 -20.796875 
L 9.078125 -20.796875 
L 9.078125 54.6875 
L 18.109375 54.6875 
L 18.109375 46.390625 
Q 20.953125 51.265625 25.265625 53.625 
Q 29.59375 56 35.59375 56 
Q 45.5625 56 51.78125 48.09375 
Q 58.015625 40.1875 58.015625 27.296875 
Q 58.015625 14.40625 51.78125 6.484375 
Q 45.5625 -1.421875 35.59375 -1.421875 
Q 29.59375 -1.421875 25.265625 0.953125 
Q 20.953125 3.328125 18.109375 8.203125 
z
M 48.6875 27.296875 
Q 48.6875 37.203125 44.609375 42.84375 
Q 40.53125 48.484375 33.40625 48.484375 
Q 26.265625 48.484375 22.1875 42.84375 
Q 18.109375 37.203125 18.109375 27.296875 
Q 18.109375 17.390625 22.1875 11.75 
Q 26.265625 6.109375 33.40625 6.109375 
Q 40.53125 6.109375 44.609375 11.75 
Q 48.6875 17.390625 48.6875 27.296875 
z
" id="DejaVuSans-112"/>
       <path d="M 9.421875 54.6875 
L 18.40625 54.6875 
L 18.40625 0 
L 9.421875 0 
z
M 9.421875 75.984375 
L 18.40625 75.984375 
L 18.40625 64.59375 
L 9.421875 64.59375 
z
" id="DejaVuSans-105"/>
       <path d="M 48.78125 52.59375 
L 48.78125 44.1875 
Q 44.96875 46.296875 41.140625 47.34375 
Q 37.3125 48.390625 33.40625 48.390625 
Q 24.65625 48.390625 19.8125 42.84375 
Q 14.984375 37.3125 14.984375 27.296875 
Q 14.984375 17.28125 19.8125 11.734375 
Q 24.65625 6.203125 33.40625 6.203125 
Q 37.3125 6.203125 41.140625 7.25 
Q 44.96875 8.296875 48.78125 10.40625 
L 48.78125 2.09375 
Q 45.015625 0.34375 40.984375 -0.53125 
Q 36.96875 -1.421875 32.421875 -1.421875 
Q 20.0625 -1.421875 12.78125 6.34375 
Q 5.515625 14.109375 5.515625 27.296875 
Q 5.515625 40.671875 12.859375 48.328125 
Q 20.21875 56 33.015625 56 
Q 37.15625 56 41.109375 55.140625 
Q 45.0625 54.296875 48.78125 52.59375 
z
" id="DejaVuSans-99"/>
       <path d="M 9.421875 75.984375 
L 18.40625 75.984375 
L 18.40625 0 
L 9.421875 0 
z
" id="DejaVuSans-108"/>
       <path d="M 54.890625 33.015625 
L 54.890625 0 
L 45.90625 0 
L 45.90625 32.71875 
Q 45.90625 40.484375 42.875 44.328125 
Q 39.84375 48.1875 33.796875 48.1875 
Q 26.515625 48.1875 22.3125 43.546875 
Q 18.109375 38.921875 18.109375 30.90625 
L 18.109375 0 
L 9.078125 0 
L 9.078125 54.6875 
L 18.109375 54.6875 
L 18.109375 46.1875 
Q 21.34375 51.125 25.703125 53.5625 
Q 30.078125 56 35.796875 56 
Q 45.21875 56 50.046875 50.171875 
Q 54.890625 44.34375 54.890625 33.015625 
z
" id="DejaVuSans-110"/>
      </defs>
      <use xlink:href="#DejaVuSans-69"/>
      <use x="63.183594" xlink:href="#DejaVuSans-109"/>
      <use x="160.595703" xlink:href="#DejaVuSans-112"/>
      <use x="224.072266" xlink:href="#DejaVuSans-105"/>
      <use x="251.855469" xlink:href="#DejaVuSans-114"/>
      <use x="292.96875" xlink:href="#DejaVuSans-105"/>
      <use x="320.751953" xlink:href="#DejaVuSans-99"/>
      <use x="375.732422" xlink:href="#DejaVuSans-97"/>
      <use x="437.011719" xlink:href="#DejaVuSans-108"/>
      <use x="464.794922" xlink:href="#DejaVuSans-32"/>
      <use x="496.582031" xlink:href="#DejaVuSans-109"/>
      <use x="593.994141" xlink:href="#DejaVuSans-101"/>
      <use x="655.517578" xlink:href="#DejaVuSans-97"/>
      <use x="716.796875" xlink:href="#DejaVuSans-110"/>
     </g>
    </g>
   </g>
   <g id="line2d_18">
    <path clip-path="url(#p0948b6b69c)" d="M 57.6 246.37824 
L 57.83808 230.41152 
L 58.31424 233.73792 
L 58.7904 241.94304 
L 59.02848 242.9568 
L 59.26656 243.05184 
L 59.50464 240.46464 
L 59.74272 242.120448 
L 59.9808 239.36256 
L 60.21888 242.1648 
L 60.45696 243.103015 
L 60.93312 246.023424 
L 61.40928 244.656339 
L 61.64736 244.89984 
L 61.88544 244.837592 
L 62.12352 245.04768 
L 63.07584 247.59792 
L 63.31392 246.697574 
L 63.552 246.787643 
L 63.79008 247.85664 
L 64.02816 248.27904 
L 64.7424 246.893295 
L 64.98048 247.79196 
L 65.21856 246.78144 
L 65.69472 247.062528 
L 65.9328 247.41312 
L 66.17088 246.953617 
L 66.40896 247.358653 
L 66.64704 247.060578 
L 66.88512 247.37616 
L 67.1232 246.962388 
L 67.36128 247.51872 
L 67.59936 246.811446 
L 67.83744 246.68064 
L 68.55168 248.190066 
L 68.78976 247.93056 
L 69.02784 247.13856 
L 69.26592 247.176576 
L 69.74208 247.759975 
L 69.98016 248.286213 
L 70.21824 247.80736 
L 70.45632 248.120064 
L 70.6944 248.23152 
L 71.17056 248.901716 
L 71.40864 248.633426 
L 71.8848 248.690361 
L 72.12288 248.781832 
L 72.59904 248.45724 
L 72.83712 248.220554 
L 73.0752 248.23296 
L 73.31328 248.483305 
L 73.55136 248.295812 
L 74.2656 249.001879 
L 74.74176 248.929999 
L 75.21792 249.074842 
L 75.456 248.934316 
L 75.69408 249.0048 
L 75.93216 248.800542 
L 76.17024 248.83725 
L 76.40832 248.70672 
L 76.6464 248.809387 
L 76.88448 248.617475 
L 77.12256 248.84699 
L 77.36064 248.84928 
L 77.59872 248.381907 
L 77.8368 248.389552 
L 78.07488 248.611134 
L 78.78912 248.74368 
L 79.26528 248.518706 
L 79.74144 248.614713 
L 79.97952 248.535148 
L 80.69376 248.84928 
L 80.93184 248.79744 
L 81.408 249.118403 
L 81.64608 248.935002 
L 82.5984 249.164885 
L 82.83648 249.138841 
L 83.55072 249.571584 
L 84.02688 249.30072 
L 84.74112 249.432743 
L 84.9792 249.612877 
L 85.21728 249.494252 
L 85.45536 249.512949 
L 85.69344 249.41952 
L 86.88384 249.70464 
L 87.12192 249.614162 
L 87.36 249.37728 
L 88.78848 249.56352 
L 89.02656 249.439528 
L 89.26464 249.138656 
L 89.7408 249.254598 
L 89.97888 249.117057 
L 90.21696 249.135777 
L 90.69312 249.438528 
L 91.16928 249.170542 
L 91.64544 249.22416 
L 91.88352 249.076065 
L 92.59776 249.165224 
L 92.83584 249.09294 
L 93.07392 249.216768 
L 93.78816 249.056753 
L 94.26432 249.15954 
L 95.21664 248.738101 
L 95.6928 248.708786 
L 96.40704 248.990681 
L 97.12128 249.182774 
L 97.59744 249.228315 
L 98.0736 249.008236 
L 99.50208 249.294948 
L 99.74016 249.09916 
L 100.69248 249.112468 
L 101.16864 249.31415 
L 101.40672 248.981822 
L 102.35904 248.89856 
L 103.07328 249.08094 
L 103.78752 248.821012 
L 104.73984 248.972498 
L 105.45408 249.026186 
L 106.16832 249.15619 
L 106.4064 249.03936 
L 108.31104 249.673552 
L 108.54912 249.423056 
L 108.7872 249.50752 
L 109.02528 249.444046 
L 109.9776 249.569176 
L 110.45376 249.540557 
L 110.92992 249.618893 
L 111.168 249.49858 
L 111.64416 249.576253 
L 111.88224 249.701735 
L 112.3584 249.66144 
L 113.07264 249.789932 
L 113.31072 249.866006 
L 113.78688 249.836573 
L 114.50112 249.893136 
L 114.97728 249.820102 
L 115.9296 250.01294 
L 116.64384 249.851589 
L 117.35808 249.96864 
L 117.59616 249.775638 
L 118.07232 249.884657 
L 120.6912 249.539571 
L 121.40544 249.613133 
L 122.83392 249.358694 
L 123.072 249.367179 
L 123.78624 248.99167 
L 124.2624 248.992009 
L 124.73856 249.01115 
L 125.4528 248.974228 
L 125.92896 248.92848 
L 126.16704 248.984112 
L 126.40512 248.837482 
L 127.35744 249.021257 
L 127.8336 248.778642 
L 128.07168 248.84224 
L 128.78592 248.675674 
L 129.73824 248.645444 
L 130.2144 248.578447 
L 131.16672 248.644484 
L 131.88096 248.554747 
L 132.35712 248.600064 
L 133.07136 248.378264 
L 134.26176 248.454408 
L 135.21408 248.510391 
L 135.45216 248.406533 
L 136.1664 248.444427 
L 137.11872 248.451531 
L 138.07104 248.325018 
L 141.40416 248.489043 
L 141.88032 248.40219 
L 144.26112 248.113436 
L 144.73728 248.219996 
L 148.54656 248.400135 
L 149.49888 248.131691 
L 151.16544 248.161325 
L 151.6416 248.18592 
L 153.07008 248.304573 
L 153.54624 248.314798 
L 154.26048 248.385522 
L 154.73664 248.388719 
L 155.2128 248.359512 
L 155.92704 248.454428 
L 156.87936 248.319966 
L 157.5936 248.394623 
L 158.06976 248.265559 
L 158.54592 248.250416 
L 159.02208 248.291504 
L 159.49824 248.294991 
L 160.21248 248.3864 
L 161.87904 248.245267 
L 163.06944 248.338119 
L 163.30752 248.124413 
L 164.49792 248.057702 
L 165.45024 248.124966 
L 166.40256 248.063229 
L 167.35488 248.03136 
L 168.06912 248.077923 
L 170.44992 248.142983 
L 171.16416 248.176445 
L 171.8784 248.215021 
L 172.59264 248.225629 
L 173.30688 248.24157 
L 176.40192 248.390047 
L 178.30656 248.415987 
L 179.25888 248.504017 
L 181.16352 248.328022 
L 183.54432 248.492073 
L 184.02048 248.384084 
L 184.49664 248.356638 
L 185.92512 248.359296 
L 188.30592 248.444237 
L 188.78208 248.460856 
L 189.7344 248.47459 
L 190.44864 248.491902 
L 191.87712 248.615465 
L 193.78176 248.49599 
L 194.25792 248.502508 
L 194.73408 248.421353 
L 195.44832 248.351139 
L 196.16256 248.372939 
L 198.78144 248.44352 
L 199.2576 248.324965 
L 200.20992 248.25433 
L 200.92416 248.297953 
L 202.35264 248.348954 
L 211.1616 248.128977 
L 212.11392 248.150955 
L 213.5424 248.211817 
L 214.7328 248.266387 
L 216.16128 248.265361 
L 220.44672 248.103112 
L 222.58944 248.153598 
L 223.30368 248.123049 
L 225.20832 248.137221 
L 226.39872 248.11359 
L 227.11296 248.083895 
L 229.73184 248.212354 
L 230.68416 248.209588 
L 231.16032 248.284768 
L 231.63648 248.257747 
L 235.68384 248.186665 
L 236.39808 248.225454 
L 237.3504 248.2016 
L 252.11136 248.190274 
L 252.58752 248.185854 
L 253.77792 248.220058 
L 254.49216 248.219812 
L 256.3968 248.144893 
L 257.5872 248.109075 
L 258.06336 248.101812 
L 260.92032 248.058947 
L 262.11072 248.07393 
L 263.06304 248.08148 
L 263.77728 248.026477 
L 264.49152 248.014676 
L 265.20576 247.999908 
L 277.824 247.96744 
L 278.53824 247.953715 
L 279.49056 247.92129 
L 280.91904 247.880257 
L 282.10944 247.90331 
L 286.87104 247.868909 
L 288.5376 247.921196 
L 289.728 247.8833 
L 302.8224 248.190176 
L 303.53664 248.143741 
L 306.63168 248.177737 
L 309.9648 248.138943 
L 311.63136 248.159795 
L 313.05984 248.073032 
L 316.15488 248.096829 
L 317.34528 248.049969 
L 323.0592 248.025941 
L 324.48768 248.076424 
L 326.86848 247.983845 
L 329.0112 247.908209 
L 330.2016 247.931721 
L 331.15392 247.877723 
L 337.344 247.860411 
L 340.9152 247.881963 
L 346.39104 247.938963 
L 346.8672 247.921077 
L 348.0576 247.962707 
L 358.05696 247.994296 
L 359.48544 247.978267 
L 414.95808 248.123382 
L 414.95808 248.123382 
" style="fill:none;stroke:#8a2be2;stroke-linecap:square;stroke-width:1.5;"/>
   </g>
   <g id="line2d_19">
    <path clip-path="url(#p0948b6b69c)" d="M 57.6 291.61728 
L 57.83808 219.76704 
L 58.07616 196.704 
L 58.31424 216.44064 
L 58.55232 199.010304 
L 58.7904 213.11424 
L 59.02848 218.62656 
L 59.26656 213.44688 
L 59.50464 220.06272 
L 59.74272 218.43648 
L 59.9808 215.6544 
L 60.21888 208.9008 
L 60.45696 205.642634 
L 60.93312 212.67072 
L 61.64736 221.54112 
L 62.3616 231.67872 
L 62.59968 232.83072 
L 62.83776 235.386657 
L 63.07584 231.18768 
L 63.31392 230.19863 
L 63.552 228.364505 
L 64.26624 232.705589 
L 64.50432 229.701888 
L 64.7424 230.325677 
L 64.98048 229.66308 
L 65.21856 230.89536 
L 65.45664 228.924424 
L 65.9328 230.41152 
L 66.17088 232.06573 
L 66.40896 230.341491 
L 67.1232 233.851504 
L 67.59936 232.453775 
L 67.83744 233.73792 
L 68.78976 235.06848 
L 69.02784 233.941577 
L 69.74208 235.06848 
L 70.45632 235.927296 
L 70.6944 237.0168 
L 70.93248 236.6208 
L 71.8848 240.227127 
L 72.12288 240.455102 
L 72.36096 239.83104 
L 72.59904 239.97492 
L 72.83712 239.008985 
L 73.0752 239.36256 
L 73.31328 238.116853 
L 73.55136 238.355746 
L 73.78944 237.816376 
L 74.02752 238.280832 
L 74.2656 237.607788 
L 74.74176 235.077593 
L 74.97984 235.446071 
L 75.456 232.862552 
L 75.69408 233.66016 
L 75.93216 233.209108 
L 76.17024 232.365254 
L 76.40832 233.172432 
L 76.88448 233.591883 
L 77.12256 234.066552 
L 77.36064 234.81504 
L 77.59872 232.446494 
L 77.8368 232.082456 
L 78.07488 232.552651 
L 78.31296 231.89328 
L 78.55104 232.594236 
L 79.26528 231.105725 
L 79.74144 232.676303 
L 79.97952 233.016616 
L 80.45568 234.005404 
L 80.93184 234.65856 
L 81.16992 234.243533 
L 81.408 234.57446 
L 81.88416 233.098476 
L 82.12224 232.688825 
L 83.07456 234.94528 
L 83.31264 234.659546 
L 83.55072 235.177344 
L 83.7888 235.350175 
L 84.26496 236.440252 
L 84.50304 236.550771 
L 84.74112 236.844488 
L 84.9792 236.07787 
L 85.21728 236.211397 
L 85.45536 236.680938 
L 85.69344 235.912659 
L 86.40768 236.344509 
L 86.88384 236.699489 
L 87.12192 236.521452 
L 87.36 236.02944 
L 87.59808 236.571908 
L 87.83616 235.81692 
L 88.07424 236.228852 
L 88.31232 236.061282 
L 88.78848 237.10464 
L 89.02656 237.014299 
L 89.26464 237.203334 
L 89.50272 237.6064 
L 89.7408 237.259991 
L 89.97888 236.666123 
L 90.45504 237.648235 
L 90.9312 237.960797 
L 91.40736 238.246006 
L 91.64544 237.84048 
L 91.88352 237.165259 
L 92.35968 237.525943 
L 92.59776 236.830573 
L 93.07392 237.667507 
L 93.312 237.090755 
L 93.55008 237.169364 
L 94.02624 237.96288 
L 94.26432 237.296095 
L 94.97856 237.771706 
L 95.21664 237.474367 
L 95.45472 237.363696 
L 95.6928 236.047805 
L 95.93088 235.503787 
L 96.16896 235.864367 
L 96.40704 235.328101 
L 97.12128 236.29148 
L 97.83552 236.688632 
L 98.0736 236.371806 
L 98.31168 236.693001 
L 98.54976 236.379812 
L 99.02592 236.889446 
L 99.264 235.93032 
L 99.50208 236.049486 
L 99.97824 235.763493 
L 100.21632 235.925952 
L 100.4544 236.321853 
L 100.69248 236.479458 
L 100.93056 236.053676 
L 101.16864 236.153176 
L 101.40672 236.467366 
L 101.6448 236.048516 
L 101.88288 236.246061 
L 102.12096 236.611363 
L 102.59712 235.523672 
L 102.8352 234.089717 
L 103.07328 234.1953 
L 103.54944 233.182377 
L 103.78752 233.07264 
L 104.0256 233.194834 
L 104.26368 233.491395 
L 104.50176 233.23392 
L 104.73984 233.353462 
L 105.216 232.648979 
L 105.45408 232.282208 
L 105.69216 232.377865 
L 105.93024 231.911661 
L 106.16832 232.202908 
L 106.4064 232.297557 
L 106.88256 231.870018 
L 107.12064 232.028564 
L 107.35872 231.754752 
L 107.5968 231.874505 
L 108.07296 231.08617 
L 108.7872 231.49568 
L 109.26336 232.083875 
L 109.50144 231.772458 
L 109.73952 231.935616 
L 109.9776 231.55544 
L 110.45376 232.165711 
L 110.69184 231.69456 
L 111.168 231.954028 
L 111.40608 232.228584 
L 111.88224 232.050026 
L 112.59648 232.671178 
L 112.83456 230.971155 
L 113.31072 231.430672 
L 113.5488 231.088076 
L 113.78688 229.973614 
L 114.26304 230.188832 
L 114.50112 230.089968 
L 114.7392 228.799389 
L 114.97728 229.113949 
L 115.45344 228.41568 
L 115.69152 228.565029 
L 115.9296 228.226373 
L 116.16768 228.353731 
L 116.40576 228.662477 
L 116.64384 228.498506 
L 116.88192 228.761626 
L 117.59616 228.097503 
L 117.83424 228.358057 
L 118.07232 227.092947 
L 118.3104 226.721295 
L 118.54848 225.886581 
L 118.78656 225.635944 
L 119.5008 226.006908 
L 119.73888 225.190849 
L 119.97696 224.937505 
L 120.21504 223.77888 
L 120.45312 223.954538 
L 120.6912 223.888775 
L 121.64352 224.84288 
L 122.11968 225.167548 
L 122.35776 224.855335 
L 122.83392 225.36023 
L 123.072 224.443283 
L 123.54816 224.974412 
L 124.2624 225.468087 
L 125.21472 226.088367 
L 125.4528 226.196529 
L 125.69088 225.914505 
L 125.92896 225.9486 
L 126.16704 226.175827 
L 126.40512 226.107847 
L 127.11936 226.696851 
L 127.35744 226.057783 
L 127.59552 226.144707 
L 127.8336 225.925375 
L 128.07168 224.90112 
L 128.54784 224.679877 
L 129.024 224.576506 
L 129.50016 224.843368 
L 130.2144 224.367473 
L 130.45248 224.595196 
L 130.69056 223.6896 
L 130.92864 223.918043 
L 131.16672 223.784473 
L 131.64288 224.244886 
L 131.88096 224.171066 
L 132.35712 224.506368 
L 133.07136 223.834035 
L 133.30944 223.938074 
L 133.54752 223.808616 
L 133.7856 223.895507 
L 134.02368 223.684341 
L 134.49984 224.021547 
L 134.73792 223.852883 
L 135.69024 224.27234 
L 136.40448 223.702612 
L 136.88064 223.997743 
L 137.11872 224.120156 
L 137.59488 223.833737 
L 137.83296 223.561892 
L 138.07104 223.637046 
L 138.5472 224.051365 
L 138.78528 223.875436 
L 139.02336 223.964317 
L 139.97568 222.926641 
L 140.21376 223.024618 
L 140.45184 222.27566 
L 140.928 222.655606 
L 141.16608 222.73056 
L 141.64224 222.503333 
L 141.88032 222.383183 
L 142.59456 222.636292 
L 143.78496 222.340189 
L 144.4992 222.704451 
L 144.73728 222.892225 
L 144.97536 222.775263 
L 145.21344 222.868074 
L 145.6896 222.772456 
L 145.92768 222.535463 
L 146.16576 222.727804 
L 146.64192 222.42816 
L 146.88 222.619251 
L 147.11808 222.519923 
L 147.59424 222.842424 
L 147.83232 222.729287 
L 148.0704 222.924064 
L 148.30848 222.755575 
L 149.02272 223.05024 
L 149.2608 222.938323 
L 149.97504 223.201185 
L 150.21312 223.001324 
L 150.68928 223.066286 
L 150.92736 223.145918 
L 151.40352 222.926699 
L 151.6416 223.05984 
L 151.87968 222.991218 
L 152.11776 222.78253 
L 152.59392 222.967037 
L 153.54624 222.533551 
L 154.26048 223.036229 
L 155.2128 223.45117 
L 155.45088 223.235539 
L 155.92704 223.501607 
L 156.4032 223.720338 
L 156.64128 223.67895 
L 156.87936 223.446771 
L 157.5936 223.799806 
L 157.83168 223.689354 
L 158.30784 223.972112 
L 158.54592 224.037355 
L 158.784 223.833681 
L 159.02208 223.892711 
L 159.26016 223.727632 
L 159.9744 224.070522 
L 160.45056 224.339496 
L 160.68864 224.17567 
L 161.1648 224.411793 
L 161.40288 224.504686 
L 161.87904 224.155766 
L 162.59328 224.475175 
L 163.5456 224.677582 
L 163.78368 224.60111 
L 164.25984 224.72182 
L 164.49792 224.574797 
L 164.736 224.682146 
L 164.97408 224.488762 
L 165.21216 224.548832 
L 165.45024 224.450377 
L 165.9264 224.709954 
L 166.16448 224.640907 
L 166.64064 224.868969 
L 166.87872 224.296729 
L 167.1168 224.119501 
L 167.59296 224.324855 
L 168.3072 224.57533 
L 168.78336 224.361452 
L 169.25952 224.602352 
L 169.97376 224.352268 
L 170.21184 224.286453 
L 170.44992 224.456214 
L 170.688 224.356913 
L 170.92608 223.973506 
L 171.64032 223.559136 
L 171.8784 223.202706 
L 172.35456 223.43641 
L 172.83072 223.635266 
L 173.0688 223.775147 
L 173.54496 223.595127 
L 173.78304 223.739673 
L 174.02112 223.101586 
L 174.73536 223.540109 
L 175.21152 223.417344 
L 175.68768 223.686436 
L 176.16384 223.505407 
L 176.64 223.400186 
L 177.11616 223.687298 
L 177.59232 223.429373 
L 177.8304 223.490504 
L 178.06848 223.383434 
L 178.78272 223.570876 
L 179.25888 223.353315 
L 179.73504 223.556806 
L 179.97312 223.446103 
L 182.83008 224.119764 
L 183.06816 224.03592 
L 184.49664 224.441442 
L 184.9728 224.741746 
L 185.21088 224.593727 
L 185.68704 224.773303 
L 187.3536 225.245243 
L 188.06784 224.735433 
L 188.78208 224.9784 
L 189.02016 224.896794 
L 189.25824 225.017228 
L 189.49632 224.998179 
L 189.97248 224.769181 
L 190.44864 224.936944 
L 190.68672 225.022752 
L 191.40096 224.829313 
L 191.63904 224.381535 
L 191.87712 224.363948 
L 192.1152 224.506278 
L 192.59136 224.208487 
L 193.3056 224.37157 
L 193.54368 224.233255 
L 194.25792 224.464495 
L 194.97216 224.702543 
L 195.6864 224.938132 
L 196.63872 225.375862 
L 197.35296 225.292937 
L 197.59104 224.85886 
L 197.82912 224.935927 
L 198.0672 224.85964 
L 198.30528 224.900484 
L 198.54336 224.775151 
L 199.2576 224.946401 
L 199.49568 224.509807 
L 200.68608 224.633972 
L 200.92416 224.550878 
L 201.16224 224.186085 
L 201.6384 224.452543 
L 201.87648 224.322071 
L 202.11456 224.454638 
L 202.8288 224.257408 
L 203.06688 223.776113 
L 203.54304 223.945085 
L 204.25728 224.196489 
L 204.49536 224.085977 
L 204.73344 224.12629 
L 205.2096 223.919416 
L 206.63808 224.28288 
L 207.5904 224.705505 
L 207.82848 224.659795 
L 208.7808 225.001413 
L 209.25696 224.859873 
L 209.49504 224.835245 
L 211.87584 225.605923 
L 212.82816 225.806519 
L 213.06624 225.707767 
L 216.16128 226.274216 
L 216.39936 226.376019 
L 216.63744 226.087697 
L 217.1136 226.12438 
L 217.35168 226.07532 
L 217.58976 226.196432 
L 217.82784 226.068446 
L 218.06592 226.102477 
L 218.54208 225.851846 
L 218.78016 225.95277 
L 219.01824 225.826085 
L 219.4944 226.038843 
L 219.73248 225.928196 
L 220.20864 226.030787 
L 220.92288 225.798137 
L 221.16096 225.913144 
L 221.8752 225.913418 
L 222.35136 226.05312 
L 222.58944 225.944366 
L 222.82752 225.981425 
L 223.30368 225.818511 
L 224.97024 226.12122 
L 225.4464 226.091912 
L 226.6368 226.294457 
L 227.35104 226.270758 
L 228.54144 226.588242 
L 229.0176 226.406922 
L 231.16032 226.882802 
L 231.3984 226.98956 
L 231.63648 226.91062 
L 231.87456 227.017049 
L 232.11264 226.902032 
L 232.35072 226.993701 
L 233.06496 226.816484 
L 235.68384 227.377346 
L 236.16 227.438578 
L 236.39808 227.523922 
L 236.63616 227.457076 
L 237.58848 227.7047 
L 237.82656 227.574864 
L 239.25504 227.746917 
L 239.49312 227.319055 
L 239.96928 227.410387 
L 240.20736 227.317275 
L 241.63584 227.595684 
L 244.4928 227.303494 
L 245.44512 227.420286 
L 245.92128 227.3136 
L 246.15936 227.109449 
L 246.63552 227.141188 
L 246.8736 226.810985 
L 247.11168 226.701979 
L 248.77824 226.956036 
L 249.01632 226.864462 
L 249.49248 226.906228 
L 249.73056 226.953381 
L 249.96864 226.615559 
L 250.68288 226.672188 
L 250.92096 226.558951 
L 253.06368 226.873072 
L 254.49216 226.577322 
L 255.44448 226.79406 
L 255.92064 226.786781 
L 256.3968 226.620379 
L 256.63488 226.71393 
L 257.34912 226.647936 
L 258.30144 226.782433 
L 258.7776 226.718666 
L 259.49184 226.869629 
L 259.72992 226.786135 
L 260.44416 226.97359 
L 260.92032 226.857135 
L 261.63456 226.999828 
L 262.58688 227.132971 
L 262.82496 227.05043 
L 263.06304 227.1036 
L 263.30112 227.008978 
L 264.25344 227.294121 
L 264.49152 227.316056 
L 264.7296 227.218787 
L 266.87232 227.587104 
L 267.58656 227.735331 
L 268.06272 227.798511 
L 269.01504 227.504942 
L 269.96736 227.574581 
L 270.20544 227.503339 
L 270.44352 227.566054 
L 270.6816 227.3346 
L 270.91968 227.278696 
L 271.872 227.487537 
L 272.82432 227.450473 
L 273.53856 227.59214 
L 274.72896 227.319025 
L 275.20512 227.363592 
L 275.91936 227.309779 
L 276.87168 227.441572 
L 277.58592 227.226807 
L 277.824 227.006091 
L 278.06208 227.038471 
L 278.30016 226.778288 
L 279.0144 226.647078 
L 279.25248 226.408419 
L 279.72864 226.308723 
L 279.96672 226.384264 
L 280.2048 226.115631 
L 280.68096 226.22976 
L 281.15712 226.108432 
L 284.25216 226.412859 
L 284.72832 226.362716 
L 285.44256 226.364284 
L 286.39488 226.571983 
L 286.87104 226.626877 
L 288.77568 226.86336 
L 289.01376 226.760343 
L 289.25184 226.408911 
L 289.728 226.441652 
L 290.9184 226.402208 
L 291.63264 226.53072 
L 292.82304 226.598773 
L 293.53728 226.49227 
L 294.25152 226.659207 
L 294.96576 226.58516 
L 296.15616 226.816487 
L 296.39424 226.716698 
L 297.10848 226.83341 
L 297.34656 226.86072 
L 297.58464 226.634787 
L 298.29888 226.688056 
L 298.77504 226.669156 
L 299.48928 226.656646 
L 299.96544 226.536052 
L 301.15584 226.796659 
L 301.39392 226.859898 
L 301.87008 226.827947 
L 303.06048 226.873674 
L 303.29856 226.660706 
L 304.0128 226.830824 
L 305.2032 226.628179 
L 305.67936 226.622677 
L 306.86976 226.496017 
L 307.34592 226.526285 
L 307.584 226.319826 
L 308.29824 226.407216 
L 309.25056 226.273956 
L 309.72672 226.239085 
L 310.20288 226.184298 
L 310.67904 226.327301 
L 312.10752 226.16865 
L 312.3456 226.22976 
L 312.82176 226.190433 
L 313.29792 226.047283 
L 313.536 225.794131 
L 315.44064 225.742285 
L 317.82144 225.955239 
L 318.2976 225.907526 
L 320.20224 225.853388 
L 323.77344 226.104739 
L 324.2496 225.858417 
L 324.72576 225.807285 
L 325.20192 225.81547 
L 325.91616 225.856003 
L 326.39232 225.788707 
L 328.05888 226.002065 
L 328.77312 225.95998 
L 330.2016 226.115646 
L 330.67776 226.139356 
L 331.63008 226.1796 
L 332.10624 226.198464 
L 333.7728 226.310966 
L 334.01088 226.261822 
L 335.20128 226.505352 
L 335.43936 226.242128 
L 336.1536 226.268717 
L 336.62976 226.282587 
L 337.82016 226.474056 
L 338.5344 226.544897 
L 339.01056 226.499696 
L 339.48672 226.513035 
L 340.20096 226.33248 
L 340.67712 226.339336 
L 341.39136 226.264812 
L 341.86752 226.354147 
L 343.05792 226.140422 
L 343.296 225.860362 
L 344.4864 225.676227 
L 345.20064 225.83545 
L 345.6768 225.72874 
L 346.39104 225.784152 
L 347.34336 225.740359 
L 347.58144 225.7944 
L 348.29568 225.70774 
L 351.6288 225.877282 
L 352.58112 225.692324 
L 353.53344 225.823013 
L 355.43808 225.794944 
L 356.15232 225.850509 
L 357.34272 225.984768 
L 357.81888 225.960154 
L 359.48544 226.070686 
L 359.72352 225.864567 
L 360.43776 225.860649 
L 361.39008 225.989518 
L 362.10432 225.902169 
L 362.81856 225.904417 
L 363.05664 225.849896 
L 363.5328 225.890099 
L 364.48512 225.823667 
L 365.19936 225.937216 
L 365.67552 225.884534 
L 366.86592 225.942885 
L 367.58016 225.965428 
L 368.77056 226.021079 
L 369.24672 225.970903 
L 370.43712 225.979693 
L 371.15136 226.046314 
L 371.38944 225.884186 
L 371.8656 225.93133 
L 372.10368 225.753554 
L 373.53216 225.776602 
L 374.00832 225.703539 
L 374.48448 225.808502 
L 374.96064 225.737604 
L 375.91296 225.72771 
L 377.8176 225.591453 
L 378.29376 225.608475 
L 379.24608 225.591192 
L 380.1984 225.699611 
L 380.91264 225.629728 
L 381.62688 225.603138 
L 382.10304 225.678472 
L 382.5792 225.482798 
L 383.29344 225.454722 
L 384.48384 225.27521 
L 387.3408 225.4848 
L 387.81696 225.252245 
L 388.5312 225.257633 
L 389.24544 225.133187 
L 394.00704 225.48826 
L 394.4832 225.386213 
L 395.19744 225.503732 
L 395.6736 225.516258 
L 397.57824 225.577183 
L 398.29248 225.544569 
L 400.67328 225.794237 
L 401.14944 225.83749 
L 403.53024 225.790249 
L 405.67296 225.944185 
L 405.91104 225.729112 
L 406.62528 225.71692 
L 407.10144 225.667154 
L 407.5776 225.615715 
L 408.05376 225.584288 
L 409.00608 225.734291 
L 409.48224 225.711827 
L 412.81536 225.996521 
L 413.29152 226.025567 
L 414.00576 226.080538 
L 414.95808 226.159397 
L 414.95808 226.159397 
" style="fill:none;stroke:#ff8c00;stroke-linecap:square;stroke-width:1.5;"/>
   </g>
   <g id="patch_3">
    <path d="M 57.6 307.584 
L 57.6 41.472 
" style="fill:none;stroke:#000000;stroke-linecap:square;stroke-linejoin:miter;stroke-width:0.8;"/>
   </g>
   <g id="patch_4">
    <path d="M 414.72 307.584 
L 414.72 41.472 
" style="fill:none;stroke:#000000;stroke-linecap:square;stroke-linejoin:miter;stroke-width:0.8;"/>
   </g>
   <g id="patch_5">
    <path d="M 57.6 307.584 
L 414.72 307.584 
" style="fill:none;stroke:#000000;stroke-linecap:square;stroke-linejoin:miter;stroke-width:0.8;"/>
   </g>
   <g id="patch_6">
    <path d="M 57.6 41.472 
L 414.72 41.472 
" style="fill:none;stroke:#000000;stroke-linecap:square;stroke-linejoin:miter;stroke-width:0.8;"/>
   </g>
   <g id="text_20">
    <!-- Empirical mean convergence -->
    <g transform="translate(148.770938 35.472)scale(0.12 -0.12)">
     <defs>
      <path d="M 2.984375 54.6875 
L 12.5 54.6875 
L 29.59375 8.796875 
L 46.6875 54.6875 
L 56.203125 54.6875 
L 35.6875 0 
L 23.484375 0 
z
" id="DejaVuSans-118"/>
      <path d="M 45.40625 27.984375 
Q 45.40625 37.75 41.375 43.109375 
Q 37.359375 48.484375 30.078125 48.484375 
Q 22.859375 48.484375 18.828125 43.109375 
Q 14.796875 37.75 14.796875 27.984375 
Q 14.796875 18.265625 18.828125 12.890625 
Q 22.859375 7.515625 30.078125 7.515625 
Q 37.359375 7.515625 41.375 12.890625 
Q 45.40625 18.265625 45.40625 27.984375 
z
M 54.390625 6.78125 
Q 54.390625 -7.171875 48.1875 -13.984375 
Q 42 -20.796875 29.203125 -20.796875 
Q 24.46875 -20.796875 20.265625 -20.09375 
Q 16.0625 -19.390625 12.109375 -17.921875 
L 12.109375 -9.1875 
Q 16.0625 -11.328125 19.921875 -12.34375 
Q 23.78125 -13.375 27.78125 -13.375 
Q 36.625 -13.375 41.015625 -8.765625 
Q 45.40625 -4.15625 45.40625 5.171875 
L 45.40625 9.625 
Q 42.625 4.78125 38.28125 2.390625 
Q 33.9375 0 27.875 0 
Q 17.828125 0 11.671875 7.65625 
Q 5.515625 15.328125 5.515625 27.984375 
Q 5.515625 40.671875 11.671875 48.328125 
Q 17.828125 56 27.875 56 
Q 33.9375 56 38.28125 53.609375 
Q 42.625 51.21875 45.40625 46.390625 
L 45.40625 54.6875 
L 54.390625 54.6875 
z
" id="DejaVuSans-103"/>
     </defs>
     <use xlink:href="#DejaVuSans-69"/>
     <use x="63.183594" xlink:href="#DejaVuSans-109"/>
     <use x="160.595703" xlink:href="#DejaVuSans-112"/>
     <use x="224.072266" xlink:href="#DejaVuSans-105"/>
     <use x="251.855469" xlink:href="#DejaVuSans-114"/>
     <use x="292.96875" xlink:href="#DejaVuSans-105"/>
     <use x="320.751953" xlink:href="#DejaVuSans-99"/>
     <use x="375.732422" xlink:href="#DejaVuSans-97"/>
     <use x="437.011719" xlink:href="#DejaVuSans-108"/>
     <use x="464.794922" xlink:href="#DejaVuSans-32"/>
     <use x="496.582031" xlink:href="#DejaVuSans-109"/>
     <use x="593.994141" xlink:href="#DejaVuSans-101"/>
     <use x="655.517578" xlink:href="#DejaVuSans-97"/>
     <use x="716.796875" xlink:href="#DejaVuSans-110"/>
     <use x="780.175781" xlink:href="#DejaVuSans-32"/>
     <use x="811.962891" xlink:href="#DejaVuSans-99"/>
     <use x="866.943359" xlink:href="#DejaVuSans-111"/>
     <use x="928.125" xlink:href="#DejaVuSans-110"/>
     <use x="991.503906" xlink:href="#DejaVuSans-118"/>
     <use x="1050.683594" xlink:href="#DejaVuSans-101"/>
     <use x="1112.207031" xlink:href="#DejaVuSans-114"/>
     <use x="1151.570312" xlink:href="#DejaVuSans-103"/>
     <use x="1215.046875" xlink:href="#DejaVuSans-101"/>
     <use x="1276.570312" xlink:href="#DejaVuSans-110"/>
     <use x="1339.949219" xlink:href="#DejaVuSans-99"/>
     <use x="1394.929688" xlink:href="#DejaVuSans-101"/>
    </g>
   </g>
   <g id="legend_1">
    <g id="patch_7">
     <path d="M 275.166875 78.82825 
L 407.72 78.82825 
Q 409.72 78.82825 409.72 76.82825 
L 409.72 48.472 
Q 409.72 46.472 407.72 46.472 
L 275.166875 46.472 
Q 273.166875 46.472 273.166875 48.472 
L 273.166875 76.82825 
Q 273.166875 78.82825 275.166875 78.82825 
z
" style="fill:#ffffff;opacity:0.8;stroke:#cccccc;stroke-linejoin:miter;"/>
    </g>
    <g id="line2d_20">
     <path d="M 277.166875 54.570437 
L 297.166875 54.570437 
" style="fill:none;stroke:#8a2be2;stroke-linecap:square;stroke-width:1.5;"/>
    </g>
    <g id="line2d_21"/>
    <g id="text_21">
     <!-- opposite movement -->
     <g transform="translate(305.166875 58.070437)scale(0.1 -0.1)">
      <defs>
       <path d="M 44.28125 53.078125 
L 44.28125 44.578125 
Q 40.484375 46.53125 36.375 47.5 
Q 32.28125 48.484375 27.875 48.484375 
Q 21.1875 48.484375 17.84375 46.4375 
Q 14.5 44.390625 14.5 40.28125 
Q 14.5 37.15625 16.890625 35.375 
Q 19.28125 33.59375 26.515625 31.984375 
L 29.59375 31.296875 
Q 39.15625 29.25 43.1875 25.515625 
Q 47.21875 21.78125 47.21875 15.09375 
Q 47.21875 7.46875 41.1875 3.015625 
Q 35.15625 -1.421875 24.609375 -1.421875 
Q 20.21875 -1.421875 15.453125 -0.5625 
Q 10.6875 0.296875 5.421875 2 
L 5.421875 11.28125 
Q 10.40625 8.6875 15.234375 7.390625 
Q 20.0625 6.109375 24.8125 6.109375 
Q 31.15625 6.109375 34.5625 8.28125 
Q 37.984375 10.453125 37.984375 14.40625 
Q 37.984375 18.0625 35.515625 20.015625 
Q 33.0625 21.96875 24.703125 23.78125 
L 21.578125 24.515625 
Q 13.234375 26.265625 9.515625 29.90625 
Q 5.8125 33.546875 5.8125 39.890625 
Q 5.8125 47.609375 11.28125 51.796875 
Q 16.75 56 26.8125 56 
Q 31.78125 56 36.171875 55.265625 
Q 40.578125 54.546875 44.28125 53.078125 
z
" id="DejaVuSans-115"/>
      </defs>
      <use xlink:href="#DejaVuSans-111"/>
      <use x="61.181641" xlink:href="#DejaVuSans-112"/>
      <use x="124.658203" xlink:href="#DejaVuSans-112"/>
      <use x="188.134766" xlink:href="#DejaVuSans-111"/>
      <use x="249.316406" xlink:href="#DejaVuSans-115"/>
      <use x="301.416016" xlink:href="#DejaVuSans-105"/>
      <use x="329.199219" xlink:href="#DejaVuSans-116"/>
      <use x="368.408203" xlink:href="#DejaVuSans-101"/>
      <use x="429.931641" xlink:href="#DejaVuSans-32"/>
      <use x="461.71875" xlink:href="#DejaVuSans-109"/>
      <use x="559.130859" xlink:href="#DejaVuSans-111"/>
      <use x="620.3125" xlink:href="#DejaVuSans-118"/>
      <use x="679.492188" xlink:href="#DejaVuSans-101"/>
      <use x="741.015625" xlink:href="#DejaVuSans-109"/>
      <use x="838.427734" xlink:href="#DejaVuSans-101"/>
      <use x="899.951172" xlink:href="#DejaVuSans-110"/>
      <use x="963.330078" xlink:href="#DejaVuSans-116"/>
     </g>
    </g>
    <g id="line2d_22">
     <path d="M 277.166875 69.248562 
L 297.166875 69.248562 
" style="fill:none;stroke:#ff8c00;stroke-linecap:square;stroke-width:1.5;"/>
    </g>
    <g id="line2d_23"/>
    <g id="text_22">
     <!-- adjacent movement -->
     <g transform="translate(305.166875 72.748562)scale(0.1 -0.1)">
      <defs>
       <path d="M 9.421875 54.6875 
L 18.40625 54.6875 
L 18.40625 -0.984375 
Q 18.40625 -11.421875 14.421875 -16.109375 
Q 10.453125 -20.796875 1.609375 -20.796875 
L -1.8125 -20.796875 
L -1.8125 -13.1875 
L 0.59375 -13.1875 
Q 5.71875 -13.1875 7.5625 -10.8125 
Q 9.421875 -8.453125 9.421875 -0.984375 
z
M 9.421875 75.984375 
L 18.40625 75.984375 
L 18.40625 64.59375 
L 9.421875 64.59375 
z
" id="DejaVuSans-106"/>
      </defs>
      <use xlink:href="#DejaVuSans-97"/>
      <use x="61.279297" xlink:href="#DejaVuSans-100"/>
      <use x="124.755859" xlink:href="#DejaVuSans-106"/>
      <use x="152.539062" xlink:href="#DejaVuSans-97"/>
      <use x="213.818359" xlink:href="#DejaVuSans-99"/>
      <use x="268.798828" xlink:href="#DejaVuSans-101"/>
      <use x="330.322266" xlink:href="#DejaVuSans-110"/>
      <use x="393.701172" xlink:href="#DejaVuSans-116"/>
      <use x="432.910156" xlink:href="#DejaVuSans-32"/>
      <use x="464.697266" xlink:href="#DejaVuSans-109"/>
      <use x="562.109375" xlink:href="#DejaVuSans-111"/>
      <use x="623.291016" xlink:href="#DejaVuSans-118"/>
      <use x="682.470703" xlink:href="#DejaVuSans-101"/>
      <use x="743.994141" xlink:href="#DejaVuSans-109"/>
      <use x="841.40625" xlink:href="#DejaVuSans-101"/>
      <use x="902.929688" xlink:href="#DejaVuSans-110"/>
      <use x="966.308594" xlink:href="#DejaVuSans-116"/>
     </g>
    </g>
   </g>
  </g>
 </g>
 <defs>
  <clipPath id="p0948b6b69c">
   <rect height="266.112" width="357.12" x="57.6" y="41.472"/>
  </clipPath>
 </defs>
</svg>
